<svg xmlns="http://www.w3.org/2000/svg" xmlns:xlink="http://www.w3.org/1999/xlink" viewBox="0 0 500 500" width="500" height="500" preserveAspectRatio="xMidYMid meet" style="width: 100%; height: 100%; transform: translate3d(0px, 0px, 0px); content-visibility: visible;"><defs><clipPath id="__lottie_element_12485"><rect width="500" height="500" x="0" y="0"/></clipPath><g id="__lottie_element_12490"><g transform="matrix(1,0,0,1,0,0.0000152587890625)" opacity="1" style="display: block;"><g opacity="1" transform="matrix(1,0,0,1,340.4580078125,297.00201416015625)"><path fill="rgb(255,255,255)" fill-opacity="1" d=" M-17.80900001525879,57.48899841308594 C-17.80900001525879,57.48899841308594 17.80900001525879,57.48899841308594 17.80900001525879,57.48899841308594 C37.48099899291992,57.48899841308594 53.428001403808594,73.43499755859375 53.428001403808594,93.10700225830078 C53.428001403808594,93.10700225830078 53.428001403808594,105.02300262451172 53.428001403808594,105.02300262451172 C53.428001403808594,108.29199981689453 50.97800064086914,111.04199981689453 47.73099899291992,111.41799926757812 C47.73099899291992,111.41799926757812 35.266998291015625,112.85900115966797 35.266998291015625,112.85900115966797 C31.86199951171875,113.25299835205078 28.527999877929688,114.1240005493164 25.364999771118164,115.44599914550781 C25.364999771118164,115.44599914550781 25.364999771118164,115.44599914550781 25.364999771118164,115.44599914550781 C9.095999717712402,122.24800109863281 -9.217000007629395,122.26699829101562 -25.5,115.4990005493164 C-25.5,115.4990005493164 -25.586000442504883,115.46299743652344 -25.586000442504883,115.46299743652344 C-28.886999130249023,114.09100341796875 -32.36399841308594,113.18699645996094 -35.915000915527344,112.77799987792969 C-35.915000915527344,112.77799987792969 -47.72800064086914,111.41600036621094 -47.72800064086914,111.41600036621094 C-50.97600173950195,111.04100036621094 -53.428001403808594,108.29100036621094 -53.428001403808594,105.02100372314453 C-53.428001403808594,105.02100372314453 -53.428001403808594,93.10700225830078 -53.428001403808594,93.10700225830078 C-53.428001403808594,73.43499755859375 -37.48099899291992,57.48899841308594 -17.80900001525879,57.48899841308594z M-0.8330000042915344,-37.54999923706055 C-0.8330000042915344,-37.54999923706055 0.8330000042915344,-37.54999923706055 0.8330000042915344,-37.54999923706055 C15.3100004196167,-37.54999923706055 26.900999069213867,-25.54800033569336 26.398000717163086,-11.079999923706055 C26.398000717163086,-11.079999923706055 25.56599998474121,12.857999801635742 25.56599998474121,12.857999801635742 C25.086999893188477,26.631999969482422 13.781999588012695,37.54999923706055 0,37.54999923706055 C0,37.54999923706055 0,37.54999923706055 0,37.54999923706055 C-13.781999588012695,37.54999923706055 -25.086999893188477,26.631999969482422 -25.56599998474121,12.857999801635742 C-25.56599998474121,12.857999801635742 -26.398000717163086,-11.079999923706055 -26.398000717163086,-11.079999923706055 C-26.900999069213867,-25.54800033569336 -15.3100004196167,-37.54999923706055 -0.8330000042915344,-37.54999923706055z"/><path stroke-linecap="round" stroke-linejoin="round" fill-opacity="0" stroke="rgb(8,168,138)" stroke-opacity="1" stroke-width="0" d=" M-17.80900001525879,57.48899841308594 C-17.80900001525879,57.48899841308594 17.80900001525879,57.48899841308594 17.80900001525879,57.48899841308594 C37.48099899291992,57.48899841308594 53.428001403808594,73.43499755859375 53.428001403808594,93.10700225830078 C53.428001403808594,93.10700225830078 53.428001403808594,105.02300262451172 53.428001403808594,105.02300262451172 C53.428001403808594,108.29199981689453 50.97800064086914,111.04199981689453 47.73099899291992,111.41799926757812 C47.73099899291992,111.41799926757812 35.266998291015625,112.85900115966797 35.266998291015625,112.85900115966797 C31.86199951171875,113.25299835205078 28.527999877929688,114.1240005493164 25.364999771118164,115.44599914550781 C25.364999771118164,115.44599914550781 25.364999771118164,115.44599914550781 25.364999771118164,115.44599914550781 C9.095999717712402,122.24800109863281 -9.217000007629395,122.26699829101562 -25.5,115.4990005493164 C-25.5,115.4990005493164 -25.586000442504883,115.46299743652344 -25.586000442504883,115.46299743652344 C-28.886999130249023,114.09100341796875 -32.36399841308594,113.18699645996094 -35.915000915527344,112.77799987792969 C-35.915000915527344,112.77799987792969 -47.72800064086914,111.41600036621094 -47.72800064086914,111.41600036621094 C-50.97600173950195,111.04100036621094 -53.428001403808594,108.29100036621094 -53.428001403808594,105.02100372314453 C-53.428001403808594,105.02100372314453 -53.428001403808594,93.10700225830078 -53.428001403808594,93.10700225830078 C-53.428001403808594,73.43499755859375 -37.48099899291992,57.48899841308594 -17.80900001525879,57.48899841308594z M-0.8330000042915344,-37.54999923706055 C-0.8330000042915344,-37.54999923706055 0.8330000042915344,-37.54999923706055 0.8330000042915344,-37.54999923706055 C15.3100004196167,-37.54999923706055 26.900999069213867,-25.54800033569336 26.398000717163086,-11.079999923706055 C26.398000717163086,-11.079999923706055 25.56599998474121,12.857999801635742 25.56599998474121,12.857999801635742 C25.086999893188477,26.631999969482422 13.781999588012695,37.54999923706055 0,37.54999923706055 C0,37.54999923706055 0,37.54999923706055 0,37.54999923706055 C-13.781999588012695,37.54999923706055 -25.086999893188477,26.631999969482422 -25.56599998474121,12.857999801635742 C-25.56599998474121,12.857999801635742 -26.398000717163086,-11.079999923706055 -26.398000717163086,-11.079999923706055 C-26.900999069213867,-25.54800033569336 -15.3100004196167,-37.54999923706055 -0.8330000042915344,-37.54999923706055z"/></g></g></g><filter id="__lottie_element_12497" filterUnits="objectBoundingBox" x="0%" y="0%" width="100%" height="100%"><feComponentTransfer in="SourceGraphic"><feFuncA type="table" tableValues="1.0 0.0"/></feComponentTransfer></filter><mask id="__lottie_element_12490_2" mask-type="alpha"><g filter="url(#__lottie_element_12497)"><rect width="500" height="500" x="0" y="0" fill="#ffffff" opacity="0"/><use xmlns:ns1="http://www.w3.org/1999/xlink" ns1:href="#__lottie_element_12490"/></g></mask></defs><g clip-path="url(#__lottie_element_12485)"><g mask="url(#__lottie_element_12490_2)" style="display: block;"><g transform="matrix(1,0,0,1,0,0)" opacity="1"><g opacity="1" transform="matrix(1,0,0,1,250.0019989013672,109.75900268554688)"><path stroke-linecap="round" stroke-linejoin="round" fill-opacity="0" stroke="rgb(8,168,138)" stroke-opacity="1" stroke-width="12" d=" M54.67300033569336,19.878000259399414 C54.67300033569336,19.878000259399414 54.67300033569336,-5.565000057220459 54.67300033569336,-5.565000057220459 C54.67300033569336,-13.437999725341797 48.231998443603516,-19.878000259399414 40.35900115966797,-19.878000259399414 C40.35900115966797,-19.878000259399414 -40.35900115966797,-19.878000259399414 -40.35900115966797,-19.878000259399414 C-48.231998443603516,-19.878000259399414 -54.67300033569336,-13.437999725341797 -54.67300033569336,-5.565000057220459 C-54.67300033569336,-5.565000057220459 -54.67300033569336,19.878000259399414 -54.67300033569336,19.878000259399414"/></g><g opacity="1" transform="matrix(1,0,0,1,250,246.53500366210938)"><path stroke-linecap="round" stroke-linejoin="round" fill-opacity="0" stroke="rgb(18,19,49)" stroke-opacity="1" stroke-width="12" d=" M-116.88700103759766,116.89700317382812 C-116.88700103759766,116.89700317382812 116.88700103759766,116.89700317382812 116.88700103759766,116.89700317382812 C136.13699340820312,116.89700317382812 151.88699340820312,101.14700317382812 151.88699340820312,81.89700317382812 C151.88699340820312,81.89700317382812 151.88699340820312,-81.89700317382812 151.88699340820312,-81.89700317382812 C151.88699340820312,-101.14700317382812 136.13699340820312,-116.89700317382812 116.88700103759766,-116.89700317382812 C116.88700103759766,-116.89700317382812 -116.88700103759766,-116.89700317382812 -116.88700103759766,-116.89700317382812 C-136.13699340820312,-116.89700317382812 -151.88699340820312,-101.14700317382812 -151.88699340820312,-81.89700317382812 C-151.88699340820312,-81.89700317382812 -151.88699340820312,81.89700317382812 -151.88699340820312,81.89700317382812 C-151.88699340820312,101.14700317382812 -136.13699340820312,116.89700317382812 -116.88700103759766,116.89700317382812z"/></g><g opacity="1" transform="matrix(1,0,0,1,250.0019989013672,281.7229919433594)"><path stroke-linecap="round" stroke-linejoin="round" fill-opacity="0" stroke="rgb(8,168,138)" stroke-opacity="1" stroke-width="12" d=" M36.577999114990234,-17.690000534057617 C36.577999114990234,-17.690000534057617 36.577999114990234,17.690000534057617 36.577999114990234,17.690000534057617 C36.577999114990234,17.690000534057617 -36.577999114990234,17.690000534057617 -36.577999114990234,17.690000534057617 C-36.577999114990234,17.690000534057617 -36.577999114990234,-17.690000534057617 -36.577999114990234,-17.690000534057617"/></g><g opacity="1" transform="matrix(1,0,0,1,250,264.0299987792969)"><path stroke-linecap="round" stroke-linejoin="round" fill-opacity="0" stroke="rgb(18,19,49)" stroke-opacity="1" stroke-width="12" d=" M151.88699340820312,0 C151.88699340820312,0 -151.88699340820312,0 -151.88699340820312,0"/></g></g></g><g transform="matrix(1,0,0,1,0,0.0000152587890625)" opacity="1" style="display: block;"><g opacity="1" transform="matrix(1,0,0,1,340.4580078125,297.00201416015625)"><path stroke-linecap="round" stroke-linejoin="round" fill-opacity="0" stroke="rgb(8,168,138)" stroke-opacity="1" stroke-width="12" d=" M-17.80900001525879,57.48899841308594 C-17.80900001525879,57.48899841308594 17.80900001525879,57.48899841308594 17.80900001525879,57.48899841308594 C37.48099899291992,57.48899841308594 53.428001403808594,73.43499755859375 53.428001403808594,93.10700225830078 C53.428001403808594,93.10700225830078 53.428001403808594,105.02300262451172 53.428001403808594,105.02300262451172 C53.428001403808594,108.29199981689453 50.97800064086914,111.04199981689453 47.73099899291992,111.41799926757812 C47.73099899291992,111.41799926757812 35.266998291015625,112.85900115966797 35.266998291015625,112.85900115966797 C31.86199951171875,113.25299835205078 28.527999877929688,114.1240005493164 25.364999771118164,115.44599914550781 C25.364999771118164,115.44599914550781 25.364999771118164,115.44599914550781 25.364999771118164,115.44599914550781 C9.095999717712402,122.24800109863281 -9.217000007629395,122.26699829101562 -25.5,115.4990005493164 C-25.5,115.4990005493164 -25.586000442504883,115.46299743652344 -25.586000442504883,115.46299743652344 C-28.886999130249023,114.09100341796875 -32.36399841308594,113.18699645996094 -35.915000915527344,112.77799987792969 C-35.915000915527344,112.77799987792969 -47.72800064086914,111.41600036621094 -47.72800064086914,111.41600036621094 C-50.97600173950195,111.04100036621094 -53.428001403808594,108.29100036621094 -53.428001403808594,105.02100372314453 C-53.428001403808594,105.02100372314453 -53.428001403808594,93.10700225830078 -53.428001403808594,93.10700225830078 C-53.428001403808594,73.43499755859375 -37.48099899291992,57.48899841308594 -17.80900001525879,57.48899841308594z M-0.8330000042915344,-37.54999923706055 C-0.8330000042915344,-37.54999923706055 0.8330000042915344,-37.54999923706055 0.8330000042915344,-37.54999923706055 C15.3100004196167,-37.54999923706055 26.900999069213867,-25.54800033569336 26.398000717163086,-11.079999923706055 C26.398000717163086,-11.079999923706055 25.56599998474121,12.857999801635742 25.56599998474121,12.857999801635742 C25.086999893188477,26.631999969482422 13.781999588012695,37.54999923706055 0,37.54999923706055 C0,37.54999923706055 0,37.54999923706055 0,37.54999923706055 C-13.781999588012695,37.54999923706055 -25.086999893188477,26.631999969482422 -25.56599998474121,12.857999801635742 C-25.56599998474121,12.857999801635742 -26.398000717163086,-11.079999923706055 -26.398000717163086,-11.079999923706055 C-26.900999069213867,-25.54800033569336 -15.3100004196167,-37.54999923706055 -0.8330000042915344,-37.54999923706055z"/></g></g></g></svg>