<svg xmlns="http://www.w3.org/2000/svg" xmlns:xlink="http://www.w3.org/1999/xlink" viewBox="0 0 500 500" width="500" height="500" preserveAspectRatio="xMidYMid meet" style="width: 100%; height: 100%; transform: translate3d(0px, 0px, 0px); content-visibility: visible;"><defs><clipPath id="__lottie_element_6502"><rect width="500" height="500" x="0" y="0"/></clipPath><clipPath id="__lottie_element_6505"><path d="M0,0 L430,0 L430,430 L0,430z"/></clipPath><clipPath id="__lottie_element_6509"><path d="M0,0 L430,0 L430,430 L0,430z"/></clipPath><clipPath id="__lottie_element_6513"><path d="M0,0 L430,0 L430,430 L0,430z"/></clipPath><clipPath id="__lottie_element_6517"><path d="M0,0 L430,0 L430,500 L0,500z"/></clipPath><clipPath id="__lottie_element_6521"><path d="M0,0 L430,0 L430,430 L0,430z"/></clipPath><clipPath id="__lottie_element_6525"><path d="M0,0 L430,0 L430,430 L0,430z"/></clipPath><clipPath id="__lottie_element_6529"><path d="M0,0 L430,0 L430,430 L0,430z"/></clipPath><clipPath id="__lottie_element_6533"><path d="M0,0 L430,0 L430,430 L0,430z"/></clipPath><g id="__lottie_element_6549"><g transform="matrix(1,0,0,1,215,215)" opacity="1" style="display: block;"><g opacity="1" transform="matrix(1,0,0,1,0,0)"><path fill="rgb(255,0,0)" fill-opacity="1" d=" M0.6859999895095825,-111.75 C0.6859999895095825,-111.75 -94.82099914550781,-23.11400032043457 -94.82099914550781,-23.11400032043457 C-94.82099914550781,-23.11400032043457 -95,116 -95,116 C-95,116 95.65899658203125,116 95.65899658203125,116 C95.65899658203125,116 95.65899658203125,-22.246000289916992 95.65899658203125,-22.246000289916992 C95.65899658203125,-22.246000289916992 0.6859999895095825,-111.75 0.6859999895095825,-111.75z"/></g><g opacity="1" transform="matrix(1,0,0,1,81.51399993896484,-95.40799713134766)"><path fill="rgb(255,0,0)" fill-opacity="1" d=" M-6.013999938964844,-8.592000007629395 C-6.013999938964844,-8.592000007629395 -6.013999938964844,84.59200286865234 -6.013999938964844,84.59200286865234 C-6.013999938964844,84.59200286865234 -40.513999938964844,84.59200286865234 -40.513999938964844,84.59200286865234 C-40.513999938964844,84.59200286865234 -40.513999938964844,-8.592000007629395 -40.513999938964844,-8.592000007629395 C-40.513999938964844,-8.592000007629395 -6.013999938964844,-8.592000007629395 -6.013999938964844,-8.592000007629395z"/></g></g></g><filter id="__lottie_element_6559" filterUnits="objectBoundingBox" x="0%" y="0%" width="100%" height="100%"><feComponentTransfer in="SourceGraphic"><feFuncA type="table" tableValues="1.0 0.0"/></feComponentTransfer></filter><mask id="__lottie_element_6549_2" mask-type="alpha"><g filter="url(#__lottie_element_6559)"><rect width="430" height="430" x="0" y="0" fill="#ffffff" opacity="0"/><use xmlns:ns1="http://www.w3.org/1999/xlink" ns1:href="#__lottie_element_6549"/></g></mask><clipPath id="__lottie_element_6561"><path d="M0,0 L430,0 L430,430 L0,430z"/></clipPath><clipPath id="__lottie_element_6589"><path d="M0,0 L430,0 L430,430 L0,430z"/></clipPath><clipPath id="__lottie_element_6599"><path d="M0,0 L430,0 L430,430 L0,430z"/></clipPath></defs><g clip-path="url(#__lottie_element_6502)"><g clip-path="url(#__lottie_element_6505)" transform="matrix(1,0,0,1,35,35)" opacity="0" style="display: block;"><g transform="matrix(1,0,0,1,215.25,206.25)" opacity="1" style="display: block;"><g opacity="1" transform="matrix(1,0,0,1,0,0)"><path stroke-linecap="round" stroke-linejoin="round" fill-opacity="0" stroke="rgb(7,168,137)" stroke-opacity="1" stroke-width="8.4" d=" M58.25,-13.149999618530273 C58.25,-13.149999618530273 160.25,-13.149999618530273 160.25,-13.149999618530273 M160.25,13.149999618530273 C160.25,13.149999618530273 58.25,13.149999618530273 58.25,13.149999618530273 M-160.25,-13.149999618530273 C-160.25,-13.149999618530273 -38.75,-13.149999618530273 -38.75,-13.149999618530273 M-38.75,13.149999618530273 C-38.75,13.149999618530273 -160.25,13.149999618530273 -160.25,13.149999618530273"/></g></g><g transform="matrix(1,0,0,1,115.69999694824219,282.3999938964844)" opacity="1" style="display: block;"><g opacity="1" transform="matrix(1,0,0,1,0,0)"><path stroke-linecap="round" stroke-linejoin="round" fill-opacity="0" stroke="rgb(18,19,48)" stroke-opacity="1" stroke-width="8.4" d=" M29.700000762939453,-29.700000762939453 C29.700000762939453,-29.700000762939453 -29.700000762939453,-29.700000762939453 -29.700000762939453,-29.700000762939453 C-29.700000762939453,-29.700000762939453 -29.700000762939453,29.700000762939453 -29.700000762939453,29.700000762939453 C-29.700000762939453,29.700000762939453 29.700000762939453,29.700000762939453 29.700000762939453,29.700000762939453 C29.700000762939453,29.700000762939453 29.700000762939453,-29.700000762939453 29.700000762939453,-29.700000762939453z"/></g></g><g transform="matrix(1,0,0,1,324.8999938964844,282.3999938964844)" opacity="1" style="display: block;"><g opacity="1" transform="matrix(1,0,0,1,0,0)"><path stroke-linecap="round" stroke-linejoin="round" fill-opacity="0" stroke="rgb(18,19,48)" stroke-opacity="1" stroke-width="8.4" d=" M29.700000762939453,-29.700000762939453 C29.700000762939453,-29.700000762939453 -29.700000762939453,-29.700000762939453 -29.700000762939453,-29.700000762939453 C-29.700000762939453,-29.700000762939453 -29.700000762939453,29.700000762939453 -29.700000762939453,29.700000762939453 C-29.700000762939453,29.700000762939453 29.700000762939453,29.700000762939453 29.700000762939453,29.700000762939453 C29.700000762939453,29.700000762939453 29.700000762939453,-29.700000762939453 29.700000762939453,-29.700000762939453z"/></g></g><g transform="matrix(1,0,0,1,115.69999694824219,156.89999389648438)" opacity="1" style="display: block;"><g opacity="1" transform="matrix(1,0,0,1,0,0)"><path stroke-linecap="round" stroke-linejoin="round" fill-opacity="0" stroke="rgb(18,19,48)" stroke-opacity="1" stroke-width="8.4" d=" M26,-10.699999809265137 C26,-10.699999809265137 -26,-10.699999809265137 -26,-10.699999809265137 C-26,-10.699999809265137 -26,10.699999809265137 -26,10.699999809265137 C-26,10.699999809265137 26,10.699999809265137 26,10.699999809265137 C26,10.699999809265137 26,-10.699999809265137 26,-10.699999809265137z"/></g></g><g transform="matrix(1,0,0,1,224.89999389648438,227)" opacity="1" style="display: block;"><g opacity="1" transform="matrix(1,0,0,1,0,0)"><path stroke-linecap="round" stroke-linejoin="round" fill-opacity="0" stroke="rgb(18,19,48)" stroke-opacity="1" stroke-width="8.4" d=" M26,-10.699999809265137 C26,-10.699999809265137 -26,-10.699999809265137 -26,-10.699999809265137 C-26,-10.699999809265137 -26,10.699999809265137 -26,10.699999809265137 C-26,10.699999809265137 26,10.699999809265137 26,10.699999809265137 C26,10.699999809265137 26,-10.699999809265137 26,-10.699999809265137z"/></g></g><g transform="matrix(1,0,0,1,115.75,215.25)" opacity="1" style="display: block;"><g opacity="1" transform="matrix(1,0,0,1,0,0)"><path stroke-linecap="round" stroke-linejoin="round" fill-opacity="0" stroke="rgb(18,19,48)" stroke-opacity="1" stroke-width="8.4" d=" M60.75,132.25 C60.75,132.25 60.75,-132.25 60.75,-132.25"/></g></g><g transform="matrix(5.275599956512451,0,0,5.275599956512451,325.0899963378906,190.02000427246094)" opacity="1" style="display: block;"><g opacity="1" transform="matrix(1,0,0,1,0,0)"><path stroke-linecap="round" stroke-linejoin="round" fill-opacity="0" stroke="rgb(18,19,48)" stroke-opacity="1" stroke-width="1.715" d=" M-27.985000610351562,-11.651000022888184 C-27.985000610351562,-11.651000022888184 -27.981000900268555,-11.661999702453613 -27.981000900268555,-11.661999702453613 C-27.981000900268555,-11.661999702453613 9.57699966430664,-3.6530001163482666 9.57699966430664,-3.6530001163482666 C9.57699966430664,-3.6530001163482666 9.57699966430664,29.993999481201172 9.57699966430664,29.993999481201172 C9.57699966430664,29.993999481201172 -9.843000411987305,30.0049991607666 -9.843000411987305,30.0049991607666"/><path stroke-linecap="round" stroke-linejoin="round" fill-opacity="0" stroke="rgb(7,168,137)" stroke-opacity="0" stroke-width="1.715" d=" M-27.985000610351562,-11.651000022888184 C-27.985000610351562,-11.651000022888184 -27.981000900268555,-11.661999702453613 -27.981000900268555,-11.661999702453613 C-27.981000900268555,-11.661999702453613 9.57699966430664,-3.6530001163482666 9.57699966430664,-3.6530001163482666 C9.57699966430664,-3.6530001163482666 9.57699966430664,29.993999481201172 9.57699966430664,29.993999481201172 C9.57699966430664,29.993999481201172 -9.843000411987305,30.0049991607666 -9.843000411987305,30.0049991607666"/></g></g><g transform="matrix(5.275599956512451,0,0,5.275599956512451,325.0899963378906,190.02000427246094)" opacity="1" style="display: block;"><g opacity="1" transform="matrix(1,0,0,1,0,0)"><path stroke-linecap="round" stroke-linejoin="round" fill-opacity="0" stroke="rgb(7,168,137)" stroke-opacity="1" stroke-width="1.715" d=" M-22.857999801635742,29.448999404907227 C-22.857999801635742,29.448999404907227 -22.857999801635742,15.930999755859375 -22.857999801635742,15.930999755859375 C-22.857999801635742,15.930999755859375 -15.086000442504883,15.930999755859375 -15.086000442504883,15.930999755859375 C-15.086000442504883,15.930999755859375 -15.086000442504883,29.448999404907227 -15.086000442504883,29.448999404907227"/></g><g opacity="1" transform="matrix(1,0,0,1,0,0)"><path stroke-linecap="round" stroke-linejoin="round" fill-opacity="0" stroke="rgb(18,19,48)" stroke-opacity="1" stroke-width="1.715" d=" M-51.106998443603516,-11.168999671936035 C-51.106998443603516,-11.168999671936035 -28.180999755859375,-20.176000595092773 -28.180999755859375,-20.176000595092773 M-28.007999420166016,-6.053999900817871 C-28.007999420166016,-6.053999900817871 -9.979999542236328,-2.5429999828338623 -9.979999542236328,-2.5429999828338623"/></g><g opacity="1" transform="matrix(1,0,0,1,0,0)"><path stroke-linecap="round" stroke-linejoin="round" fill-opacity="0" stroke="rgb(18,19,48)" stroke-opacity="1" stroke-width="1.715" d=" M-51.12799835205078,-11.102999687194824 C-51.12799835205078,-11.102999687194824 -51.12799835205078,-10.993000030517578 -51.12799835205078,-10.993000030517578 C-51.12799835205078,-10.993000030517578 -51.11399841308594,29.993999481201172 -51.11399841308594,29.993999481201172 C-51.11399841308594,29.993999481201172 -9.883000373840332,29.950000762939453 -9.883000373840332,29.950000762939453 C-9.883000373840332,29.950000762939453 -9.913000106811523,-2.4639999866485596 -9.913000106811523,-2.4639999866485596"/></g></g></g><g clip-path="url(#__lottie_element_6509)" transform="matrix(1,0,0,1,35,35)" opacity="0" style="display: block;"><g mask="url(#__lottie_element_6549_2)" style="display: block;"><g transform="matrix(1,0,0,1,215.14999389648438,186.0500030517578)" opacity="1"><g opacity="1" transform="matrix(1,0,0,1,0,0)"><path stroke-linecap="round" stroke-linejoin="round" fill-opacity="0" stroke="rgb(18,19,48)" stroke-opacity="1" stroke-width="8.4" d=" M188.14999389648438,-5.550000190734863 C188.14999389648438,-5.550000190734863 173.5500030517578,-19.25 173.5500030517578,-19.25 C173.5500030517578,-19.25 101.55000305175781,-87.05000305175781 101.55000305175781,-87.05000305175781 C101.55000305175781,-87.05000305175781 74.75,-61.849998474121094 74.75,-61.849998474121094 M173.5500030517578,-19.25 C173.5500030517578,-19.25 173.5500030517578,87.05000305175781 173.5500030517578,87.05000305175781 C173.5500030517578,87.05000305175781 95.8499984741211,87.05000305175781 95.8499984741211,87.05000305175781 M-49.45000076293945,-38.04999923706055 C-49.45000076293945,-38.04999923706055 -101.55000305175781,-87.05000305175781 -101.55000305175781,-87.05000305175781 C-101.55000305175781,-87.05000305175781 -173.64999389648438,-19.25 -173.64999389648438,-19.25 C-173.64999389648438,-19.25 -188.14999389648438,-5.550000190734863 -188.14999389648438,-5.550000190734863 M-94.75,87.05000305175781 C-94.75,87.05000305175781 -173.64999389648438,87.05000305175781 -173.64999389648438,87.05000305175781 C-173.64999389648438,87.05000305175781 -173.64999389648438,-19.25 -173.64999389648438,-19.25"/></g></g></g><g transform="matrix(5.275599956512451,0,0,5.275599956512451,325.0899963378906,190.02000427246094)" opacity="1" style="display: block;"><g opacity="1" transform="matrix(1,0,0,1,0,0)"><path stroke-linecap="round" stroke-linejoin="round" fill-opacity="0" stroke="rgb(7,168,137)" stroke-opacity="1" stroke-width="1.715" d=" M-13.14799976348877,-9.37600040435791 C-13.14799976348877,-9.37600040435791 -13.14799976348877,-14.932000160217285 -13.14799976348877,-14.932000160217285 C-13.14799976348877,-14.932000160217285 -6.534999847412109,-14.932000160217285 -6.534999847412109,-14.932000160217285 C-6.534999847412109,-14.932000160217285 -6.534999847412109,-3.6510000228881836 -6.534999847412109,-3.6510000228881836 C-6.534999847412109,-3.6510000228881836 -6.599999904632568,-3.7119998931884766 -6.599999904632568,-3.7119998931884766"/></g></g><g transform="matrix(5.275599956512451,0,0,5.275599956512451,325.0899963378906,190.02000427246094)" opacity="1" style="display: block;"><g opacity="1" transform="matrix(1,0,0,1,0,0)"><path stroke-linecap="round" stroke-linejoin="round" fill-opacity="0" stroke="rgb(7,168,137)" stroke-opacity="1" stroke-width="1.715" d=" M-25.95400047302246,26.645000457763672 C-25.95400047302246,26.645000457763672 -25.95400047302246,9.26200008392334 -25.95400047302246,9.26200008392334 C-25.95400047302246,9.26200008392334 -15.375,9.26200008392334 -15.375,9.26200008392334 C-15.375,9.26200008392334 -15.375,26.645000457763672 -15.375,26.645000457763672"/></g><g opacity="1" transform="matrix(1,0,0,1,0,0)"><path stroke-linecap="round" stroke-linejoin="round" fill-opacity="0" stroke="rgb(7,168,137)" stroke-opacity="1" stroke-width="1.715" d=" M-42.79399871826172,3.885999917984009 C-42.79399871826172,3.885999917984009 -20.854000091552734,-16.59000015258789 -20.854000091552734,-16.59000015258789 M-20.854000091552734,-16.59000015258789 C-20.854000091552734,-16.59000015258789 0.7760000228881836,3.4600000381469727 0.7760000228881836,3.4600000381469727 M-38.66699981689453,0.6669999957084656 C-38.66699981689453,0.6669999957084656 -38.66699981689453,0.7440000176429749 -38.66699981689453,0.7440000176429749 C-38.66699981689453,0.7440000176429749 -38.66699981689453,26.645000457763672 -38.66699981689453,26.645000457763672 C-38.66699981689453,26.645000457763672 -2.746999979019165,26.645000457763672 -2.746999979019165,26.645000457763672 C-2.746999979019165,26.645000457763672 -2.753999948501587,0.17499999701976776 -2.753999948501587,0.17499999701976776"/><path stroke-linecap="round" stroke-linejoin="round" fill-opacity="0" stroke="rgb(18,19,48)" stroke-opacity="0" stroke-width="1.715" d=" M-42.79399871826172,3.885999917984009 C-42.79399871826172,3.885999917984009 -20.854000091552734,-16.59000015258789 -20.854000091552734,-16.59000015258789 M-20.854000091552734,-16.59000015258789 C-20.854000091552734,-16.59000015258789 0.7760000228881836,3.4600000381469727 0.7760000228881836,3.4600000381469727 M-38.66699981689453,0.6669999957084656 C-38.66699981689453,0.6669999957084656 -38.66699981689453,0.7440000176429749 -38.66699981689453,0.7440000176429749 C-38.66699981689453,0.7440000176429749 -38.66699981689453,26.645000457763672 -38.66699981689453,26.645000457763672 C-38.66699981689453,26.645000457763672 -2.746999979019165,26.645000457763672 -2.746999979019165,26.645000457763672 C-2.746999979019165,26.645000457763672 -2.753999948501587,0.17499999701976776 -2.753999948501587,0.17499999701976776"/></g></g></g><g clip-path="url(#__lottie_element_6513)" transform="matrix(1,0,0,1,35,35)" opacity="0" style="display: block;"><g clip-path="url(#__lottie_element_6561)" transform="matrix(1,0,0,1,0,0)" opacity="1" style="display: block;"><g transform="matrix(1,0,0,1,294.5,272.5)" opacity="1" style="display: block;"><g opacity="1" transform="matrix(1,0,0,1,0,0)"><path stroke-linecap="round" stroke-linejoin="round" fill-opacity="0" stroke="rgb(7,168,137)" stroke-opacity="1" stroke-width="8.4" d=" M-210.49998474121094,33.5 C-210.49998474121094,33.5 -210.5,33.5 -210.5,33.5 M-210.49998474121094,33.5 C-210.49998474121094,33.5 -210.49998474121094,0 -210.49998474121094,0 C-210.49998474121094,0 -210.49998474121094,-33.5 -210.49998474121094,-33.5 C-210.49998474121094,-33.5 -210.5,-33.5 -210.5,-33.5 C-210.5,-33.5 -210.5,33.5 -210.5,33.5"/></g></g><g transform="matrix(1,0,0,1,137.5,272.5)" opacity="1" style="display: block;"><g opacity="1" transform="matrix(1,0,0,1,0,0)"><path stroke-linecap="round" stroke-linejoin="round" fill-opacity="0" stroke="rgb(7,168,137)" stroke-opacity="1" stroke-width="8.4" d=" M-54.499996185302734,33.5 C-54.499996185302734,33.5 -54.5,33.5 -54.5,33.5 M-54.499996185302734,33.5 C-54.499996185302734,33.5 -54.499996185302734,-33.5 -54.499996185302734,-33.5 C-54.499996185302734,-33.5 -54.5,-33.5 -54.5,-33.5 C-54.5,-33.5 -54.5,33.5 -54.5,33.5"/></g></g><g transform="matrix(1,0,0,1,215.5,273.5)" opacity="1" style="display: none;"><g opacity="1" transform="matrix(1,0,0,1,0,0)"><path stroke-linecap="round" stroke-linejoin="round" fill-opacity="0" stroke="rgb(7,168,137)" stroke-opacity="1" stroke-width="8.4" d=" M179.64845275878906,69.5 C179.64845275878906,69.5 179.64845275878906,2.5 179.64845275878906,2.5 M179.64845275878906,69.5 C179.64845275878906,69.5 179.64845275878906,2.5 179.64845275878906,2.5 M179.64845275878906,69.5 C179.64845275878906,69.5 179.64845275878906,2.5 179.64845275878906,2.5 M179.64845275878906,69.5 C179.64845275878906,69.5 179.64845275878906,2.5 179.64845275878906,2.5 M179.64845275878906,69.5 C179.64845275878906,69.5 179.64845275878906,2.5 179.64845275878906,2.5 M179.64845275878906,69.5 C179.64845275878906,69.5 179.64845275878906,2.5 179.64845275878906,2.5 M179.76734924316406,69.5 C179.76734924316406,69.5 158.84190368652344,69.5 158.84190368652344,69.5 M159.31748962402344,2.5 C159.31748962402344,2.5 159.31748962402344,-59.64653015136719 159.31748962402344,-59.64653015136719 C159.31748962402344,-59.64653015136719 159.31748962402344,-59.64653015136719 159.31748962402344,-59.64653015136719 C159.31748962402344,-59.64653015136719 159.31748962402344,2.5 159.31748962402344,2.5 M179.76734924316406,69.5 C179.76734924316406,69.5 179.76734924316406,2.5 179.76734924316406,2.5 C179.76734924316406,2.5 158.84190368652344,2.5 158.84190368652344,2.5 C158.84190368652344,2.5 158.84190368652344,69.5 158.84190368652344,69.5"/></g></g><g transform="matrix(5.275599956512451,0,0,5.275599956512451,583.4199829101562,190.02000427246094)" opacity="1" style="display: block;"><g opacity="1" transform="matrix(1,0,0,1,0,0)"><path stroke-linecap="round" stroke-linejoin="round" fill-opacity="0" stroke="rgb(18,19,48)" stroke-opacity="1" stroke-width="1.75" d=" M-94.60800170898438,35.91999816894531 C-94.60800170898438,35.91999816894531 -94.60800170898438,-1.8309967517852783 -94.60800170898438,-1.8309967517852783"/></g></g><g transform="matrix(5.275599956512451,0,0,5.275599956512451,325.0899963378906,190.02000427246094)" opacity="1" style="display: block;"><g opacity="1" transform="matrix(1,0,0,1,0,0)"><path stroke-linecap="round" stroke-linejoin="round" fill-opacity="0" stroke="rgb(18,19,48)" stroke-opacity="1" stroke-width="1.715" d=" M-20.314998626708984,-25.29400062561035 C-20.314998626708984,-25.29400062561035 10.511000633239746,3.2839999198913574 10.511000633239746,3.2839999198913574"/></g><g opacity="1" transform="matrix(1,0,0,1,0,0)"><path stroke-linecap="round" stroke-linejoin="round" fill-opacity="0" stroke="rgb(18,19,48)" stroke-opacity="1" stroke-width="1.715" d=" M-45.711997985839844,35.91699981689453 C-45.711997985839844,35.91699981689453 4.7590012550354,35.91699981689453 4.7590012550354,35.91699981689453 C4.7590012550354,35.91699981689453 4.750001430511475,-1.867999792098999 4.750001430511475,-1.867999792098999 C4.750001430511475,-1.867999792098999 4.750001430511475,-1.992999792098999 4.750001430511475,-1.992999792098999"/></g></g><g transform="matrix(1,0,0,1,215.5,273.5)" opacity="1" style="display: block;"><g opacity="1" transform="matrix(1,0,0,1,0,0)"><path stroke-linecap="round" stroke-linejoin="round" fill-opacity="0" stroke="rgb(7,168,137)" stroke-opacity="1" stroke-width="8.4" d=" M-55.49998474121094,69.5 C-55.49998474121094,69.5 -55.49998474121094,2.5 -55.49998474121094,2.5 M-33.49998474121094,69.5 C-33.49998474121094,69.5 -33.49998474121094,2.5 -33.49998474121094,2.5 M-11.49998664855957,69.5 C-11.49998664855957,69.5 -11.49998664855957,2.5 -11.49998664855957,2.5 M11.50001335144043,69.5 C11.50001335144043,69.5 11.50001335144043,2.5 11.50001335144043,2.5 M33.5000114440918,69.5 C33.5000114440918,69.5 33.5000114440918,2.5 33.5000114440918,2.5 M55.5000114440918,69.5 C55.5000114440918,69.5 55.5000114440918,2.5 55.5000114440918,2.5 M77.50000762939453,69.5 C77.50000762939453,69.5 -77.49998474121094,69.5 -77.49998474121094,69.5 M40.5000114440918,2.5 C40.5000114440918,2.5 40.5000114440918,-69.5 40.5000114440918,-69.5 C40.5000114440918,-69.5 -43.49998474121094,-69.5 -43.49998474121094,-69.5 C-43.49998474121094,-69.5 -43.49998474121094,2.5 -43.49998474121094,2.5 M77.50000762939453,69.5 C77.50000762939453,69.5 77.50000762939453,2.5 77.50000762939453,2.5 C77.50000762939453,2.5 -77.49998474121094,2.5 -77.49998474121094,2.5 C-77.49998474121094,2.5 -77.49998474121094,69.5 -77.49998474121094,69.5"/></g></g><g transform="matrix(5.275599956512451,0,0,5.275599956512451,583.4199829101562,190.02000427246094)" opacity="1" style="display: block;"><g opacity="1" transform="matrix(1,0,0,1,0,0)"><path stroke-linecap="round" stroke-linejoin="round" fill-opacity="0" stroke="rgb(18,19,48)" stroke-opacity="1" stroke-width="1.75" d=" M-94.70500183105469,35.941001892089844 C-94.70500183105469,35.941001892089844 -94.75,35.84000015258789 -94.75,35.84000015258789 C-94.75,35.84000015258789 -94.75,-1.3420000076293945 -94.75,-1.3420000076293945"/></g></g><g transform="matrix(5.275599956512451,0,0,5.275599956512451,583.4199829101562,190.02000427246094)" opacity="1" style="display: block;"><g opacity="1" transform="matrix(1,0,0,1,0,0)"><path stroke-linecap="round" stroke-linejoin="round" fill-opacity="0" stroke="rgb(18,19,48)" stroke-opacity="1" stroke-width="1.75" d=" M-79.0530014038086,-16.625001907348633 C-79.0530014038086,-16.625001907348633 -69.44499969482422,-25.232999801635742 -69.44499969482422,-25.232999801635742 M-100.72100067138672,3.2260000705718994 C-100.72100067138672,3.2260000705718994 -88.05599975585938,-8.285001754760742 -88.05599975585938,-8.285001754760742"/></g></g><g transform="matrix(5.275599956512451,0,0,5.275599956512451,325.0899963378906,190.02000427246094)" opacity="1" style="display: block;"><g opacity="0" transform="matrix(1,0,0,1,0,0)"><path stroke-linecap="round" stroke-linejoin="round" fill-opacity="0" stroke="rgb(7,168,137)" stroke-opacity="1" stroke-width="1.715" d=" M-27.183000564575195,-14.454999923706055 C-27.183000564575195,-14.454999923706055 -27.183000564575195,-18.768999099731445 -27.183000564575195,-18.768999099731445 C-27.183000564575195,-18.768999099731445 -27.25200080871582,-18.768999099731445 -27.25200080871582,-18.768999099731445 C-27.25200080871582,-18.768999099731445 -27.25200080871582,-8.24899959564209 -27.25200080871582,-8.24899959564209"/></g><g opacity="1" transform="matrix(1,0,0,1,0,0)"><path stroke-linecap="round" stroke-linejoin="round" fill-opacity="0" stroke="rgb(7,168,137)" stroke-opacity="1" stroke-width="1.715" d=" M-30.250999450683594,-16.576000213623047 C-30.250999450683594,-16.576000213623047 -30.250999450683594,-22.27400016784668 -30.250999450683594,-22.27400016784668 C-30.250999450683594,-22.27400016784668 -39.11199951171875,-22.256999969482422 -39.11199951171875,-22.256999969482422 C-39.11199951171875,-22.256999969482422 -39.016998291015625,-8.102999687194824 -39.016998291015625,-8.102999687194824"/></g><g opacity="1" transform="matrix(1,0,0,1,0,0)"><path stroke-linecap="round" stroke-linejoin="round" fill-opacity="0" stroke="rgb(7,168,137)" stroke-opacity="1" stroke-width="1.715" d=" M-39.1619987487793,-8.168999671936035 C-39.1619987487793,-8.168999671936035 -39.18400192260742,-22.302000045776367 -39.18400192260742,-22.302000045776367 C-39.18400192260742,-22.302000045776367 -39.064998626708984,-22.244998931884766 -39.064998626708984,-22.244998931884766 C-39.064998626708984,-22.244998931884766 -39.03499984741211,-8.074000358581543 -39.03499984741211,-8.074000358581543"/></g></g><g transform="matrix(5.275599956512451,0,0,5.275599956512451,583.4199829101562,190.02000427246094)" opacity="1" style="display: block;"><g opacity="1" transform="matrix(1,0,0,1,0,0)"><path stroke-linecap="round" stroke-linejoin="round" fill-opacity="0" stroke="rgb(18,19,48)" stroke-opacity="1" stroke-width="1.75" d=" M-82.19300079345703,-13.482999801635742 C-90.73699951171875,-5.673999786376953 -100.36699676513672,3.128000020980835 -100.36699676513672,3.128000020980835 C-100.36699676513672,3.128000020980835 -100.36800384521484,3.128999948501587 -100.36800384521484,3.128999948501587 M-69.21700286865234,-25.357999801635742 C-69.21700286865234,-25.357999801635742 -69.25699615478516,-25.305999755859375 -69.25699615478516,-25.305999755859375 C-69.25700378417969,-25.305999755859375 -75.37999725341797,-19.709999084472656 -82.19300079345703,-13.482999801635742"/></g></g><g transform="matrix(5.275599956512451,0,0,5.275599956512451,325.0899963378906,190.02000427246094)" opacity="1" style="display: none;"><g opacity="1" transform="matrix(1,0,0,1,0,0)"><path stroke-linecap="round" stroke-linejoin="round" fill-opacity="0" stroke="rgb(7,168,137)" stroke-opacity="1" stroke-width="1.715" d=" M-26.67061424255371,-14.457880020141602 C-26.67061424255371,-14.457880020141602 -26.67061424255371,-18.841665267944336 -26.67061424255371,-18.841665267944336 C-26.67061424255371,-18.841665267944336 -26.41401481628418,-18.841665267944336 -26.41401481628418,-18.841665267944336 C-26.41401481628418,-18.841665267944336 -26.41401481628418,-8.243239402770996 -26.41401481628418,-8.243239402770996"/></g><g opacity="0" transform="matrix(1,0,0,1,0,0)"><path stroke-linecap="round" stroke-linejoin="round" fill-opacity="0" stroke="rgb(7,168,137)" stroke-opacity="1" stroke-width="1.715" d=" M-14.814000129699707,-14.5 C-14.814000129699707,-14.5 -14.814000129699707,-18.815000534057617 -14.814000129699707,-18.815000534057617 C-14.814000129699707,-18.815000534057617 -14.883000373840332,-18.815000534057617 -14.883000373840332,-18.815000534057617 C-14.883000373840332,-18.815000534057617 -14.883000373840332,-8.295000076293945 -14.883000373840332,-8.295000076293945"/></g><g opacity="1" transform="matrix(1,0,0,1,0,0)"><path stroke-linecap="round" stroke-linejoin="round" fill-opacity="0" stroke="rgb(7,168,137)" stroke-opacity="1" stroke-width="1.715" d=" M-26.518577575683594,-8.232999801635742 C-26.518577575683594,-8.232999801635742 -26.48371124267578,-18.840065002441406 -26.48371124267578,-18.840065002441406 C-26.48371124267578,-18.840065002441406 -14.181009292602539,-18.79129981994629 -14.181009292602539,-18.79129981994629 C-14.181009292602539,-18.79129981994629 -14.203876495361328,-8.145236015319824 -14.203876495361328,-8.145236015319824"/></g></g><g transform="matrix(5.275599956512451,0,0,5.275599956512451,325.0899963378906,190.02000427246094)" opacity="1" style="display: none;"><g opacity="1" transform="matrix(1,0,0,1,0,0)"><path stroke-linecap="round" stroke-linejoin="round" fill-opacity="0" stroke="rgb(7,168,137)" stroke-opacity="1" stroke-width="1.715" d=" M-50.228824615478516,35.692142486572266 C-50.228824615478516,35.692142486572266 -50.228824615478516,9.715999603271484 -50.228824615478516,9.715999603271484 C-50.228824615478516,9.715999603271484 -49.7340087890625,9.715999603271484 -49.7340087890625,9.715999603271484 C-49.7340087890625,9.715999603271484 -49.7340087890625,35.692142486572266 -49.7340087890625,35.692142486572266"/></g><g opacity="1" transform="matrix(1,0,0,1,0,0)"><path stroke-linecap="round" stroke-linejoin="round" fill-opacity="0" stroke="rgb(18,19,48)" stroke-opacity="1" stroke-width="1.715" d=" M-56.25575256347656,3.2563693523406982 C-56.25575256347656,3.2563693523406982 -45.683406829833984,-25.5502986907959 -45.683406829833984,-25.5502986907959 C-45.683406829833984,-25.5502986907959 -54.319541931152344,3.2563693523406982 -54.319541931152344,3.2563693523406982"/></g><g opacity="1" transform="matrix(1,0,0,1,0,0)"><path stroke-linecap="round" stroke-linejoin="round" fill-opacity="0" stroke="rgb(18,19,48)" stroke-opacity="1" stroke-width="1.715" d=" M-50.75291061401367,3.5399999618530273 C-50.75291061401367,3.5399999618530273 -50.75291061401367,3.634999990463257 -50.75291061401367,3.634999990463257 C-50.75291061401367,3.634999990463257 -50.7733268737793,35.69186019897461 -50.7733268737793,35.69186019897461 C-50.7733268737793,35.69186019897461 -49.2000846862793,35.69186019897461 -49.2000846862793,35.69186019897461 C-49.2000846862793,35.69186019897461 -49.20563888549805,3.6121647357940674 -49.20563888549805,3.6121647357940674"/></g></g><g transform="matrix(5.275599956512451,0,0,5.275599956512451,325.0899963378906,190.02000427246094)" opacity="1" style="display: none;"><g opacity="1" transform="matrix(1,0,0,1,0,0)"><path stroke-linecap="round" stroke-linejoin="round" fill-opacity="0" stroke="rgb(18,19,48)" stroke-opacity="1" stroke-width="1.715" d=" M-45.71200180053711,-1.2940000295639038 C-45.71200180053711,-1.2940000295639038 -45.71200180053711,-1.184000015258789 -45.71200180053711,-1.184000015258789 C-45.71200180053711,-1.184000015258789 -45.71200180053711,35.91699981689453 -45.71200180053711,35.91699981689453"/></g></g><g transform="matrix(1,0,0,1,215.5,273.5)" opacity="1" style="display: none;"><g opacity="1" transform="matrix(1,0,0,1,0,0)"><path stroke-linecap="round" stroke-linejoin="round" fill-opacity="0" stroke="rgb(7,168,137)" stroke-opacity="1" stroke-width="8.4" d=" M-55.5,69.5 C-55.5,69.5 -55.5,2.5 -55.5,2.5 M-33.5,69.5 C-33.5,69.5 -33.5,2.5 -33.5,2.5 M-11.5,69.5 C-11.5,69.5 -11.5,2.5 -11.5,2.5 M11.5,69.5 C11.5,69.5 11.5,2.5 11.5,2.5 M33.5,69.5 C33.5,69.5 33.5,2.5 33.5,2.5 M55.5,69.5 C55.5,69.5 55.5,2.5 55.5,2.5 M77.5,69.5 C77.5,69.5 -77.5,69.5 -77.5,69.5 M40.5,2.5 C40.5,2.5 40.5,-69.5 40.5,-69.5 C40.5,-69.5 -43.5,-69.5 -43.5,-69.5 C-43.5,-69.5 -43.5,2.5 -43.5,2.5 M77.5,69.5 C77.5,69.5 77.5,2.5 77.5,2.5 C77.5,2.5 -77.5,2.5 -77.5,2.5 C-77.5,2.5 -77.5,69.5 -77.5,69.5"/></g></g><g transform="matrix(1,0,0,1,294.5,272.5)" opacity="1" style="display: none;"><g opacity="1" transform="matrix(1,0,0,1,0,0)"><path stroke-linecap="round" stroke-linejoin="round" fill-opacity="0" stroke="rgb(7,168,137)" stroke-opacity="1" stroke-width="8.4" d=" M54.5,33.5 C54.5,33.5 54.5,33.5 54.5,33.5 M54.5,33.5 C54.5,33.5 54.5,0 54.5,0 C54.5,0 54.5,-33.5 54.5,-33.5 C54.5,-33.5 54.5,-33.5 54.5,-33.5 C54.5,-33.5 54.5,33.5 54.5,33.5"/></g></g><g transform="matrix(1,0,0,1,137.5,272.5)" opacity="1" style="display: none;"><g opacity="1" transform="matrix(1,0,0,1,0,0)"><path stroke-linecap="round" stroke-linejoin="round" fill-opacity="0" stroke="rgb(7,168,137)" stroke-opacity="1" stroke-width="8.4" d=" M212.5,33.5 C212.5,33.5 212.5,33.5 212.5,33.5 M212.5,33.5 C212.5,33.5 212.5,-33.5 212.5,-33.5 C212.5,-33.5 212.5,-33.5 212.5,-33.5 C212.5,-33.5 212.5,33.5 212.5,33.5"/></g></g><g transform="matrix(5.275599956512451,0,0,5.275599956512451,583.4199829101562,190.02000427246094)" opacity="1" style="display: none;"><g opacity="1" transform="matrix(1,0,0,1,0,0)"><path stroke-linecap="round" stroke-linejoin="round" fill-opacity="0" stroke="rgb(18,19,48)" stroke-opacity="1" stroke-width="1.75" d=" M-44.393001556396484,35.92100143432617 C-44.393001556396484,35.92100143432617 -44.21799850463867,35.90700149536133 -44.21799850463867,35.90700149536133 C-44.21799850463867,35.90700149536133 -44.21799850463867,-1.6549999713897705 -44.21799850463867,-1.6549999713897705"/></g></g><g transform="matrix(5.275599956512451,0,0,5.275599956512451,583.4199829101562,190.02000427246094)" opacity="1" style="display: none;"><g opacity="1" transform="matrix(1,0,0,1,0,0)"><path stroke-linecap="round" stroke-linejoin="round" fill-opacity="0" stroke="rgb(18,19,48)" stroke-opacity="1" stroke-width="1.75" d=" M-68.86900329589844,-25.347999572753906 C-68.86900329589844,-25.347999572753906 -69.0989990234375,-25.292999267578125 -69.0989990234375,-25.292999267578125 C-69.0989990234375,-25.292999267578125 -38.27299880981445,3.2850000858306885 -38.27299880981445,3.2850000858306885 C-38.27299880981445,3.2850000858306885 -38.25,3.2850000858306885 -38.25,3.2850000858306885"/></g></g><g transform="matrix(5.275599956512451,0,0,5.275599956512451,325.0899963378906,190.02000427246094)" opacity="1" style="display: none;"><g opacity="1" transform="matrix(1,0,0,1,0,0)"><path stroke-linecap="round" stroke-linejoin="round" fill-opacity="0" stroke="rgb(18,19,48)" stroke-opacity="1" stroke-width="1.715" d=" M-45.71200180053711,35.91699981689453 C-45.71200180053711,35.91699981689453 4.758999824523926,35.91699981689453 4.758999824523926,35.91699981689453 C4.758999824523926,35.91699981689453 4.75,-1.9930000305175781 4.75,-1.9930000305175781"/></g></g><g transform="matrix(5.275599956512451,0,0,5.275599956512451,325.0899963378906,190.02000427246094)" opacity="1" style="display: none;"><g opacity="1" transform="matrix(1,0,0,1,0,0)"><path stroke-linecap="round" stroke-linejoin="round" fill-opacity="0" stroke="rgb(18,19,48)" stroke-opacity="1" stroke-width="1.715" d=" M-51.58100128173828,3.2839999198913574 C-51.58100128173828,3.2839999198913574 -20.315000534057617,-25.29400062561035 -20.315000534057617,-25.29400062561035 C-20.315000534057617,-25.29400062561035 10.51099967956543,3.2839999198913574 10.51099967956543,3.2839999198913574"/></g></g></g></g><g clip-path="url(#__lottie_element_6517)" transform="matrix(1,0,0,1,35,0)" opacity="0" style="display: block;"><g transform="matrix(1,0,0,1,215,250)" opacity="0.2" style="display: none;"><g opacity="1" transform="matrix(1,0,0,1,0,0)"><path stroke-linecap="round" stroke-linejoin="round" fill-opacity="0" stroke="rgb(18,19,48)" stroke-opacity="1" stroke-width="8.4" d="M0 0"/></g></g><g transform="matrix(1,0,0,1,215,250)" opacity="0.2" style="display: none;"><g opacity="1" transform="matrix(1,0,0,1,0,0)"><path stroke-linecap="round" stroke-linejoin="round" fill-opacity="0" stroke="rgb(18,19,48)" stroke-opacity="1" stroke-width="8.4" d="M0 0"/></g></g><g transform="matrix(1,0,0,1,215,250)" opacity="0.2" style="display: none;"><g opacity="1" transform="matrix(1,0,0,1,0,0)"><path stroke-linecap="round" stroke-linejoin="round" fill-opacity="0" stroke="rgb(18,19,48)" stroke-opacity="1" stroke-width="8.4" d="M0 0"/></g></g><g transform="matrix(1,0,0,1,215,250)" opacity="0.2" style="display: none;"><g opacity="1" transform="matrix(1,0,0,1,0,0)"><path stroke-linecap="round" stroke-linejoin="round" fill-opacity="0" stroke="rgb(18,19,48)" stroke-opacity="1" stroke-width="8.4" d="M0 0"/></g></g><g transform="matrix(1,0,0,1,215,250)" opacity="0.2" style="display: none;"><g opacity="1" transform="matrix(1,0,0,1,0,0)"><path stroke-linecap="round" stroke-linejoin="round" fill-opacity="0" stroke="rgb(18,19,48)" stroke-opacity="1" stroke-width="8.4" d="M0 0"/></g></g><g transform="matrix(1,0,0,1,215,250)" opacity="0.2" style="display: none;"><g opacity="1" transform="matrix(1,0,0,1,0,0)"><path stroke-linecap="round" stroke-linejoin="round" fill-opacity="0" stroke="rgb(18,19,48)" stroke-opacity="1" stroke-width="8.4" d="M0 0"/></g></g><g transform="matrix(5.275599956512451,0,0,5.275599956512451,583.4199829101562,225.02000427246094)" opacity="1" style="display: block;"><g opacity="1" transform="matrix(1,0,0,1,0,0)"><path stroke-linecap="round" stroke-linejoin="round" fill-opacity="0" stroke="rgb(18,19,48)" stroke-opacity="1" stroke-width="1.715" d=" M-51.07500076293945,-8.583999633789062 C-44.33100128173828,-2.3310000896453857 -38.27299880981445,3.2850000858306885 -38.27299880981445,3.2850000858306885 C-38.27299880981445,3.2850000858306885 -38.25,3.2850000858306885 -38.25,3.2850000858306885 M-68.86900329589844,-25.347999572753906 C-68.86900329589844,-25.347999572753906 -69.0989990234375,-25.292999267578125 -69.0989990234375,-25.292999267578125 C-69.0989990234375,-25.292999267578125 -66.52400207519531,-22.905000686645508 -62.861000061035156,-19.510000228881836"/></g><g opacity="1" transform="matrix(1,0,0,1,0,0)"><path stroke-linecap="round" stroke-linejoin="round" fill-opacity="0" stroke="rgb(18,19,48)" stroke-opacity="1" stroke-width="1.715" d=" M-44.393001556396484,35.92100143432617 C-44.393001556396484,35.92100143432617 -44.21799850463867,35.90700149536133 -44.21799850463867,35.90700149536133 C-44.21799850463867,35.90700149536133 -44.21799850463867,3.2739999294281006 -44.21799850463867,3.2739999294281006"/></g><g opacity="1" transform="matrix(1,0,0,1,0,0)"><path stroke-linecap="round" stroke-linejoin="round" fill-opacity="0" stroke="rgb(7,168,137)" stroke-opacity="1" stroke-width="1.715" d=" M-50.80099868774414,-22.089000701904297 C-50.80099868774414,-22.089000701904297 -49.92399978637695,-22.072999954223633 -49.92399978637695,-22.072999954223633 C-49.92399978637695,-22.072999954223633 -49.89899826049805,-10.118000030517578 -49.89899826049805,-10.118000030517578"/></g></g><g transform="matrix(5.275599956512451,0,0,5.275599956512451,325.0899963378906,225.02000427246094)" opacity="1" style="display: block;"><g opacity="1" transform="matrix(1,0,0,1,0,0)"><path stroke-linecap="round" stroke-linejoin="round" fill-opacity="0" stroke="rgb(7,168,137)" stroke-opacity="1" stroke-width="1.715" d=" M-9.925999641418457,-16.437000274658203 C-9.925999641418457,-16.437000274658203 -9.925999641418457,-22.229000091552734 -9.925999641418457,-22.229000091552734 C-9.925999641418457,-22.229000091552734 -0.9909999966621399,-22.229000091552734 -0.9909999966621399,-22.229000091552734 C-0.9909999966621399,-22.229000091552734 -0.9909999966621399,-8.105999946594238 -0.9909999966621399,-8.105999946594238"/></g></g><g transform="matrix(5.275599956512451,0,0,5.275599956512451,325.0899963378906,225.02000427246094)" opacity="1" style="display: block;"><g opacity="1" transform="matrix(1,0,0,1,0,0)"><path stroke-linecap="round" stroke-linejoin="round" fill-opacity="0" stroke="rgb(7,168,137)" stroke-opacity="1" stroke-width="1.715" d=" M-28.242000579833984,35.91699981689453 C-28.242000579833984,35.91699981689453 -28.242000579833984,9.715999603271484 -28.242000579833984,9.715999603271484 C-28.242000579833984,9.715999603271484 -12.387999534606934,9.715999603271484 -12.387999534606934,9.715999603271484 C-12.387999534606934,9.715999603271484 -12.387999534606934,35.91699981689453 -12.387999534606934,35.91699981689453"/></g><g opacity="1" transform="matrix(1,0,0,1,0,0)"><path stroke-linecap="round" stroke-linejoin="round" fill-opacity="0" stroke="rgb(18,19,48)" stroke-opacity="1" stroke-width="1.715" d=" M-51.58100128173828,3.2839999198913574 C-51.58100128173828,3.2839999198913574 -20.315000534057617,-25.29400062561035 -20.315000534057617,-25.29400062561035 C-20.315000534057617,-25.29400062561035 10.51099967956543,3.2839999198913574 10.51099967956543,3.2839999198913574"/></g><g opacity="1" transform="matrix(1,0,0,1,0,0)"><path stroke-linecap="round" stroke-linejoin="round" fill-opacity="0" stroke="rgb(18,19,48)" stroke-opacity="1" stroke-width="1.715" d=" M-45.71200180053711,-1.2940000295639038 C-45.71200180053711,-1.2940000295639038 -45.71200180053711,35.91699981689453 -45.71200180053711,35.91699981689453 C-45.71200180053711,35.91699981689453 4.758999824523926,35.91699981689453 4.758999824523926,35.91699981689453 C4.758999824523926,35.91699981689453 4.75,-1.9930000305175781 4.75,-1.9930000305175781"/></g></g></g><g clip-path="url(#__lottie_element_6521)" transform="matrix(1,0,0,1,35,35)" opacity="0" style="display: block;"><g clip-path="url(#__lottie_element_6589)" transform="matrix(1,0,0,1,0,0)" opacity="1" style="display: block;"><g transform="matrix(1,0,0,1,294.5,272.5)" opacity="1" style="display: none;"><g opacity="1" transform="matrix(1,0,0,1,0,0)"><path stroke-linecap="round" stroke-linejoin="round" fill-opacity="0" stroke="rgb(7,168,137)" stroke-opacity="1" stroke-width="8.4" d=" M-210.5,33.5 C-210.5,33.5 -210.5,33.5 -210.5,33.5 M-210.5,33.5 C-210.5,33.5 -210.5,0 -210.5,0 C-210.5,0 -210.5,-33.5 -210.5,-33.5 C-210.5,-33.5 -210.5,-33.5 -210.5,-33.5 C-210.5,-33.5 -210.5,33.5 -210.5,33.5"/></g></g><g transform="matrix(1,0,0,1,137.5,272.5)" opacity="1" style="display: none;"><g opacity="1" transform="matrix(1,0,0,1,0,0)"><path stroke-linecap="round" stroke-linejoin="round" fill-opacity="0" stroke="rgb(7,168,137)" stroke-opacity="1" stroke-width="8.4" d=" M-54.5,33.5 C-54.5,33.5 -54.5,33.5 -54.5,33.5 M-54.5,33.5 C-54.5,33.5 -54.5,-33.5 -54.5,-33.5 C-54.5,-33.5 -54.5,-33.5 -54.5,-33.5 C-54.5,-33.5 -54.5,33.5 -54.5,33.5"/></g></g><g transform="matrix(1,0,0,1,215.5,273.5)" opacity="1" style="display: none;"><g opacity="1" transform="matrix(1,0,0,1,0,0)"><path stroke-linecap="round" stroke-linejoin="round" fill-opacity="0" stroke="rgb(7,168,137)" stroke-opacity="1" stroke-width="8.4" d=" M180.37474060058594,69.5 C180.37474060058594,69.5 180.37474060058594,2.5 180.37474060058594,2.5 M180.37474060058594,69.5 C180.37474060058594,69.5 180.37474060058594,2.5 180.37474060058594,2.5 M180.37474060058594,69.5 C180.37474060058594,69.5 180.37474060058594,2.5 180.37474060058594,2.5 M180.37474060058594,69.5 C180.37474060058594,69.5 180.37474060058594,2.5 180.37474060058594,2.5 M180.37474060058594,69.5 C180.37474060058594,69.5 180.37474060058594,2.5 180.37474060058594,2.5 M180.37474060058594,69.5 C180.37474060058594,69.5 180.37474060058594,2.5 180.37474060058594,2.5 M180.49974060058594,69.5 C180.49974060058594,69.5 158.5001220703125,69.5 158.5001220703125,69.5 M159.0001220703125,2.5 C159.0001220703125,2.5 159.0001220703125,-59.50005340576172 159.0001220703125,-59.50005340576172 C159.0001220703125,-59.50005340576172 159.0001220703125,-59.50005340576172 159.0001220703125,-59.50005340576172 C159.0001220703125,-59.50005340576172 159.0001220703125,2.5 159.0001220703125,2.5 M180.49974060058594,69.5 C180.49974060058594,69.5 180.49974060058594,2.5 180.49974060058594,2.5 C180.49974060058594,2.5 158.5001220703125,2.5 158.5001220703125,2.5 C158.5001220703125,2.5 158.5001220703125,69.5 158.5001220703125,69.5"/></g></g><g transform="matrix(5.275599956512451,0,0,5.275599956512451,583.4199829101562,190.02000427246094)" opacity="1" style="display: none;"><g opacity="1" transform="matrix(1,0,0,1,0,0)"><path stroke-linecap="round" stroke-linejoin="round" fill-opacity="0" stroke="rgb(18,19,48)" stroke-opacity="1" stroke-width="1.75" d=" M-94.60800170898438,35.91999816894531 C-94.60800170898438,35.91999816894531 -94.60800170898438,-1.8309999704360962 -94.60800170898438,-1.8309999704360962"/></g></g><g transform="matrix(5.275599956512451,0,0,5.275599956512451,325.0899963378906,190.02000427246094)" opacity="1" style="display: none;"><g opacity="1" transform="matrix(1,0,0,1,0,0)"><path stroke-linecap="round" stroke-linejoin="round" fill-opacity="0" stroke="rgb(18,19,48)" stroke-opacity="1" stroke-width="1.715" d=" M-20.315000534057617,-25.29400062561035 C-20.315000534057617,-25.29400062561035 10.51099967956543,3.2839999198913574 10.51099967956543,3.2839999198913574"/></g><g opacity="1" transform="matrix(1,0,0,1,0,0)"><path stroke-linecap="round" stroke-linejoin="round" fill-opacity="0" stroke="rgb(18,19,48)" stroke-opacity="1" stroke-width="1.715" d=" M-45.71200180053711,35.91699981689453 C-45.71200180053711,35.91699981689453 4.758999824523926,35.91699981689453 4.758999824523926,35.91699981689453 C4.758999824523926,35.91699981689453 4.75,-1.8680000305175781 4.75,-1.8680000305175781 C4.75,-1.8680000305175781 4.75,-1.9930000305175781 4.75,-1.9930000305175781"/></g></g><g transform="matrix(1,0,0,1,215.5,273.5)" opacity="1" style="display: none;"><g opacity="1" transform="matrix(1,0,0,1,0,0)"><path stroke-linecap="round" stroke-linejoin="round" fill-opacity="0" stroke="rgb(7,168,137)" stroke-opacity="1" stroke-width="8.4" d=" M-55.49863815307617,69.5 C-55.49863815307617,69.5 -55.49863815307617,2.5 -55.49863815307617,2.5 M-33.49885940551758,69.5 C-33.49885940551758,69.5 -33.49885940551758,2.5 -33.49885940551758,2.5 M-11.498907089233398,69.5 C-11.498907089233398,69.5 -11.498907089233398,2.5 -11.498907089233398,2.5 M11.501042366027832,69.5 C11.501042366027832,69.5 11.501042366027832,2.5 11.501042366027832,2.5 M33.50099563598633,69.5 C33.50099563598633,69.5 33.50099563598633,2.5 33.50099563598633,2.5 M55.50095748901367,69.5 C55.50095748901367,69.5 55.50095748901367,2.5 55.50095748901367,2.5 M77.500732421875,69.5 C77.500732421875,69.5 -77.49858856201172,69.5 -77.49858856201172,69.5 M40.50080871582031,2.5 C40.50080871582031,2.5 40.50080871582031,-69.49994659423828 40.50080871582031,-69.49994659423828 C40.50080871582031,-69.49994659423828 -43.49876403808594,-69.49994659423828 -43.49876403808594,-69.49994659423828 C-43.49876403808594,-69.49994659423828 -43.49876403808594,2.5 -43.49876403808594,2.5 M77.500732421875,69.5 C77.500732421875,69.5 77.500732421875,2.5 77.500732421875,2.5 C77.500732421875,2.5 -77.49858856201172,2.5 -77.49858856201172,2.5 C-77.49858856201172,2.5 -77.49858856201172,69.5 -77.49858856201172,69.5"/></g></g><g transform="matrix(5.275599956512451,0,0,5.275599956512451,583.4199829101562,190.02000427246094)" opacity="1" style="display: none;"><g opacity="1" transform="matrix(1,0,0,1,0,0)"><path stroke-linecap="round" stroke-linejoin="round" fill-opacity="0" stroke="rgb(18,19,48)" stroke-opacity="1" stroke-width="1.75" d=" M-94.70500183105469,35.941001892089844 C-94.70500183105469,35.941001892089844 -94.75,35.84000015258789 -94.75,35.84000015258789 C-94.75,35.84000015258789 -94.75,-1.3420000076293945 -94.75,-1.3420000076293945"/></g></g><g transform="matrix(5.275599956512451,0,0,5.275599956512451,583.4199829101562,190.02000427246094)" opacity="1" style="display: none;"><g opacity="1" transform="matrix(1,0,0,1,0,0)"><path stroke-linecap="round" stroke-linejoin="round" fill-opacity="0" stroke="rgb(18,19,48)" stroke-opacity="1" stroke-width="1.75" d=" M-79.05317687988281,-16.625 C-79.05317687988281,-16.625 -69.44499969482422,-25.232999801635742 -69.44499969482422,-25.232999801635742 M-100.72100067138672,3.2260000705718994 C-100.72100067138672,3.2260000705718994 -88.05599975585938,-8.28499984741211 -88.05599975585938,-8.28499984741211"/></g></g><g transform="matrix(5.275599956512451,0,0,5.275599956512451,325.0899963378906,190.02000427246094)" opacity="1" style="display: none;"><g opacity="0" transform="matrix(1,0,0,1,0,0)"><path stroke-linecap="round" stroke-linejoin="round" fill-opacity="0" stroke="rgb(7,168,137)" stroke-opacity="1" stroke-width="1.715" d=" M-27.183000564575195,-14.454999923706055 C-27.183000564575195,-14.454999923706055 -27.183000564575195,-18.768999099731445 -27.183000564575195,-18.768999099731445 C-27.183000564575195,-18.768999099731445 -27.25200080871582,-18.768999099731445 -27.25200080871582,-18.768999099731445 C-27.25200080871582,-18.768999099731445 -27.25200080871582,-8.24899959564209 -27.25200080871582,-8.24899959564209"/></g><g opacity="1" transform="matrix(1,0,0,1,0,0)"><path stroke-linecap="round" stroke-linejoin="round" fill-opacity="0" stroke="rgb(7,168,137)" stroke-opacity="1" stroke-width="1.715" d="M0 0"/></g><g opacity="0" transform="matrix(1,0,0,1,0,0)"><path stroke-linecap="round" stroke-linejoin="round" fill-opacity="0" stroke="rgb(7,168,137)" stroke-opacity="1" stroke-width="1.715" d=" M-38.78300094604492,-6.558000087738037 C-38.78300094604492,-6.558000087738037 -38.80500030517578,-20.690000534057617 -38.80500030517578,-20.690000534057617 C-38.80500030517578,-20.690000534057617 -38.68600082397461,-20.634000778198242 -38.68600082397461,-20.634000778198242 C-38.68600082397461,-20.634000778198242 -38.65599822998047,-6.461999893188477 -38.65599822998047,-6.461999893188477"/></g></g><g transform="matrix(5.275599956512451,0,0,5.275599956512451,583.4199829101562,190.02000427246094)" opacity="1" style="display: none;"><g opacity="1" transform="matrix(1,0,0,1,0,0)"><path stroke-linecap="round" stroke-linejoin="round" fill-opacity="0" stroke="rgb(18,19,48)" stroke-opacity="1" stroke-width="1.75" d=" M-82.19300079345703,-13.482999801635742 C-90.73699951171875,-5.673999786376953 -100.36699676513672,3.128000020980835 -100.36699676513672,3.128000020980835 C-100.36699676513672,3.128000020980835 -100.36799621582031,3.128999948501587 -100.36799621582031,3.128999948501587 M-69.21700286865234,-25.357999801635742 C-69.21700286865234,-25.357999801635742 -69.25700378417969,-25.305999755859375 -69.25700378417969,-25.305999755859375 C-69.25700378417969,-25.305999755859375 -75.37999725341797,-19.709999084472656 -82.19300079345703,-13.482999801635742"/></g></g><g transform="matrix(5.275599956512451,0,0,5.275599956512451,325.0899963378906,190.02000427246094)" opacity="1" style="display: none;"><g opacity="1" transform="matrix(1,0,0,1,0,0)"><path stroke-linecap="round" stroke-linejoin="round" fill-opacity="0" stroke="rgb(7,168,137)" stroke-opacity="1" stroke-width="1.715" d=" M-27.182815551757812,-14.455000877380371 C-27.182815551757812,-14.455000877380371 -27.182815551757812,-18.769025802612305 -27.182815551757812,-18.769025802612305 C-27.182815551757812,-18.769025802612305 -27.251697540283203,-18.769025802612305 -27.251697540283203,-18.769025802612305 C-27.251697540283203,-18.769025802612305 -27.251697540283203,-8.248997688293457 -27.251697540283203,-8.248997688293457"/></g><g opacity="0" transform="matrix(1,0,0,1,0,0)"><path stroke-linecap="round" stroke-linejoin="round" fill-opacity="0" stroke="rgb(7,168,137)" stroke-opacity="1" stroke-width="1.715" d=" M-14.814000129699707,-14.5 C-14.814000129699707,-14.5 -14.814000129699707,-18.815000534057617 -14.814000129699707,-18.815000534057617 C-14.814000129699707,-18.815000534057617 -14.883000373840332,-18.815000534057617 -14.883000373840332,-18.815000534057617 C-14.883000373840332,-18.815000534057617 -14.883000373840332,-8.295000076293945 -14.883000373840332,-8.295000076293945"/></g><g opacity="1" transform="matrix(1,0,0,1,0,0)"><path stroke-linecap="round" stroke-linejoin="round" fill-opacity="0" stroke="rgb(7,168,137)" stroke-opacity="1" stroke-width="1.715" d=" M-27.36069679260254,-8.232999801635742 C-27.36069679260254,-8.232999801635742 -27.324697494506836,-18.764026641845703 -27.324697494506836,-18.764026641845703 C-27.324697494506836,-18.764026641845703 -14.811772346496582,-18.71502685546875 -14.811772346496582,-18.71502685546875 C-14.811772346496582,-18.71502685546875 -14.835771560668945,-8.145000457763672 -14.835771560668945,-8.145000457763672"/></g></g><g transform="matrix(5.275599956512451,0,0,5.275599956512451,325.0899963378906,190.02000427246094)" opacity="1" style="display: block;"><g opacity="1" transform="matrix(1,0,0,1,0,0)"><path stroke-linecap="round" stroke-linejoin="round" fill-opacity="0" stroke="rgb(7,168,137)" stroke-opacity="1" stroke-width="1.715" d=" M-10.467000007629395,-18.42799949645996 C-10.467000007629395,-20.033000946044922 -10.467000007629395,-21.868999481201172 -10.467000007629395,-21.868999481201172 C-10.466543197631836,-21.868606567382812 -1.5315427780151367,-21.868606567382812 -1.5315427780151367,-21.868606567382812 C-1.531999945640564,-21.868999481201172 -1.531999945640564,-13.640000343322754 -1.531999945640564,-9.744999885559082"/></g></g><g transform="matrix(5.275599956512451,0,0,5.275599956512451,325.0899963378906,190.02000427246094)" opacity="1" style="display: none;"><g opacity="1" transform="matrix(1,0,0,1,0,0)"><path stroke-linecap="round" stroke-linejoin="round" fill-opacity="0" stroke="rgb(7,168,137)" stroke-opacity="1" stroke-width="1.715" d=" M-50.59322738647461,35.680999755859375 C-50.59322738647461,35.680999755859375 -50.59322738647461,9.799043655395508 -50.59322738647461,9.799043655395508 C-50.59322738647461,9.799043655395508 -50.62711715698242,9.799043655395508 -50.62711715698242,9.799043655395508 C-50.62711715698242,9.799043655395508 -50.62711715698242,35.680999755859375 -50.62711715698242,35.680999755859375"/></g><g opacity="1" transform="matrix(1,0,0,1,0,0)"><path stroke-linecap="round" stroke-linejoin="round" fill-opacity="0" stroke="rgb(18,19,48)" stroke-opacity="1" stroke-width="1.715" d=" M-56.11933517456055,3.2558159828186035 C-56.11933517456055,3.2558159828186035 -45.869834899902344,-25.557090759277344 -45.869834899902344,-25.557090759277344 C-45.869834899902344,-25.557090759277344 -56.254356384277344,3.2558159828186035 -56.254356384277344,3.2558159828186035"/></g><g opacity="1" transform="matrix(1,0,0,1,0,0)"><path stroke-linecap="round" stroke-linejoin="round" fill-opacity="0" stroke="rgb(18,19,48)" stroke-opacity="1" stroke-width="1.715" d=" M-50.553382873535156,3.539184093475342 C-50.553382873535156,3.539184093475342 -50.553382873535156,3.6341841220855713 -50.553382873535156,3.6341841220855713 C-50.553382873535156,3.6341841220855713 -50.55533981323242,35.680999755859375 -50.55533981323242,35.680999755859375 C-50.55533981323242,35.680999755859375 -50.66498565673828,35.680999755859375 -50.66498565673828,35.680999755859375 C-50.66498565673828,35.680999755859375 -50.663028717041016,3.5970077514648438 -50.663028717041016,3.5970077514648438"/></g></g><g transform="matrix(5.275599956512451,0,0,5.275599956512451,325.0899963378906,190.02000427246094)" opacity="1" style="display: none;"><g opacity="1" transform="matrix(1,0,0,1,0,0)"><path stroke-linecap="round" stroke-linejoin="round" fill-opacity="0" stroke="rgb(18,19,48)" stroke-opacity="1" stroke-width="1.715" d=" M-50.55319595336914,3.5391879081726074 C-50.55319595336914,3.5391879081726074 -50.55319595336914,3.634187936782837 -50.55319595336914,3.634187936782837 C-50.55319595336914,3.634187936782837 -50.55514907836914,35.680999755859375 -50.55514907836914,35.680999755859375"/></g></g><g transform="matrix(5.275599956512451,0,0,5.275599956512451,325.0899963378906,190.02000427246094)" opacity="1" style="display: block;"><g opacity="1" transform="matrix(1,0,0,1,0,0)"><path stroke-linecap="round" stroke-linejoin="round" fill-opacity="0" stroke="rgb(7,168,137)" stroke-opacity="1" stroke-width="1.715" d=" M-26.356658935546875,35.90397644042969 C-26.356658935546875,35.90397644042969 -26.356658935546875,9.702880859375 -26.356658935546875,9.702880859375 C-26.356658935546875,9.702880859375 -10.94832706451416,9.702880859375 -10.94832706451416,9.702880859375 C-10.94832706451416,9.702880859375 -10.94832706451416,35.90397644042969 -10.94832706451416,35.90397644042969"/></g></g><g transform="matrix(1,0,0,1,215.5,273.5)" opacity="1" style="display: none;"><g opacity="1" transform="matrix(1,0,0,1,0,0)"><path stroke-linecap="round" stroke-linejoin="round" fill-opacity="0" stroke="rgb(7,168,137)" stroke-opacity="1" stroke-width="8.4" d=" M-167.43800354003906,69.5 C-167.43800354003906,69.5 -167.43800354003906,2.5 -167.43800354003906,2.5 M-167.43800354003906,69.5 C-167.43800354003906,69.5 -167.43800354003906,2.5 -167.43800354003906,2.5 M-167.43800354003906,69.5 C-167.43800354003906,69.5 -167.43800354003906,2.5 -167.43800354003906,2.5 M-167.43800354003906,69.5 C-167.43800354003906,69.5 -167.43800354003906,2.5 -167.43800354003906,2.5 M-167.43800354003906,69.5 C-167.43800354003906,69.5 -167.43800354003906,2.5 -167.43800354003906,2.5 M-167.43800354003906,69.5 C-167.43800354003906,69.5 -167.43800354003906,2.5 -167.43800354003906,2.5 M-167.6820068359375,69.5 C-167.6820068359375,69.5 -167.43800354003906,69.5 -167.43800354003906,69.5 M-167.68800354003906,2.5 C-167.68800354003906,2.5 -167.68800354003906,-62.75 -167.68800354003906,-62.75 C-167.68800354003906,-62.75 -167.68499755859375,-62.75 -167.68499755859375,-62.75 C-167.68499755859375,-62.75 -167.68499755859375,2.5 -167.68499755859375,2.5 M-167.6820068359375,69.5 C-167.6820068359375,69.5 -167.6820068359375,2.5 -167.6820068359375,2.5 C-167.6820068359375,2.5 -167.43800354003906,2.5 -167.43800354003906,2.5 C-167.43800354003906,2.5 -167.43800354003906,69.5 -167.43800354003906,69.5"/></g></g><g transform="matrix(1,0,0,1,294.5,272.5)" opacity="1" style="display: block;"><g opacity="1" transform="matrix(1,0,0,1,0,0)"><path stroke-linecap="round" stroke-linejoin="round" fill-opacity="0" stroke="rgb(7,168,137)" stroke-opacity="1" stroke-width="8.4" d=" M-201.75396728515625,33.5 C-201.75396728515625,33.5 -204.93865966796875,33.5 -204.93865966796875,33.5 M-201.75396728515625,33.5 C-201.75396728515625,33.5 -201.75396728515625,0 -201.75396728515625,0 C-201.75396728515625,0 -201.75396728515625,-33.5 -201.75396728515625,-33.5 C-201.75396728515625,-33.5 -204.93865966796875,-33.5 -204.93865966796875,-33.5 C-204.93865966796875,-33.5 -204.93865966796875,33.5 -204.93865966796875,33.5"/></g></g><g transform="matrix(1,0,0,1,137.5,272.5)" opacity="1" style="display: block;"><g opacity="1" transform="matrix(1,0,0,1,0,0)"><path stroke-linecap="round" stroke-linejoin="round" fill-opacity="0" stroke="rgb(7,168,137)" stroke-opacity="1" stroke-width="8.4" d=" M-52.21842575073242,33.5 C-52.21842575073242,33.5 -55.40312194824219,33.5 -55.40312194824219,33.5 M-52.21842575073242,33.5 C-52.21842575073242,33.5 -52.21842575073242,-33.5 -52.21842575073242,-33.5 C-52.21842575073242,-33.5 -55.40312194824219,-33.5 -55.40312194824219,-33.5 C-55.40312194824219,-33.5 -55.40312194824219,33.5 -55.40312194824219,33.5"/></g></g><g transform="matrix(5.275599956512451,0,0,5.275599956512451,583.4199829101562,190.02000427246094)" opacity="1" style="display: block;"><g opacity="1" transform="matrix(1,0,0,1,0,0)"><path stroke-linecap="round" stroke-linejoin="round" fill-opacity="0" stroke="rgb(0,0,0)" stroke-opacity="1" stroke-width="1.75" d=" M-95.25634765625,35.915245056152344 C-95.25634765625,35.915245056152344 -95.25634765625,0.5969743132591248 -95.25634765625,0.5969743132591248"/></g></g><g transform="matrix(5.275599956512451,0,0,5.275599956512451,325.0899963378906,190.02000427246094)" opacity="1" style="display: block;"><g opacity="1" transform="matrix(1,0,0,1,0,0)"><path stroke-linecap="round" stroke-linejoin="round" fill-opacity="0" stroke="rgb(18,19,48)" stroke-opacity="1" stroke-width="1.715" d=" M-18.765336990356445,-25.301319122314453 C-18.765336990356445,-25.301319122314453 11.249754905700684,3.2724971771240234 11.249754905700684,3.2724971771240234"/></g><g opacity="1" transform="matrix(1,0,0,1,0,0)"><path stroke-linecap="round" stroke-linejoin="round" fill-opacity="0" stroke="rgb(18,19,48)" stroke-opacity="1" stroke-width="1.715" d=" M-43.36948776245117,35.908348083496094 C-43.36948776245117,35.908348083496094 5.678093910217285,35.90815734863281 5.678093910217285,35.90815734863281 C5.678093910217285,35.90815734863281 5.671660423278809,-1.7331970930099487 5.671660423278809,-1.7331970930099487 C5.671660423278809,-1.7331970930099487 5.671660423278809,-1.8578168153762817 5.671660423278809,-1.8578168153762817"/></g></g><g transform="matrix(5.275599956512451,0,0,5.275599956512451,583.4199829101562,190.02000427246094)" opacity="1" style="display: block;"><g opacity="1" transform="matrix(1,0,0,1,0,0)"><path stroke-linecap="round" stroke-linejoin="round" fill-opacity="0" stroke="rgb(18,19,48)" stroke-opacity="1" stroke-width="1.75" d=" M-95.1734848022461,35.93529510498047 C-95.1734848022461,35.93529510498047 -92.40739440917969,35.84056854248047 -92.40739440917969,35.84056854248047 C-92.40739440917969,35.84056854248047 -92.40739440917969,-1.3864907026290894 -92.40739440917969,-1.3864907026290894"/></g></g><g transform="matrix(5.275599956512451,0,0,5.275599956512451,583.4199829101562,190.02000427246094)" opacity="1" style="display: block;"><g opacity="1" transform="matrix(1,0,0,1,0,0)"><path stroke-linecap="round" stroke-linejoin="round" fill-opacity="0" stroke="rgb(18,19,48)" stroke-opacity="1" stroke-width="1.75" d=" M-70.82075500488281,-25.3579044342041 C-70.82075500488281,-25.3579044342041 -67.72083282470703,-25.301626205444336 -67.72083282470703,-25.301626205444336 C-67.72083282470703,-25.301626205444336 -97.8802719116211,3.1322779655456543 -97.8802719116211,3.1322779655456543 C-97.8802719116211,3.1322779655456543 -101.03982543945312,3.1486785411834717 -101.03982543945312,3.1486785411834717"/></g></g><g transform="matrix(5.275599956512451,0,0,5.275599956512451,583.4199829101562,190.02000427246094)" opacity="1" style="display: block;"><g opacity="1" transform="matrix(1,0,0,1,0,0)"><path stroke-linecap="round" stroke-linejoin="round" fill-opacity="0" stroke="rgb(18,19,48)" stroke-opacity="1" stroke-width="1.75" d=" M-101.3516616821289,3.2346508502960205 C-101.3516616821289,3.2346508502960205 -70.97172546386719,-25.33161163330078 -70.97172546386719,-25.33161163330078"/></g></g><g transform="matrix(5.275599956512451,0,0,5.275599956512451,325.0899963378906,190.02000427246094)" opacity="1" style="display: none;"><g opacity="1" transform="matrix(1,0,0,1,0,0)"><path stroke-linecap="round" stroke-linejoin="round" fill-opacity="0" stroke="rgb(18,19,48)" stroke-opacity="1" stroke-width="1.715" d=" M-50.55514907836914,35.680999755859375 C-50.55514907836914,35.680999755859375 -50.664798736572266,35.680999755859375 -50.664798736572266,35.680999755859375 C-50.664798736572266,35.680999755859375 -50.662841796875,3.597012519836426 -50.662841796875,3.597012519836426"/></g></g><g transform="matrix(5.275599956512451,0,0,5.275599956512451,325.0899963378906,190.02000427246094)" opacity="1" style="display: none;"><g opacity="1" transform="matrix(1,0,0,1,0,0)"><path stroke-linecap="round" stroke-linejoin="round" fill-opacity="0" stroke="rgb(18,19,48)" stroke-opacity="1" stroke-width="1.715" d=" M-56.11907196044922,3.255811929702759 C-56.11907196044922,3.255811929702759 -45.87074279785156,-25.557119369506836 -45.87074279785156,-25.557119369506836 C-45.87074279785156,-25.557119369506836 -56.25409698486328,3.255811929702759 -56.25409698486328,3.255811929702759"/></g></g></g></g><g clip-path="url(#__lottie_element_6525)" transform="matrix(1,0,0,1,35,35)" opacity="0" style="display: block;"><g clip-path="url(#__lottie_element_6599)" transform="matrix(1,0,0,1,0,0)" opacity="1" style="display: block;"><g transform="matrix(1,0,0,1,294.5,272.5)" opacity="1" style="display: none;"><g opacity="1" transform="matrix(1,0,0,1,0,0)"><path stroke-linecap="round" stroke-linejoin="round" fill-opacity="0" stroke="rgb(7,168,137)" stroke-opacity="1" stroke-width="8.4" d=" M-206.32363891601562,33.5 C-206.32363891601562,33.5 -207.84437561035156,33.5 -207.84437561035156,33.5 M-206.32363891601562,33.5 C-206.32363891601562,33.5 -206.32363891601562,0 -206.32363891601562,0 C-206.32363891601562,0 -206.32363891601562,-33.5 -206.32363891601562,-33.5 C-206.32363891601562,-33.5 -207.84437561035156,-33.5 -207.84437561035156,-33.5 C-207.84437561035156,-33.5 -207.84437561035156,33.5 -207.84437561035156,33.5"/></g></g><g transform="matrix(1,0,0,1,137.5,272.5)" opacity="1" style="display: none;"><g opacity="1" transform="matrix(1,0,0,1,0,0)"><path stroke-linecap="round" stroke-linejoin="round" fill-opacity="0" stroke="rgb(7,168,137)" stroke-opacity="1" stroke-width="8.4" d=" M-53.41051483154297,33.5 C-53.41051483154297,33.5 -54.93125534057617,33.5 -54.93125534057617,33.5 M-53.41051483154297,33.5 C-53.41051483154297,33.5 -53.41051483154297,-33.5 -53.41051483154297,-33.5 C-53.41051483154297,-33.5 -54.93125534057617,-33.5 -54.93125534057617,-33.5 C-54.93125534057617,-33.5 -54.93125534057617,33.5 -54.93125534057617,33.5"/></g></g><g transform="matrix(1,0,0,1,215.5,273.5)" opacity="1" style="display: none;"><g opacity="1" transform="matrix(1,0,0,1,0,0)"><path stroke-linecap="round" stroke-linejoin="round" fill-opacity="0" stroke="rgb(7,168,137)" stroke-opacity="1" stroke-width="8.4" d=" M179.7582550048828,69.5 C179.7582550048828,69.5 179.7582550048828,2.5 179.7582550048828,2.5 M179.7582550048828,69.5 C179.7582550048828,69.5 179.7582550048828,2.5 179.7582550048828,2.5 M179.7582550048828,69.5 C179.7582550048828,69.5 179.7582550048828,2.5 179.7582550048828,2.5 M179.7582550048828,69.5 C179.7582550048828,69.5 179.7582550048828,2.5 179.7582550048828,2.5 M179.7582550048828,69.5 C179.7582550048828,69.5 179.7582550048828,2.5 179.7582550048828,2.5 M179.7582550048828,69.5 C179.7582550048828,69.5 179.7582550048828,2.5 179.7582550048828,2.5 M179.87808227539062,69.5 C179.87808227539062,69.5 158.7902374267578,69.5 158.7902374267578,69.5 M159.26950073242188,2.5 C159.26950073242188,2.5 159.26950073242188,-59.624385833740234 159.26950073242188,-59.624385833740234 C159.26950073242188,-59.624385833740234 159.26950073242188,-59.624385833740234 159.26950073242188,-59.624385833740234 C159.26950073242188,-59.624385833740234 159.26950073242188,2.5 159.26950073242188,2.5 M179.87808227539062,69.5 C179.87808227539062,69.5 179.87808227539062,2.5 179.87808227539062,2.5 C179.87808227539062,2.5 158.7902374267578,2.5 158.7902374267578,2.5 C158.7902374267578,2.5 158.7902374267578,69.5 158.7902374267578,69.5"/></g></g><g transform="matrix(5.275599956512451,0,0,5.275599956512451,583.4199829101562,190.02000427246094)" opacity="1" style="display: none;"><g opacity="1" transform="matrix(1,0,0,1,0,0)"><path stroke-linecap="round" stroke-linejoin="round" fill-opacity="0" stroke="rgb(18,19,48)" stroke-opacity="1" stroke-width="1.75" d=" M-94.91759490966797,35.917728424072266 C-94.91759490966797,35.917728424072266 -94.91759490966797,-0.6716044545173645 -94.91759490966797,-0.6716044545173645"/></g></g><g transform="matrix(5.275599956512451,0,0,5.275599956512451,325.0899963378906,190.02000427246094)" opacity="1" style="display: none;"><g opacity="1" transform="matrix(1,0,0,1,0,0)"><path stroke-linecap="round" stroke-linejoin="round" fill-opacity="0" stroke="rgb(18,19,48)" stroke-opacity="1" stroke-width="1.715" d=" M-19.57501220703125,-25.297494888305664 C-19.57501220703125,-25.297494888305664 10.86376667022705,3.2785072326660156 10.86376667022705,3.2785072326660156"/></g><g opacity="1" transform="matrix(1,0,0,1,0,0)"><path stroke-linecap="round" stroke-linejoin="round" fill-opacity="0" stroke="rgb(18,19,48)" stroke-opacity="1" stroke-width="1.715" d=" M-44.593414306640625,35.91286849975586 C-44.593414306640625,35.91286849975586 5.197881698608398,35.912776947021484 5.197881698608398,35.912776947021484 C5.197881698608398,35.912776947021484 5.190107345581055,-1.8036295175552368 5.190107345581055,-1.8036295175552368 C5.190107345581055,-1.8036295175552368 5.190107345581055,-1.928447961807251 5.190107345581055,-1.928447961807251"/></g></g><g transform="matrix(1,0,0,1,215.5,273.5)" opacity="1" style="display: none;"><g opacity="1" transform="matrix(1,0,0,1,0,0)"><path stroke-linecap="round" stroke-linejoin="round" fill-opacity="0" stroke="rgb(7,168,137)" stroke-opacity="1" stroke-width="8.4" d=" M-49.43973159790039,69.5 C-49.43973159790039,69.5 -49.43973159790039,2.5 -49.43973159790039,2.5 M-28.426395416259766,69.5 C-28.426395416259766,69.5 -28.426395416259766,2.5 -28.426395416259766,2.5 M-6.639163970947266,69.5 C-6.639163970947266,69.5 -6.639163970947266,2.5 -6.639163970947266,2.5 M16.138626098632812,69.5 C16.138626098632812,69.5 16.138626098632812,2.5 16.138626098632812,2.5 M37.92604064941406,69.5 C37.92604064941406,69.5 37.92604064941406,2.5 37.92604064941406,2.5 M59.752994537353516,69.5 C59.752994537353516,69.5 59.752994537353516,2.5 59.752994537353516,2.5 M80.74576568603516,69.5 C80.74576568603516,69.5 -71.2354507446289,69.5 -71.2354507446289,69.5 M44.09757614135742,2.5 C44.09757614135742,2.5 44.09757614135742,-69.27302551269531 44.09757614135742,-69.27302551269531 C44.09757614135742,-69.27302551269531 -37.99582290649414,-69.27302551269531 -37.99582290649414,-69.27302551269531 C-37.99582290649414,-69.27302551269531 -37.99582290649414,2.5 -37.99582290649414,2.5 M80.74576568603516,69.5 C80.74576568603516,69.5 80.74576568603516,2.5 80.74576568603516,2.5 C80.74576568603516,2.5 -71.2354507446289,2.5 -71.2354507446289,2.5 C-71.2354507446289,2.5 -71.2354507446289,69.5 -71.2354507446289,69.5"/></g></g><g transform="matrix(5.275599956512451,0,0,5.275599956512451,583.4199829101562,190.02000427246094)" opacity="1" style="display: none;"><g opacity="1" transform="matrix(1,0,0,1,0,0)"><path stroke-linecap="round" stroke-linejoin="round" fill-opacity="0" stroke="rgb(18,19,48)" stroke-opacity="1" stroke-width="1.75" d=" M-94.9287109375,35.93827438354492 C-94.9287109375,35.93827438354492 -93.6313705444336,35.84027099609375 -93.6313705444336,35.84027099609375 C-93.6313705444336,35.84027099609375 -93.6313705444336,-1.3632450103759766 -93.6313705444336,-1.3632450103759766"/></g></g><g transform="matrix(5.275599956512451,0,0,5.275599956512451,583.4199829101562,190.02000427246094)" opacity="1" style="display: none;"><g opacity="1" transform="matrix(1,0,0,1,0,0)"><path stroke-linecap="round" stroke-linejoin="round" fill-opacity="0" stroke="rgb(18,19,48)" stroke-opacity="1" stroke-width="1.75" d=" M-78.89826202392578,-17.44279670715332 C-78.89826202392578,-17.44279670715332 -70.21513366699219,-25.23912811279297 -70.21513366699219,-25.23912811279297 M-101.02215576171875,3.230147361755371 C-101.02215576171875,3.230147361755371 -88.17609405517578,-8.790558815002441 -88.17609405517578,-8.790558815002441"/></g></g><g transform="matrix(5.275599956512451,0,0,5.275599956512451,325.0899963378906,190.02000427246094)" opacity="1" style="display: none;"><g opacity="0" transform="matrix(1,0,0,1,0,0)"><path stroke-linecap="round" stroke-linejoin="round" fill-opacity="0" stroke="rgb(7,168,137)" stroke-opacity="1" stroke-width="1.715" d=" M-27.183000564575195,-14.454999923706055 C-27.183000564575195,-14.454999923706055 -27.183000564575195,-18.768999099731445 -27.183000564575195,-18.768999099731445 C-27.183000564575195,-18.768999099731445 -27.25200080871582,-18.768999099731445 -27.25200080871582,-18.768999099731445 C-27.25200080871582,-18.768999099731445 -27.25200080871582,-8.24899959564209 -27.25200080871582,-8.24899959564209"/></g><g opacity="1" transform="matrix(1,0,0,1,0,0)"><path stroke-linecap="round" stroke-linejoin="round" fill-opacity="0" stroke="rgb(7,168,137)" stroke-opacity="1" stroke-width="1.715" d="M0 0"/></g><g opacity="0" transform="matrix(1,0,0,1,0,0)"><path stroke-linecap="round" stroke-linejoin="round" fill-opacity="0" stroke="rgb(7,168,137)" stroke-opacity="1" stroke-width="1.715" d=" M-38.78300094604492,-6.558000087738037 C-38.78300094604492,-6.558000087738037 -38.80500030517578,-20.690000534057617 -38.80500030517578,-20.690000534057617 C-38.80500030517578,-20.690000534057617 -38.68600082397461,-20.634000778198242 -38.68600082397461,-20.634000778198242 C-38.68600082397461,-20.634000778198242 -38.65599822998047,-6.461999893188477 -38.65599822998047,-6.461999893188477"/></g></g><g transform="matrix(5.275599956512451,0,0,5.275599956512451,583.4199829101562,190.02000427246094)" opacity="1" style="display: none;"><g opacity="1" transform="matrix(1,0,0,1,0,0)"><path stroke-linecap="round" stroke-linejoin="round" fill-opacity="0" stroke="rgb(18,19,48)" stroke-opacity="1" stroke-width="1.75" d=" M-81.13400268554688,-13.607000350952148 C-89.58699798583984,-5.767000198364258 -99.18000030517578,3.130000114440918 -99.18000030517578,3.130000114440918 C-99.17955017089844,3.130042791366577 -100.68881225585938,3.138396739959717 -100.68881225585938,3.138396739959717 M-69.98281860351562,-25.357954025268555 C-69.98281860351562,-25.357954025268555 -68.5234603881836,-25.303911209106445 -68.5234603881836,-25.303911209106445 C-68.52300262451172,-25.304000854492188 -74.47599792480469,-19.783000946044922 -81.13400268554688,-13.607000350952148"/></g></g><g transform="matrix(5.275599956512451,0,0,5.275599956512451,325.0899963378906,190.02000427246094)" opacity="1" style="display: none;"><g opacity="1" transform="matrix(1,0,0,1,0,0)"><path stroke-linecap="round" stroke-linejoin="round" fill-opacity="0" stroke="rgb(7,168,137)" stroke-opacity="1" stroke-width="1.715" d=" M-26.748056411743164,-14.45744514465332 C-26.748056411743164,-14.45744514465332 -26.748056411743164,-18.8306827545166 -26.748056411743164,-18.8306827545166 C-26.748056411743164,-18.8306827545166 -26.540668487548828,-18.8306827545166 -26.540668487548828,-18.8306827545166 C-26.540668487548828,-18.8306827545166 -26.540668487548828,-8.244110107421875 -26.540668487548828,-8.244110107421875"/></g><g opacity="0" transform="matrix(1,0,0,1,0,0)"><path stroke-linecap="round" stroke-linejoin="round" fill-opacity="0" stroke="rgb(7,168,137)" stroke-opacity="1" stroke-width="1.715" d=" M-14.814000129699707,-14.5 C-14.814000129699707,-14.5 -14.814000129699707,-18.815000534057617 -14.814000129699707,-18.815000534057617 C-14.814000129699707,-18.815000534057617 -14.883000373840332,-18.815000534057617 -14.883000373840332,-18.815000534057617 C-14.883000373840332,-18.815000534057617 -14.883000373840332,-8.295000076293945 -14.883000373840332,-8.295000076293945"/></g><g opacity="1" transform="matrix(1,0,0,1,0,0)"><path stroke-linecap="round" stroke-linejoin="round" fill-opacity="0" stroke="rgb(7,168,137)" stroke-opacity="1" stroke-width="1.715" d=" M-26.64590072631836,-8.232999801635742 C-26.64590072631836,-8.232999801635742 -26.610862731933594,-18.828567504882812 -26.610862731933594,-18.828567504882812 C-26.610862731933594,-18.828567504882812 -14.276376724243164,-18.779767990112305 -14.276376724243164,-18.779767990112305 C-14.276376724243164,-18.779767990112305 -14.29941463470459,-8.145200729370117 -14.29941463470459,-8.145200729370117"/></g></g><g transform="matrix(5.275599956512451,0,0,5.275599956512451,325.0899963378906,190.02000427246094)" opacity="1" style="display: block;"><g opacity="1" transform="matrix(1,0,0,1,0,0)"><path stroke-linecap="round" stroke-linejoin="round" fill-opacity="0" stroke="rgb(7,168,137)" stroke-opacity="1" stroke-width="1.715" d=" M-9.934000015258789,-16.43199920654297 C-9.934000015258789,-16.43199920654297 -9.934000015258789,-22.224000930786133 -9.934000015258789,-22.224000930786133 C-9.933669090270996,-22.223886489868164 -0.9986695051193237,-22.223886489868164 -0.9986695051193237,-22.223886489868164 C-0.9990000128746033,-22.224000930786133 -0.9990000128746033,-8.833000183105469 -0.9990000128746033,-8.130000114440918"/></g></g><g transform="matrix(5.275599956512451,0,0,5.275599956512451,325.0899963378906,190.02000427246094)" opacity="1" style="display: none;"><g opacity="1" transform="matrix(1,0,0,1,0,0)"><path stroke-linecap="round" stroke-linejoin="round" fill-opacity="0" stroke="rgb(7,168,137)" stroke-opacity="1" stroke-width="1.715" d=" M-50.27797317504883,35.690460205078125 C-50.27797317504883,35.690460205078125 -50.27797317504883,9.715999603271484 -50.27797317504883,9.715999603271484 C-50.27797317504883,9.715999603271484 -49.86308288574219,9.715999603271484 -49.86308288574219,9.715999603271484 C-49.86308288574219,9.715999603271484 -49.86308288574219,35.690460205078125 -49.86308288574219,35.690460205078125"/></g><g opacity="1" transform="matrix(1,0,0,1,0,0)"><path stroke-linecap="round" stroke-linejoin="round" fill-opacity="0" stroke="rgb(18,19,48)" stroke-opacity="1" stroke-width="1.715" d=" M-56.22692108154297,3.256162405014038 C-56.22692108154297,3.256162405014038 -45.740325927734375,-25.55221939086914 -45.740325927734375,-25.55221939086914 C-45.740325927734375,-25.55221939086914 -54.60375213623047,3.256162405014038 -54.60375213623047,3.256162405014038"/></g><g opacity="1" transform="matrix(1,0,0,1,0,0)"><path stroke-linecap="round" stroke-linejoin="round" fill-opacity="0" stroke="rgb(18,19,48)" stroke-opacity="1" stroke-width="1.715" d=" M-50.716800689697266,3.5399999618530273 C-50.716800689697266,3.5399999618530273 -50.716800689697266,3.634999990463257 -50.716800689697266,3.634999990463257 C-50.716800689697266,3.634999990463257 -50.734432220458984,35.69021987915039 -50.734432220458984,35.69021987915039 C-50.734432220458984,35.69021987915039 -49.41559600830078,35.69021987915039 -49.41559600830078,35.69021987915039 C-49.41559600830078,35.69021987915039 -49.42000961303711,3.6100239753723145 -49.42000961303711,3.6100239753723145"/></g></g><g transform="matrix(5.275599956512451,0,0,5.275599956512451,325.0899963378906,190.02000427246094)" opacity="1" style="display: none;"><g opacity="1" transform="matrix(1,0,0,1,0,0)"><path stroke-linecap="round" stroke-linejoin="round" fill-opacity="0" stroke="rgb(18,19,48)" stroke-opacity="1" stroke-width="1.715" d=" M-50.516300201416016,3.539952278137207 C-50.516300201416016,3.539952278137207 -50.516300201416016,3.6349523067474365 -50.516300201416016,3.6349523067474365 C-50.516300201416016,3.6349523067474365 -50.51829528808594,35.680999755859375 -50.51829528808594,35.680999755859375"/></g></g><g transform="matrix(5.275599956512451,0,0,5.275599956512451,325.0899963378906,190.02000427246094)" opacity="1" style="display: block;"><g opacity="1" transform="matrix(1,0,0,1,0,0)"><path stroke-linecap="round" stroke-linejoin="round" fill-opacity="0" stroke="rgb(7,168,137)" stroke-opacity="1" stroke-width="1.715" d=" M-28.21525001525879,35.91681671142578 C-28.21525001525879,35.91681671142578 -28.21525001525879,9.715813636779785 -28.21525001525879,9.715813636779785 C-28.21525001525879,9.715813636779785 -12.367572784423828,9.715813636779785 -12.367572784423828,9.715813636779785 C-12.367572784423828,9.715813636779785 -12.367572784423828,35.91681671142578 -12.367572784423828,35.91681671142578"/></g></g><g transform="matrix(1,0,0,1,215.5,273.5)" opacity="1" style="display: none;"><g opacity="1" transform="matrix(1,0,0,1,0,0)"><path stroke-linecap="round" stroke-linejoin="round" fill-opacity="0" stroke="rgb(7,168,137)" stroke-opacity="1" stroke-width="8.4" d=" M-167.43800354003906,69.5 C-167.43800354003906,69.5 -167.43800354003906,2.5 -167.43800354003906,2.5 M-167.43800354003906,69.5 C-167.43800354003906,69.5 -167.43800354003906,2.5 -167.43800354003906,2.5 M-167.43800354003906,69.5 C-167.43800354003906,69.5 -167.43800354003906,2.5 -167.43800354003906,2.5 M-167.43800354003906,69.5 C-167.43800354003906,69.5 -167.43800354003906,2.5 -167.43800354003906,2.5 M-167.43800354003906,69.5 C-167.43800354003906,69.5 -167.43800354003906,2.5 -167.43800354003906,2.5 M-167.43800354003906,69.5 C-167.43800354003906,69.5 -167.43800354003906,2.5 -167.43800354003906,2.5 M-167.6820068359375,69.5 C-167.6820068359375,69.5 -167.43800354003906,69.5 -167.43800354003906,69.5 M-167.68800354003906,2.5 C-167.68800354003906,2.5 -167.68800354003906,-62.75 -167.68800354003906,-62.75 C-167.68800354003906,-62.75 -167.68499755859375,-62.75 -167.68499755859375,-62.75 C-167.68499755859375,-62.75 -167.68499755859375,2.5 -167.68499755859375,2.5 M-167.6820068359375,69.5 C-167.6820068359375,69.5 -167.6820068359375,2.5 -167.6820068359375,2.5 C-167.6820068359375,2.5 -167.43800354003906,2.5 -167.43800354003906,2.5 C-167.43800354003906,2.5 -167.43800354003906,69.5 -167.43800354003906,69.5"/></g></g><g transform="matrix(1,0,0,1,294.5,272.5)" opacity="1" style="display: block;"><g opacity="1" transform="matrix(1,0,0,1,0,0)"><path stroke-linecap="round" stroke-linejoin="round" fill-opacity="0" stroke="rgb(7,168,137)" stroke-opacity="1" stroke-width="8.4" d=" M-210.3759002685547,33.5 C-210.3759002685547,33.5 -210.4210968017578,33.5 -210.4210968017578,33.5 M-210.3759002685547,33.5 C-210.3759002685547,33.5 -210.3759002685547,0 -210.3759002685547,0 C-210.3759002685547,0 -210.3759002685547,-33.5 -210.3759002685547,-33.5 C-210.3759002685547,-33.5 -210.4210968017578,-33.5 -210.4210968017578,-33.5 C-210.4210968017578,-33.5 -210.4210968017578,33.5 -210.4210968017578,33.5"/></g></g><g transform="matrix(1,0,0,1,137.5,272.5)" opacity="1" style="display: block;"><g opacity="1" transform="matrix(1,0,0,1,0,0)"><path stroke-linecap="round" stroke-linejoin="round" fill-opacity="0" stroke="rgb(7,168,137)" stroke-opacity="1" stroke-width="8.4" d=" M-54.467628479003906,33.5 C-54.467628479003906,33.5 -54.512813568115234,33.5 -54.512813568115234,33.5 M-54.467628479003906,33.5 C-54.467628479003906,33.5 -54.467628479003906,-33.5 -54.467628479003906,-33.5 C-54.467628479003906,-33.5 -54.512813568115234,-33.5 -54.512813568115234,-33.5 C-54.512813568115234,-33.5 -54.512813568115234,33.5 -54.512813568115234,33.5"/></g></g><g transform="matrix(5.275599956512451,0,0,5.275599956512451,583.4199829101562,190.02000427246094)" opacity="1" style="display: block;"><g opacity="1" transform="matrix(1,0,0,1,0,0)"><path stroke-linecap="round" stroke-linejoin="round" fill-opacity="0" stroke="rgb(0,0,0)" stroke-opacity="1" stroke-width="1.75" d=" M-94.61720275878906,35.9199333190918 C-94.61720275878906,35.9199333190918 -94.61720275878906,-1.7965505123138428 -94.61720275878906,-1.7965505123138428"/></g></g><g transform="matrix(5.275599956512451,0,0,5.275599956512451,325.0899963378906,190.02000427246094)" opacity="1" style="display: block;"><g opacity="1" transform="matrix(1,0,0,1,0,0)"><path stroke-linecap="round" stroke-linejoin="round" fill-opacity="0" stroke="rgb(18,19,48)" stroke-opacity="1" stroke-width="1.715" d=" M-20.293012619018555,-25.294103622436523 C-20.293012619018555,-25.294103622436523 10.52148151397705,3.283836841583252 10.52148151397705,3.283836841583252"/></g><g opacity="1" transform="matrix(1,0,0,1,0,0)"><path stroke-linecap="round" stroke-linejoin="round" fill-opacity="0" stroke="rgb(18,19,48)" stroke-opacity="1" stroke-width="1.715" d=" M-45.67876434326172,35.91687774658203 C-45.67876434326172,35.91687774658203 4.772040843963623,35.916873931884766 4.772040843963623,35.916873931884766 C4.772040843963623,35.916873931884766 4.763077259063721,-1.8660873174667358 4.763077259063721,-1.8660873174667358 C4.763077259063721,-1.8660873174667358 4.763077259063721,-1.991081953048706 4.763077259063721,-1.991081953048706"/></g></g><g transform="matrix(5.275599956512451,0,0,5.275599956512451,583.4199829101562,190.02000427246094)" opacity="1" style="display: block;"><g opacity="1" transform="matrix(1,0,0,1,0,0)"><path stroke-linecap="round" stroke-linejoin="round" fill-opacity="0" stroke="rgb(18,19,48)" stroke-opacity="1" stroke-width="1.75" d=" M-94.7116470336914,35.94091796875 C-94.7116470336914,35.94091796875 -94.71675872802734,35.84000778198242 -94.71675872802734,35.84000778198242 C-94.71675872802734,35.84000778198242 -94.71675872802734,-1.342631220817566 -94.71675872802734,-1.342631220817566"/></g></g><g transform="matrix(5.275599956512451,0,0,5.275599956512451,583.4199829101562,190.02000427246094)" opacity="1" style="display: block;"><g opacity="1" transform="matrix(1,0,0,1,0,0)"><path stroke-linecap="round" stroke-linejoin="round" fill-opacity="0" stroke="rgb(18,19,48)" stroke-opacity="1" stroke-width="1.75" d=" M-69.23975372314453,-25.35799789428711 C-69.23975372314453,-25.35799789428711 -69.2352066040039,-25.305938720703125 -69.2352066040039,-25.305938720703125 C-69.2352066040039,-25.305938720703125 -100.33171844482422,3.1280605792999268 -100.33171844482422,3.1280605792999268 C-100.33171844482422,3.1280605792999268 -100.37753295898438,3.129279136657715 -100.37753295898438,3.129279136657715"/></g></g><g transform="matrix(5.275599956512451,0,0,5.275599956512451,583.4199829101562,190.02000427246094)" opacity="1" style="display: block;"><g opacity="1" transform="matrix(1,0,0,1,0,0)"><path stroke-linecap="round" stroke-linejoin="round" fill-opacity="0" stroke="rgb(18,19,48)" stroke-opacity="1" stroke-width="1.75" d=" M-100.72994995117188,3.2261228561401367 C-100.72994995117188,3.2261228561401367 -69.37300872802734,-25.32805061340332 -69.37300872802734,-25.32805061340332"/></g></g><g transform="matrix(5.275599956512451,0,0,5.275599956512451,325.0899963378906,190.02000427246094)" opacity="1" style="display: none;"><g opacity="1" transform="matrix(1,0,0,1,0,0)"><path stroke-linecap="round" stroke-linejoin="round" fill-opacity="0" stroke="rgb(18,19,48)" stroke-opacity="1" stroke-width="1.715" d=" M-50.51829528808594,35.680999755859375 C-50.51829528808594,35.680999755859375 -50.62827682495117,35.680999755859375 -50.62827682495117,35.680999755859375 C-50.62827682495117,35.680999755859375 -50.626277923583984,3.5979421138763428 -50.626277923583984,3.5979421138763428"/></g></g><g transform="matrix(5.275599956512451,0,0,5.275599956512451,325.0899963378906,190.02000427246094)" opacity="1" style="display: none;"><g opacity="1" transform="matrix(1,0,0,1,0,0)"><path stroke-linecap="round" stroke-linejoin="round" fill-opacity="0" stroke="rgb(18,19,48)" stroke-opacity="1" stroke-width="1.715" d=" M-56.068172454833984,3.255047559738159 C-56.068172454833984,3.255047559738159 -46.04889678955078,-25.562654495239258 -46.04889678955078,-25.562654495239258 C-46.04889678955078,-25.562654495239258 -56.20317459106445,3.255047559738159 -56.20317459106445,3.255047559738159"/></g></g></g></g><g clip-path="url(#__lottie_element_6529)" transform="matrix(1,0,0,1,35,35)" opacity="1" style="display: block;"><g transform="matrix(5.275599956512451,0,0,5.275599956512451,583.4199829101562,190.02000427246094)" opacity="1" style="display: block;"><g opacity="1" transform="matrix(1,0,0,1,0,0)"><path stroke-linecap="round" stroke-linejoin="round" fill-opacity="0" stroke="rgb(18,19,48)" stroke-opacity="1" stroke-width="1.715" d=" M-51.07500076293945,-8.583999633789062 C-44.33100128173828,-2.3310000896453857 -38.27299880981445,3.2850000858306885 -38.27299880981445,3.2850000858306885 C-38.27299880981445,3.2850000858306885 -38.25,3.2850000858306885 -38.25,3.2850000858306885 M-68.86900329589844,-25.347999572753906 C-68.86900329589844,-25.347999572753906 -69.0989990234375,-25.292999267578125 -69.0989990234375,-25.292999267578125 C-69.0989990234375,-25.292999267578125 -65.1449966430664,-21.628000259399414 -60.06999969482422,-16.92300033569336"/></g><g opacity="1" transform="matrix(1,0,0,1,0,0)"><path stroke-linecap="round" stroke-linejoin="round" fill-opacity="0" stroke="rgb(18,19,48)" stroke-opacity="1" stroke-width="1.715" d=" M-44.393001556396484,35.92100143432617 C-44.393001556396484,35.92100143432617 -44.21799850463867,35.90700149536133 -44.21799850463867,35.90700149536133 C-44.21799850463867,35.90700149536133 -44.21799850463867,3.2739999294281006 -44.21799850463867,3.2739999294281006"/></g><g opacity="1" transform="matrix(1,0,0,1,0,0)"><path stroke-linecap="round" stroke-linejoin="round" fill-opacity="0" stroke="rgb(7,168,137)" stroke-opacity="1" stroke-width="1.715" d=" M-50.80099868774414,-22.089000701904297 C-50.80099868774414,-22.089000701904297 -49.92399978637695,-22.072999954223633 -49.92399978637695,-22.072999954223633 C-49.92399978637695,-22.072999954223633 -49.89899826049805,-10.118000030517578 -49.89899826049805,-10.118000030517578"/></g></g><g transform="matrix(5.275599956512451,0,0,5.275599956512451,325.0899963378906,190.02000427246094)" opacity="1" style="display: block;"><g opacity="1" transform="matrix(1,0,0,1,0,0)"><path stroke-linecap="round" stroke-linejoin="round" fill-opacity="0" stroke="rgb(7,168,137)" stroke-opacity="1" stroke-width="1.715" d=" M-9.925999641418457,-16.437000274658203 C-9.925999641418457,-16.437000274658203 -9.925999641418457,-22.229000091552734 -9.925999641418457,-22.229000091552734 C-9.925999641418457,-22.229000091552734 -0.9909999966621399,-22.229000091552734 -0.9909999966621399,-22.229000091552734 C-0.9909999966621399,-22.229000091552734 -0.9909999966621399,-8.105999946594238 -0.9909999966621399,-8.105999946594238"/></g></g><g transform="matrix(5.275599956512451,0,0,5.275599956512451,325.0899963378906,190.02000427246094)" opacity="1" style="display: block;"><g opacity="1" transform="matrix(1,0,0,1,0,0)"><path stroke-linecap="round" stroke-linejoin="round" fill-opacity="0" stroke="rgb(7,168,137)" stroke-opacity="1" stroke-width="1.715" d=" M-28.242000579833984,35.91699981689453 C-28.242000579833984,35.91699981689453 -28.242000579833984,9.715999603271484 -28.242000579833984,9.715999603271484 C-28.242000579833984,9.715999603271484 -12.387999534606934,9.715999603271484 -12.387999534606934,9.715999603271484 C-12.387999534606934,9.715999603271484 -12.387999534606934,35.91699981689453 -12.387999534606934,35.91699981689453"/></g><g opacity="1" transform="matrix(1,0,0,1,0,0)"><path stroke-linecap="round" stroke-linejoin="round" fill-opacity="0" stroke="rgb(18,19,48)" stroke-opacity="1" stroke-width="1.715" d=" M-51.58100128173828,3.2839999198913574 C-51.58100128173828,3.2839999198913574 -20.315000534057617,-25.29400062561035 -20.315000534057617,-25.29400062561035 C-20.315000534057617,-25.29400062561035 10.51099967956543,3.2839999198913574 10.51099967956543,3.2839999198913574"/></g><g opacity="1" transform="matrix(1,0,0,1,0,0)"><path stroke-linecap="round" stroke-linejoin="round" fill-opacity="0" stroke="rgb(18,19,48)" stroke-opacity="1" stroke-width="1.715" d=" M-45.71200180053711,-1.2940000295639038 C-45.71200180053711,-1.2940000295639038 -45.71200180053711,35.91699981689453 -45.71200180053711,35.91699981689453 C-45.71200180053711,35.91699981689453 4.758999824523926,35.91699981689453 4.758999824523926,35.91699981689453 C4.758999824523926,35.91699981689453 4.758999824523926,-0.19300000369548798 4.758999824523926,-0.19300000369548798"/></g></g></g><g clip-path="url(#__lottie_element_6533)" transform="matrix(1,0,0,1,35,35)" opacity="0" style="display: block;"><g transform="matrix(5.275599956512451,0,0,5.275599956512451,325.0899963378906,190.02000427246094)" opacity="1" style="display: none;"><g opacity="1" transform="matrix(1,0,0,1,0,0)"><path stroke-linecap="round" stroke-linejoin="round" fill-opacity="0" stroke="rgb(7,168,137)" stroke-opacity="1" stroke-width="1.715" d=" M-9.925999641418457,-16.437000274658203 C-9.925999641418457,-16.437000274658203 -9.925999641418457,-22.229000091552734 -9.925999641418457,-22.229000091552734 C-9.925999641418457,-22.229000091552734 -0.9909999966621399,-22.229000091552734 -0.9909999966621399,-22.229000091552734 C-0.9909999966621399,-22.229000091552734 -0.9909999966621399,-8.105999946594238 -0.9909999966621399,-8.105999946594238 C-0.9909999966621399,-8.105999946594238 -1.055999994277954,-8.166999816894531 -1.055999994277954,-8.166999816894531"/></g><g opacity="1" transform="matrix(1,0,0,1,0,0)"><path stroke-linecap="round" stroke-linejoin="round" fill-opacity="0" stroke="rgb(7,168,137)" stroke-opacity="1" stroke-width="1.715" d=" M-28.242000579833984,35.91699981689453 C-28.242000579833984,35.91699981689453 -28.242000579833984,9.715999603271484 -28.242000579833984,9.715999603271484 C-28.242000579833984,9.715999603271484 -12.387999534606934,9.715999603271484 -12.387999534606934,9.715999603271484 C-12.387999534606934,9.715999603271484 -12.387999534606934,35.91699981689453 -12.387999534606934,35.91699981689453"/></g><g opacity="1" transform="matrix(1,0,0,1,0,0)"><path stroke-linecap="round" stroke-linejoin="round" fill-opacity="0" stroke="rgb(7,168,137)" stroke-opacity="0" stroke-width="1.715" d=" M-51.58100128173828,3.2839999198913574 C-51.58100128173828,3.2839999198913574 -20.315000534057617,-25.29400062561035 -20.315000534057617,-25.29400062561035 M-20.315000534057617,-25.29400062561035 C-20.315000534057617,-25.29400062561035 10.51099967956543,3.2839999198913574 10.51099967956543,3.2839999198913574 M-45.71200180053711,-1.2940000295639038 C-45.71200180053711,-1.2940000295639038 -45.71200180053711,-1.184000015258789 -45.71200180053711,-1.184000015258789 C-45.71200180053711,-1.184000015258789 -45.71200180053711,35.91699981689453 -45.71200180053711,35.91699981689453 C-45.71200180053711,35.91699981689453 4.758999824523926,35.91699981689453 4.758999824523926,35.91699981689453 C4.758999824523926,35.91699981689453 4.75,-1.9930000305175781 4.75,-1.9930000305175781"/><path stroke-linecap="round" stroke-linejoin="round" fill-opacity="0" stroke="rgb(18,19,48)" stroke-opacity="1" stroke-width="1.715" d=" M-51.58100128173828,3.2839999198913574 C-51.58100128173828,3.2839999198913574 -20.315000534057617,-25.29400062561035 -20.315000534057617,-25.29400062561035 M-20.315000534057617,-25.29400062561035 C-20.315000534057617,-25.29400062561035 10.51099967956543,3.2839999198913574 10.51099967956543,3.2839999198913574 M-45.71200180053711,-1.2940000295639038 C-45.71200180053711,-1.2940000295639038 -45.71200180053711,-1.184000015258789 -45.71200180053711,-1.184000015258789 C-45.71200180053711,-1.184000015258789 -45.71200180053711,35.91699981689453 -45.71200180053711,35.91699981689453 C-45.71200180053711,35.91699981689453 4.758999824523926,35.91699981689453 4.758999824523926,35.91699981689453 C4.758999824523926,35.91699981689453 4.75,-1.9930000305175781 4.75,-1.9930000305175781"/></g></g></g><g style="display: none;"><path/></g></g></svg>