<svg xmlns="http://www.w3.org/2000/svg" xmlns:xlink="http://www.w3.org/1999/xlink" viewBox="0 0 500 500" width="500" height="500" preserveAspectRatio="xMidYMid meet" style="width: 100%; height: 100%; transform: translate3d(0px, 0px, 0px); content-visibility: visible;"><defs><clipPath id="__lottie_element_2"><rect width="500" height="500" x="0" y="0"/></clipPath></defs><g clip-path="url(#__lottie_element_2)"><g transform="matrix(1,0,0,1,375,200)" opacity="1" style="display: block;"><g opacity="1" transform="matrix(1,0,0,1,0,0)"><path stroke-linecap="round" stroke-linejoin="round" fill-opacity="0" stroke="rgb(18,19,49)" stroke-opacity="1" stroke-width="12.6" d=" M-28.23900032043457,110.8550033569336 C-28.23900032043457,164.2310028076172 -71.50900268554688,207.5 -124.88500213623047,207.5 C-178.26100158691406,207.5 -221.52999877929688,164.2310028076172 -221.52999877929688,110.8550033569336 C-221.52999877929688,57.479000091552734 -131.91400146484375,-100.46800231933594 -124.88500213623047,-108.375 C-117.41699981689453,-100.90699768066406 -28.23900032043457,57.479000091552734 -28.23900032043457,110.8550033569336z"/></g></g><g transform="matrix(1,0,0,1,375,200)" opacity="1" style="display: block;"><g opacity="1" transform="matrix(1,0,0,1,0,0)"><path stroke-linecap="round" stroke-linejoin="round" fill-opacity="0" stroke="rgb(8,168,138)" stroke-opacity="1" stroke-width="12.6" d=" M-54.24100112915039,111.58899688720703 C-54.24100112915039,149.71200561523438 -85.14600372314453,180.61599731445312 -123.26899719238281,180.61599731445312"/></g></g><g transform="matrix(1,0,0,1,375,200)" opacity="1" style="display: none;"><g opacity="1" transform="matrix(1,0,0,1,0,0)"><path stroke-linecap="round" stroke-linejoin="round" fill-opacity="0" stroke="rgb(18,19,49)" stroke-opacity="1" stroke-width="12.6" d=" M-28.23900032043457,110.8550033569336 C-28.23900032043457,164.2310028076172 -71.50900268554688,207.5 -124.88500213623047,207.5 C-178.26100158691406,207.5 -221.52999877929688,164.2310028076172 -221.52999877929688,110.8550033569336 C-221.52999877929688,57.479000091552734 -131.91400146484375,-100.46800231933594 -124.88500213623047,-108.375 C-117.41699981689453,-100.90699768066406 -28.23900032043457,57.479000091552734 -28.23900032043457,110.8550033569336z"/></g></g><g transform="matrix(1,0,0,1,375,200)" opacity="1" style="display: none;"><g opacity="1" transform="matrix(1,0,0,1,0,0)"><path stroke-linecap="round" stroke-linejoin="round" fill-opacity="0" stroke="rgb(8,168,138)" stroke-opacity="1" stroke-width="12.6" d=" M-54.24100112915039,111.58899688720703 C-54.24100112915039,149.71200561523438 -85.14600372314453,180.61599731445312 -123.26899719238281,180.61599731445312"/></g></g><g transform="matrix(0,0,0,0,435.5,290.5)" opacity="1" style="display: none;"><g opacity="1" transform="matrix(1,0,0,1,4.5,167.5)"><path fill="rgb(18,19,49)" fill-opacity="1" d=" M-4,-15.5 C-10.35099983215332,-15.5 -15.5,-10.35099983215332 -15.5,-4 C-15.5,2.3510000705718994 -10.35099983215332,7.5 -4,7.5 C2.3510000705718994,7.5 7.5,2.3510000705718994 7.5,-4 C7.5,-10.35099983215332 2.3510000705718994,-15.5 -4,-15.5z"/><path stroke-linecap="butt" stroke-linejoin="miter" fill-opacity="0" stroke-miterlimit="4" stroke="rgb(18,19,49)" stroke-opacity="1" stroke-width="3.5" d=" M-4,-15.5 C-10.35099983215332,-15.5 -15.5,-10.35099983215332 -15.5,-4 C-15.5,2.3510000705718994 -10.35099983215332,7.5 -4,7.5 C2.3510000705718994,7.5 7.5,2.3510000705718994 7.5,-4 C7.5,-10.35099983215332 2.3510000705718994,-15.5 -4,-15.5z"/></g></g><g transform="matrix(0,0,0,0,64.5,290.5)" opacity="1" style="display: none;"><g opacity="1" transform="matrix(1,0,0,1,4.5,167.5)"><path fill="rgb(18,19,49)" fill-opacity="1" d=" M-4,-15.5 C-10.35099983215332,-15.5 -15.5,-10.35099983215332 -15.5,-4 C-15.5,2.3510000705718994 -10.35099983215332,7.5 -4,7.5 C2.3510000705718994,7.5 7.5,2.3510000705718994 7.5,-4 C7.5,-10.35099983215332 2.3510000705718994,-15.5 -4,-15.5z"/><path stroke-linecap="butt" stroke-linejoin="miter" fill-opacity="0" stroke-miterlimit="4" stroke="rgb(18,19,49)" stroke-opacity="1" stroke-width="3.5" d=" M-4,-15.5 C-10.35099983215332,-15.5 -15.5,-10.35099983215332 -15.5,-4 C-15.5,2.3510000705718994 -10.35099983215332,7.5 -4,7.5 C2.3510000705718994,7.5 7.5,2.3510000705718994 7.5,-4 C7.5,-10.35099983215332 2.3510000705718994,-15.5 -4,-15.5z"/></g></g><g transform="matrix(0,0,0,0,250,333.375)" opacity="1" style="display: none;"><g opacity="1" transform="matrix(1,0,0,1,4.5,167.5)"><path fill="rgb(18,19,49)" fill-opacity="1" d=" M-4,-15.5 C-10.35099983215332,-15.5 -15.5,-10.35099983215332 -15.5,-4 C-15.5,2.3510000705718994 -10.35099983215332,7.5 -4,7.5 C2.3510000705718994,7.5 7.5,2.3510000705718994 7.5,-4 C7.5,-10.35099983215332 2.3510000705718994,-15.5 -4,-15.5z"/><path stroke-linecap="butt" stroke-linejoin="miter" fill-opacity="0" stroke-miterlimit="4" stroke="rgb(18,19,49)" stroke-opacity="1" stroke-width="3.5" d=" M-4,-15.5 C-10.35099983215332,-15.5 -15.5,-10.35099983215332 -15.5,-4 C-15.5,2.3510000705718994 -10.35099983215332,7.5 -4,7.5 C2.3510000705718994,7.5 7.5,2.3510000705718994 7.5,-4 C7.5,-10.35099983215332 2.3510000705718994,-15.5 -4,-15.5z"/></g></g><g class="com" style="display: none;"><g><path/></g><g><path/></g><g><path/></g><g><path/></g><g><path/></g><g><path/></g><g><path/></g><g><path/></g><g><path/></g><g><path/></g><g><path/></g><g><path/></g></g></g></svg>