<svg xmlns="http://www.w3.org/2000/svg" viewBox="0 0 719.14 453.04"><defs><style>.cls-1{fill:#c1dc8c}.cls-1,.cls-10,.cls-11,.cls-12,.cls-13,.cls-14,.cls-15,.cls-16,.cls-17,.cls-18,.cls-19,.cls-2,.cls-20,.cls-21,.cls-22,.cls-23,.cls-24,.cls-25,.cls-26,.cls-27,.cls-28,.cls-29,.cls-3,.cls-30,.cls-31,.cls-32,.cls-33,.cls-34,.cls-35,.cls-36,.cls-37,.cls-38,.cls-39,.cls-4,.cls-40,.cls-41,.cls-42,.cls-43,.cls-44,.cls-45,.cls-46,.cls-47,.cls-48,.cls-49,.cls-5,.cls-50,.cls-51,.cls-52,.cls-53,.cls-54,.cls-6,.cls-7,.cls-8,.cls-9{stroke:#6b5a93}.cls-1,.cls-10,.cls-11,.cls-12,.cls-13,.cls-14,.cls-15,.cls-16,.cls-17,.cls-18,.cls-19,.cls-2,.cls-20,.cls-21,.cls-22,.cls-23,.cls-24,.cls-25,.cls-26,.cls-28,.cls-29,.cls-3,.cls-30,.cls-31,.cls-32,.cls-34,.cls-35,.cls-36,.cls-37,.cls-38,.cls-4,.cls-40,.cls-41,.cls-42,.cls-43,.cls-44,.cls-45,.cls-46,.cls-47,.cls-48,.cls-49,.cls-5,.cls-50,.cls-51,.cls-52,.cls-53,.cls-6,.cls-7,.cls-8,.cls-9{stroke-linejoin:round}.cls-1,.cls-10,.cls-11,.cls-12,.cls-13,.cls-14,.cls-15,.cls-17,.cls-18,.cls-19,.cls-2,.cls-20,.cls-21,.cls-22,.cls-23,.cls-24,.cls-25,.cls-28,.cls-3,.cls-30,.cls-32,.cls-33,.cls-37,.cls-39,.cls-4,.cls-44,.cls-45,.cls-47,.cls-49,.cls-51,.cls-52,.cls-54,.cls-6,.cls-8{stroke-width:.57px}.cls-2,.cls-27,.cls-31,.cls-36,.cls-4,.cls-54,.cls-55{fill:#7489ba}.cls-21,.cls-22,.cls-39,.cls-56{fill:#fff}.cls-16,.cls-29,.cls-3,.cls-34,.cls-38,.cls-40,.cls-42,.cls-43,.cls-46,.cls-48,.cls-50,.cls-53,.cls-57,.cls-7{fill:#f2eff7}.cls-12,.cls-14,.cls-20,.cls-21,.cls-23,.cls-30,.cls-31,.cls-32,.cls-35,.cls-36,.cls-4,.cls-44,.cls-51,.cls-9{stroke-linecap:round}.cls-5,.cls-58{fill:#fed93a}.cls-59,.cls-60,.cls-61,.cls-62{fill:#024868}.cls-59,.cls-60,.cls-63{opacity:.6}.cls-51,.cls-6,.cls-64{fill:#c5dbf2}.cls-7{stroke-width:.69px}.cls-65,.cls-8{fill:#7977b8}.cls-9{stroke-width:1.42px}.cls-15,.cls-30,.cls-33,.cls-35,.cls-66,.cls-9{fill:none}.cls-10,.cls-41{fill:#f8a16d}.cls-67{isolation:isolate}.cls-11{fill:#a180ab}.cls-68{fill:#046938}.cls-12,.cls-49{fill:#75b86b}.cls-13{fill:#efa089}.cls-14{fill:#4b5073}.cls-16{stroke-width:.69px}.cls-17{fill:#6aa9d7}.cls-18,.cls-26,.cls-69{fill:#e2ebf6}.cls-70{fill:#707170}.cls-19{fill:#bd8b60}.cls-20{fill:#acd9b2}.cls-23,.cls-24,.cls-71{fill:#98bae2}.cls-60,.cls-63{mix-blend-mode:multiply}.cls-61{opacity:.68}.cls-25,.cls-32{fill:#a0d5b2}.cls-26{stroke-width:.62px}.cls-27{stroke-width:.39px}.cls-27,.cls-33,.cls-39,.cls-54,.cls-66{stroke-miterlimit:10}.cls-28{fill:#fece8d}.cls-29{stroke-width:.69px}.cls-31{stroke-width:.54px}.cls-34{stroke-width:.67px}.cls-35{stroke-width:.45px}.cls-36{stroke-width:.56px}.cls-37{fill:#6bc5d6}.cls-72{fill:#4e83c3}.cls-38{stroke-width:.67px}.cls-40{stroke-width:.68px}.cls-66{stroke:#8692b9;stroke-width:.67px}.cls-42,.cls-43{stroke-width:.68px}.cls-73{fill:#068871}.cls-44,.cls-52,.cls-74{fill:#ffd6a0}.cls-45{fill:#78af88}.cls-75{fill:#b4cfe9}.cls-46{stroke-width:.65px}.cls-76{fill:#f3f1f8}.cls-77{fill:#cedef0}.cls-47{fill:#85c891}.cls-48{stroke-width:.67px}.cls-78{fill:#6b5a93}.cls-50{stroke-width:.68px}.cls-53{stroke-width:.67px}</style></defs><g class="cls-67"><g id="Layer_1"><path class="cls-54" d="M.37 232.94l378.27 219.77L717.8 251.85l.08-21.52L346.05 32.99.28 211.66l.09 21.28z"/><path class="cls-20" d="M717.87 230.34C605.28 297.45 492.69 364.56 380.1 431.69L.37 211.71 347.52 11.97C462.55 79.78 577.55 147.6 692.58 215.42c6.21 3.65 12.4 7.32 18.61 10.97 2.23 1.32 4.46 2.63 6.69 3.95z"/><path class="cls-60" d="M279.24 167.18c14.87 8.4 29.74 16.8 44.62 25.19.34.19.76.17 1.07-.07l1.37-1.01a.98.98 0 0 0-.11-1.65l-44.43-24.73c-.26-.14-1.04-.43-1.62-.03l-.78.52a.983.983 0 0 0-.12 1.77z"/><path class="cls-57" d="M519.79 253.48c-.42.11-50.17 32.02-160.01 37.74-42 2.18-72.91 11.12-92.21 26.6.07-12.49-4.6-23.7-10.26-34.02-11.09-20.22-33.58-20.22-55.76-46.95-22.17-26.74 27.15-50.87 27.15-50.87l-9.29-5.62c-24.13 4.56-39.37 28.61-39.37 28.61-27.39-19.56-65.29-29.1-65.29-29.1l-15.9 9.05c42.06 15.65 68.47 23.15 78.26 47.28 9.78 24.13 30.65 23.48 59.34 50.87 28.69 27.39-5.22 57.55-5.22 57.55l38.48 22.17-2.3-6.33c-.05-.38-1.08-9.41 7.27-19.4 9.44-11.29 32.06-25.33 86.24-28.15 112.63-5.86 162.65-38.75 164.43-39.21l-5.54-20.22zM329.94 138.3s-25.19 14.67-5.14 36.44c18.96 20.58 58.69 31.3 58.69 31.3l14.18-8.8s-51.31-18.48-60.89-30.57c-10.27-12.96 4.65-18.59 4.65-18.59l-11.49-9.78z"/><path class="cls-61" d="M129.44 149.13c-1.14.9-1.82 1.99-1.82 3.18 0 3.01 4.31 5.45 9.62 5.45s9.62-2.44 9.62-5.45c0-1.76-1.48-3.32-3.77-4.32.65-.51 1.14-1.08 1.45-1.71 1.41.45 3.03.72 4.76.72 5.32 0 9.62-2.44 9.62-5.45s-4.31-5.45-9.62-5.45c-4.41 0-8.12 1.68-9.26 3.98-1.41-.45-3.03-.72-4.76-.72-5.32 0-9.62 2.44-9.62 5.45 0 1.76 1.48 3.32 3.77 4.32z"/><path class="cls-24" d="M38.22 190.97V193l44.97 23.64 67.98-38.8v-4.08L38.22 190.97z"/><path class="cls-18" d="M553.7 144.9l-60.16 32.77 54.29 30.82 60.16-35.71-54.29-27.88zM52.97 180.8l-13.48 7.96 42.88 24.29 68.8-39.62-46.1-26.3-52.1 33.67zm393.86-49.35c10.03 6.36 30.81 13.69 18.59 23.97-12.23 10.27 0 24.21-47.2 23.72-47.2-.49-72.88-16.14-82.17-32.53s-43.04-28.61-58.2-34.97c-15.16-6.36-22.01-30.32 18.34-34.97 40.35-4.65 150.64 54.78 150.64 54.78z"/><path class="cls-24" d="M146.62 153.61v3.09l44.01 25.29 19.21-7.29 28.15 16.42 32.52-19.81.25-4.89-25.55-12.49 17.31-10.17v-3.26l-115.9 13.11z"/><path class="cls-18" d="M158.67 146.7l-11.74 6.68 43.7 24.37 19.5-6.89 27.37 15.86 33.01-20.3-25.63-15.82 17.56-10.1-48.83-29.02-54.94 35.22z"/><g class="cls-63"><path class="cls-62" d="M260.73 85.7c2.52 0 4.78-.61 6.37-1.57 1.41 1.66 4.4 2.81 7.87 2.81 4.83 0 8.74-2.22 8.74-4.95s-3.91-4.95-8.74-4.95c-2.52 0-4.78.61-6.37 1.57-1.41-1.66-4.4-2.81-7.87-2.81-4.83 0-8.74 2.22-8.74 4.95s3.91 4.95 8.74 4.95zM1.96 210.36l379.21 218.71 17.98-10.76L19.6 199.97 1.96 210.36z"/><ellipse class="cls-62" cx="281.26" cy="193.49" rx="4.41" ry="1.85"/><path class="cls-62" d="M274.08 206.95c0-.85-2.26-1.54-5.04-1.54s-5.04.69-5.04 1.54 2.26 1.54 5.04 1.54 5.04-.69 5.04-1.54zm-20.68 5.45c0-.83-2.19-1.5-4.9-1.5s-4.9.67-4.9 1.5 2.19 1.5 4.9 1.5 4.9-.67 4.9-1.5z"/><ellipse class="cls-62" cx="230.9" cy="224.46" rx="5.59" ry="1.71"/><path class="cls-62" d="M153.4 239.3c0 .94 2.5 1.71 5.59 1.71s5.59-.76 5.59-1.71-2.5-1.71-5.59-1.71-5.59.76-5.59 1.71zm-12.47-1.22c0 .94 2.5 1.71 5.59 1.71s5.59-.76 5.59-1.71-2.5-1.71-5.59-1.71-5.59.76-5.59 1.71zm342.99 92.93c-3.09 0-5.59.76-5.59 1.71s2.5 1.71 5.59 1.71 5.59-.76 5.59-1.71-2.5-1.71-5.59-1.71zm14.68 5.87c-3.09 0-5.59.76-5.59 1.71s2.5 1.71 5.59 1.71 5.59-.76 5.59-1.71-2.5-1.71-5.59-1.71zm-35.22-36.04c3.09 0 5.59-.76 5.59-1.71s-2.5-1.71-5.59-1.71-5.59.76-5.59 1.71 2.5 1.71 5.59 1.71zm-42.01-44.15c-3 0-5.43.74-5.43 1.66s2.43 1.66 5.43 1.66 5.43-.74 5.43-1.66-2.43-1.66-5.43-1.66zm46.9 95.84c-3.09 0-5.59.76-5.59 1.71s2.5 1.71 5.59 1.71 5.59-.76 5.59-1.71-2.5-1.71-5.59-1.71zm-27.66-44.59c0-.94-2.5-1.71-5.59-1.71s-5.59.76-5.59 1.71 2.5 1.71 5.59 1.71 5.59-.76 5.59-1.71zm-61.63 1.63c0-.94-2.5-1.71-5.59-1.71s-5.59.76-5.59 1.71 2.5 1.71 5.59 1.71 5.59-.76 5.59-1.71zm-15-3.26c0-.94-2.5-1.71-5.59-1.71s-5.59.76-5.59 1.71 2.5 1.71 5.59 1.71 5.59-.76 5.59-1.71z"/><ellipse class="cls-62" cx="216.5" cy="209.39" rx="5.84" ry="1.78"/><path class="cls-62" d="M349.75 169.53c0-.98-2.61-1.78-5.84-1.78s-5.84.8-5.84 1.78 2.61 1.78 5.84 1.78 5.84-.8 5.84-1.78zm14.43 1.47c0-.98-2.61-1.78-5.84-1.78s-5.84.8-5.84 1.78 2.61 1.78 5.84 1.78 5.84-.8 5.84-1.78zm-76.06-99.97c4.83 0 8.74-2.22 8.74-4.95s-3.91-4.95-8.74-4.95-8.74 2.22-8.74 4.95 3.91 4.95 8.74 4.95zM464.3 141.4c0 5.63 8.05 10.19 17.99 10.19 4.74 0 9.05-1.05 12.26-2.75-.54.82-.88 1.8-.92 2.86 0 .05.01.1.01.16a4.52 4.52 0 0 0-.75-.1 4.15 4.15 0 0 0-4.29 3.95c-.6-.2-1.25-.3-1.92-.28-3.1.11-5.53 2.72-5.42 5.82.11 3.1 2.72 5.53 5.82 5.42.54-.02 1.05-.14 1.55-.3.78 3 3.55 5.18 6.78 5.06.34-.01.66-.07.98-.13a5.644 5.644 0 0 0 5.1 3.33l40.8 23.75 8.71-.93 42.69-24.64-63.14-14.85-20.69 11.37c-.6-.3-1.27-.47-1.98-.44-.26 0-.5.05-.75.1 0-.05.01-.1.01-.16-.1-2.94-2.46-5.25-5.35-5.39a6.76 6.76 0 0 0-5.47-5.41c.2-.33.36-.69.46-1.08.69.34 1.46.55 2.28.58a5.61 5.61 0 0 0 5.33-3.34c.32.06.64.12.98.13 3.23.11 6-2.06 6.78-5.06.49.16 1 .28 1.55.3 3.1.11 5.71-2.32 5.82-5.42.11-3.1-2.32-5.71-5.42-5.82a5.639 5.639 0 0 0-5.32 3.29c-.88-.47-1.86-.77-2.93-.81-3.39-.12-6.26 2.28-6.86 5.51-.38.02-.75.08-1.11.17 1.52-1.5 2.4-3.22 2.4-5.07 0-5.63-8.05-10.19-17.99-10.19s-17.99 4.56-17.99 10.19z"/><ellipse class="cls-62" cx="468.11" cy="100.8" rx="17.99" ry="10.19"/><path class="cls-62" d="M711.52 226.15c-.7 5.26-8.8 9.64-18.27 9.64-9.94 0-17.98-4.56-17.98-10.19s8.01-10.22 17.64-10.42c6.21 3.65 12.4 7.32 18.61 10.97zM81.13 199.61l44.61-26.09-20.46-18.35-64.65 31.8 26.42 14.67 14.08-2.03zm412.9 84.85l48.26 28.69 15.2.28 35.01-19.84 11.68-1.12-59.93-30.84-50.22 22.83zM180.21 172.41l15.82 1.03 57.98-33.48-33.23-29.63-74.33 42.94c-.09.05-.09.18 0 .24l33.75 18.9zm183.76 211.93c4.83 0 8.74-2.22 8.74-4.95s-3.91-4.95-8.74-4.95-8.74 2.22-8.74 4.95 3.91 4.95 8.74 4.95zm35.7 10.64c-4.83 0-8.74 2.22-8.74 4.95s3.91 4.95 8.74 4.95 8.74-2.22 8.74-4.95-3.91-4.95-8.74-4.95zm-92.45-41.03c0 2.73 3.91 4.95 8.74 4.95s8.74-2.22 8.74-4.95-3.91-4.95-8.74-4.95-8.74 2.22-8.74 4.95zm220.72-96.69l-107.6-60.65c-40.31 23.04-80.62 46.09-120.93 69.13-10.59-4.55-21.19-9.1-31.78-13.65l-22.31 14.84c9.48 4.37 18.97 8.75 28.45 13.12-17.88 10.33-35.76 20.67-53.64 31 7.93 4.78 15.87 9.56 23.8 14.35l49.12-28.76c1.17 1.95 4.43 3.36 8.27 3.36 4.83 0 8.74-2.22 8.74-4.95 0-2.23-2.61-4.12-6.2-4.74l119.4-69.9 84.78 49.56 19.89-12.72zM284.27 86.45c-4.83 0-8.74 2.22-8.74 4.95 0 2.3 2.76 4.22 6.51 4.78l52.55 28.9-13.69 6.6 31.3 18.34 12.35-6.1 6.46 3.55c3.07 3.54 8.09 8.49 15.42 12.69 8.24 4.72 19.21 7.71 24.09 8.44 4.8.3 10.27.24 11.09-.31l37.73-21.81-149.95-60.79-16.39 5.6c-.08-2.7-3.96-4.87-8.74-4.87z"/><ellipse class="cls-62" cx="341.43" cy="286.9" rx="8.74" ry="4.95"/><path class="cls-62" d="M451.32 369.83c-3.68 0-6.82 1.29-8.11 3.11-4.7.09-8.46 2.26-8.46 4.94s3.91 4.95 8.74 4.95c3.68 0 6.82-1.29 8.11-3.11 4.7-.09 8.46-2.26 8.46-4.94s-3.91-4.95-8.74-4.95zm-209.66-194.8c0-.78-2.07-1.41-4.62-1.41s-4.62.63-4.62 1.41 2.07 1.41 4.62 1.41 4.62-.63 4.62-1.41zm193.03 76.01l-6.36 5.21 28.69 16.47 6.52-5.87-28.85-15.81zm15.81 18.76l-18.43-10.1-4.07 3.33 18.34 10.52 4.16-3.75z"/></g><path class="cls-24" d="M245.38 250.64l10.69 6.15 5.88-3.74 7.35 3.61 8.42-4.95 9.63 5.61v-9.36l-9.63-4.81-8.29 4.28-8.02-3.88-6.42 3.34-9.76-5.88s.13 9.49.13 9.63z"/><path class="cls-18" d="M232.42 257.58l13.09-7.08 5.08 2.81-13.37 8.96-4.8-4.69z"/><path class="cls-18" d="M235.85 258.01l14.61-7.58 4.41 2.29-13.36 8.96-5.66-3.67z"/><path class="cls-18" d="M241.29 257.82l14.51-7.99 5.08 2.81-13.37 8.96-6.22-3.78z"/><path class="cls-18" d="M246.97 257.52l15.72-8.13 4.21 2.72-13.37 8.95-6.56-3.54z"/><path class="cls-18" d="M251.8 258.01l14.98-8.07 4.66 2.83-13.36 8.96-6.28-3.72z"/><path class="cls-18" d="M257 258.19l14.98-8.44 4.54 2.62-13.36 8.96-6.16-3.14z"/><path class="cls-18" d="M263.16 258.26l13.89-8.69 4.69 2.54-13.37 8.95-5.21-2.8z"/><path class="cls-26" d="M269.17 257.72l13.5-8.96 5.08 2.81-13.37 8.96-5.21-2.81z"/><path class="cls-24" d="M230.65 258.62l14.67 8.31 7.09-3.67 6.19 2.88 8.42-4.95 9.63 5.61v-7.49l-9.63-4.81-8.29 4.28-8.02-3.88-6.42 3.34-13.9-8.69s.24 8.91.24 9.05z"/><path class="cls-25" d="M493.88 148.45c.26 0 .5.05.75.1 0-.05-.01-.1-.01-.16.1-2.94 2.46-5.25 5.35-5.39.61-3.23 3.47-5.63 6.86-5.51 1.06.04 2.05.34 2.93.81.92-2.01 2.97-3.38 5.32-3.29 3.1.11 5.53 2.71 5.42 5.82a5.622 5.622 0 0 1-5.82 5.42c-.54-.02-1.05-.14-1.55-.3-.78 3-3.55 5.18-6.78 5.06a6.25 6.25 0 0 1-.98-.13c-.91 2.03-2.97 3.42-5.33 3.34a5.61 5.61 0 0 1-2.28-.58 4.15 4.15 0 0 1-4.17 3.13 4.164 4.164 0 0 1-4.01-4.3 4.164 4.164 0 0 1 4.3-4.01z"/><path class="cls-32" d="M509.41 139.92s2.25 1.26 1.9 4.57m-16.02 4.62s3.1-.12 2.44 3.38"/><path class="cls-25" d="M624.77 150.11c.8-5.02 5.13-8.85 10.37-8.85 5.81 0 10.51 4.71 10.51 10.51 0 .44-.03.86-.09 1.29 3.49 1.43 5.96 4.86 5.96 8.87 0 5.29-4.29 9.59-9.59 9.59s-9.59-4.29-9.59-9.59v-.03c-.11-.03-.22-.05-.33-.09-.75.23-1.55.36-2.38.36-4.12 0-7.46-3.07-7.46-6.87 0-2.08 1.01-3.94 2.59-5.2z"/><path class="cls-45" d="M672.08 169.03c.16-.84.25-1.71.25-2.6 0-7.77-6.3-14.07-14.07-14.07s-14.07 6.3-14.07 14.07 6.3 14.07 14.07 14.07c1.5 0 2.95-.24 4.31-.68 1.13 3.21 4.18 5.51 7.77 5.51a8.241 8.241 0 0 0 1.73-16.3z"/><path class="cls-19" d="M621.28 155.51v21.52s.65 3.08 3.59.45v-21.25l-3.59-.72zm26.74 16.31v21.52s.65 3.08 3.59.45v-21.25l-3.59-.72z"/><path class="cls-25" d="M658.71 162.5c-.8-5.02-5.13-8.85-10.37-8.85-5.81 0-10.51 4.71-10.51 10.51 0 .44.03.86.09 1.29-3.49 1.43-5.96 4.86-5.96 8.87 0 5.29 4.29 9.59 9.59 9.59s9.59-4.29 9.59-9.59v-.03c.11-.03.22-.05.33-.09.75.23 1.55.36 2.38.36 4.12 0 7.46-3.07 7.46-6.87 0-2.08-1.01-3.94-2.59-5.2z"/><path class="cls-45" d="M626.92 145.71c-.8-5.02-5.13-8.85-10.37-8.85-5.81 0-10.51 4.71-10.51 10.51 0 .44.03.86.09 1.29-3.49 1.43-5.96 4.86-5.96 8.87 0 5.29 4.29 9.59 9.59 9.59s9.59-4.29 9.59-9.59v-.03c.11-.03.22-.05.33-.09.75.23 1.55.36 2.38.36 4.12 0 7.46-3.07 7.46-6.87 0-2.08-1.01-3.94-2.59-5.2zm-493.86-38.48c.8-5.02 5.13-8.85 10.37-8.85 5.81 0 10.51 4.71 10.51 10.51 0 .44-.03.86-.09 1.29 3.49 1.43 5.96 4.86 5.96 8.87 0 5.29-4.29 9.59-9.59 9.59s-9.59-4.29-9.59-9.59v-.03c-.11-.03-.22-.05-.33-.09-.75.23-1.55.36-2.38.36-4.12 0-7.46-3.07-7.46-6.87 0-2.08 1.01-3.94 2.59-5.2z"/><path class="cls-25" d="M166.84 112.61c-.8-5.02-5.13-8.85-10.37-8.85-5.81 0-10.51 4.71-10.51 10.51 0 .44.03.86.09 1.29-3.49 1.43-5.96 4.86-5.96 8.87s4.29 9.59 9.59 9.59c5.29 0 9.59-4.29 9.59-9.59 0 0 .16.42.16.41.11-.03.26.31.37.28.75.23 1.36-.44 2.19-.44 4.12 0 7.46-3.07 7.46-6.87 0-2.08-1.01-3.94-2.59-5.2z"/><path class="cls-45" d="M117.24 131.21c-.16-.84-.25-1.71-.25-2.6 0-7.77 6.3-14.07 14.07-14.07 7.77 0 14.07 6.3 14.07 14.07s-6.3 14.07-14.07 14.07c-1.5 0-2.95-.24-4.31-.68-1.13 3.21-4.18 5.51-7.77 5.51a8.241 8.241 0 0 1-1.73-16.3z"/><path class="cls-19" d="M168.05 117.69v21.52s-.65 3.08-3.59.45v-21.25l3.59-.72zm-26.74 14.51v21.52s-.65 3.08-3.59.45v-21.25l3.59-.72z"/><path class="cls-25" d="M130.61 124.68c.8-5.02 5.13-8.85 10.37-8.85 5.81 0 10.51 4.71 10.51 10.51 0 .44-.03.86-.09 1.29 3.49 1.43 5.96 4.86 5.96 8.87 0 5.29-4.29 9.59-9.59 9.59s-9.59-4.29-9.59-9.59v-.03c-.11-.03-.22-.05-.33-.09-.75.23-1.55.36-2.38.36-4.12 0-7.46-3.07-7.46-6.87 0-2.08 1.01-3.94 2.59-5.2z"/><path class="cls-45" d="M684.83 148.42c.1-.75.17-1.52.17-2.3 0-9.51-7.71-17.22-17.22-17.22s-17.22 7.71-17.22 17.22c0 .35.03.68.05 1.02-3.39 2.32-5.62 6.21-5.62 10.63 0 7.11 5.76 12.87 12.87 12.87 5.15 0 9.57-3.03 11.63-7.39 3.13-.31 6-1.47 8.41-3.23 1.34 2 3.62 3.32 6.21 3.32 4.13 0 7.48-3.35 7.48-7.48 0-3.89-2.98-7.09-6.78-7.44z"/><path class="cls-19" d="M671.17 173.43v21.52s.65 3.08 3.59.45v-21.25l-3.59-.72z"/><path class="cls-45" d="M681.86 164.11c-.8-5.02-5.13-8.85-10.37-8.85-5.81 0-10.51 4.71-10.51 10.51 0 .44.03.86.09 1.29-3.49 1.43-5.96 4.86-5.96 8.87 0 5.29 4.29 9.59 9.59 9.59s9.59-4.29 9.59-9.59v-.03c.11-.03.22-.05.33-.09.75.23 1.55.36 2.38.36 4.12 0 7.46-3.07 7.46-6.87 0-2.08-1.01-3.94-2.59-5.2z"/><path class="cls-19" d="M437.38 53.13v21.52s.65 3.08 3.59.45V53.85l-3.59-.72zm-13.45-6.36v21.52s.65 3.08 3.59.45V47.49l-3.59-.72zM258.12 59v21.52s1.08 2.27 3.59.45V59.72l-3.59-.72zm28.37-15.65v21.52s.65 3.08 3.59.45V44.07l-3.59-.72z"/><path class="cls-1" d="M593.69 126.56l-24.34-12.47-14.43 7.34.49 30.08 38.28-24.95z"/><path class="cls-54" d="M560.87 111.58v21.52s.65 3.08 3.59.45V112.3l-3.59-.72z"/><path class="cls-25" d="M269.14 51.56c-.8-5.02-5.13-8.85-10.37-8.85-5.81 0-10.51 4.71-10.51 10.51 0 .44.03.86.09 1.29-3.49 1.43-5.96 4.86-5.96 8.87 0 5.29 4.29 9.59 9.59 9.59s9.59-4.29 9.59-9.59v-.03c.11-.03.22-.05.33-.09.75.23 1.55.36 2.38.36 4.12 0 7.46-3.07 7.46-6.87 0-2.08-1.01-3.94-2.59-5.2z"/><path class="cls-45" d="M301.91 33.7c-.8-5.02-5.13-8.85-10.37-8.85-5.81 0-10.51 4.71-10.51 10.51 0 .44.03.86.09 1.29-3.49 1.43-5.96 4.86-5.96 8.87 0 5.29 4.29 9.59 9.59 9.59s9.59-4.29 9.59-9.59v-.03c.11-.03.22-.05.33-.09.75.23 1.55.36 2.38.36 4.12 0 7.46-3.07 7.46-6.87 0-2.08-1.01-3.94-2.59-5.2z"/><path class="cls-19" d="M381.37 356.37v21.52s.65 3.08 3.59.45v-21.25l-3.59-.72z"/><path class="cls-45" d="M396.8 346.73c-.8-5.02-5.13-8.85-10.37-8.85-5.81 0-10.51 4.71-10.51 10.51 0 .44.03.86.09 1.29-3.49 1.43-5.96 4.86-5.96 8.87 0 5.29 4.29 9.59 9.59 9.59s9.59-4.29 9.59-9.59v-.03c.11-.03.22-.05.33-.09.75.23 1.55.36 2.38.36 4.12 0 7.46-3.07 7.46-6.87 0-2.08-1.01-3.94-2.59-5.2z"/><path class="cls-19" d="M355.78 327.02v21.52s-.65 3.08-3.59.45v-21.25l3.59-.72z"/><path class="cls-13" d="M340.36 317.38c.8-5.02 5.13-8.85 10.37-8.85 5.81 0 10.51 4.71 10.51 10.51 0 .44-.03.86-.09 1.29 3.49 1.43 5.96 4.86 5.96 8.87 0 5.29-4.29 9.59-9.59 9.59s-9.59-4.29-9.59-9.59v-.03c-.11-.03-.22-.05-.33-.09-.75.23-1.55.36-2.38.36-4.12 0-7.46-3.07-7.46-6.87 0-2.08 1.01-3.94 2.59-5.2z"/><path class="cls-45" d="M433.24 42.02c-.8-5.02-5.13-8.85-10.37-8.85-5.81 0-10.51 4.71-10.51 10.51 0 .44.03.86.09 1.29-3.49 1.43-5.96 4.86-5.96 8.87 0 5.29 4.29 9.59 9.59 9.59s9.59-4.29 9.59-9.59v-.03c.11-.03.22-.05.33-.09.75.23 1.55.36 2.38.36 4.12 0 7.46-3.07 7.46-6.87 0-2.08-1.01-3.94-2.59-5.2z"/><path class="cls-25" d="M431.08 46.42c.8-5.02 5.13-8.85 10.37-8.85 5.81 0 10.51 4.71 10.51 10.51 0 .44-.03.86-.09 1.29 3.49 1.43 5.96 4.86 5.96 8.87 0 5.29-4.29 9.59-9.59 9.59s-9.59-4.29-9.59-9.59v-.03c-.11-.03-.22-.05-.33-.09-.75.23-1.55.36-2.38.36-4.12 0-7.46-3.07-7.46-6.87 0-2.08 1.01-3.94 2.59-5.2z"/><path class="cls-71" d="M235.7 150.54l18.32-10.57V65.13L235.7 75.7v74.84z"/><path class="cls-15" d="M235.7 150.54l18.32-10.57V65.13L235.7 75.7v74.84z"/><path class="cls-69" d="M196.03 98.44v75.01l-38.31-22.12V76.32l38.31 22.12z"/><path class="cls-15" d="M196.03 98.44v75.01l-38.31-22.12V76.32l38.31 22.12z"/><path class="cls-56" d="M157.72 93.68l.01-5.64 18.25 10.6v5.64l-18.26-10.6z"/><path class="cls-15" d="M157.72 93.68l.01-5.64 18.25 10.6v5.64l-18.26-10.6z"/><path class="cls-56" d="M164.95 125.57v-5.64l18.26 10.71v5.64l-18.26-10.71z"/><path class="cls-15" d="M164.95 125.57v-5.64l18.26 10.71v5.64l-18.26-10.71z"/><path class="cls-71" d="M196.03 173.45l18.31-10.57V88.04l-18.31 10.57v74.84z"/><path class="cls-15" d="M196.03 173.45l18.31-10.57V88.04l-18.31 10.57v74.84z"/><path class="cls-55" d="M214.34 155.83l15.26-8.81V72.13l-21.36 12.34 6.1 3.52v67.84z"/><path class="cls-33" d="M214.34 155.83l15.26-8.81V72.13l-21.36 12.34 6.1 3.52v67.84z"/><path class="cls-17" d="M229.6 147.02v-10.57l-15.26 8.81v10.57l15.26-8.81z"/><path class="cls-17" d="M223.09 140.21v10.57l-1.12.64v-10.56l1.12-.65z"/><path class="cls-71" d="M229.6 72.13l6.1 3.52v74.89l-6.1-3.52V72.13z"/><path class="cls-15" d="M229.6 72.13l6.1 3.52v74.89l-6.1-3.52V72.13z"/><path class="cls-56" d="M211.42 136.85v-5.24l-12.47 7.19v5.25l12.47-7.2z"/><path class="cls-15" d="M211.42 136.85v-5.24l-12.47 7.19v5.25l12.47-7.2z"/><path class="cls-56" d="M208.72 155.48v-6.7l-5.64 3.52v6.69l5.64-3.51z"/><path class="cls-15" d="M208.72 155.48v-6.7l-5.64 3.52v6.69l5.64-3.51z"/><path class="cls-56" d="M248.55 133.35v-6.7l-5.64 3.51v6.7l5.64-3.51z"/><path class="cls-15" d="M248.55 133.35v-6.7l-5.64 3.51v6.7l5.64-3.51z"/><path class="cls-56" d="M211.42 120.69v-5.24l-12.47 7.22v5.24l12.47-7.22z"/><path class="cls-15" d="M211.42 120.69v-5.24l-12.47 7.22v5.24l12.47-7.22z"/><path class="cls-56" d="M211.54 103.79v-5.25l-12.24 7.18v5.24l12.24-7.17z"/><path class="cls-15" d="M211.54 103.79v-5.25l-12.24 7.18v5.24l12.24-7.17z"/><path class="cls-56" d="M251.48 114.41v-5.24l-12.46 7.24v5.24l12.46-7.24z"/><path class="cls-15" d="M251.48 114.41v-5.24l-12.46 7.24v5.24l12.46-7.24z"/><path class="cls-56" d="M251.48 97.14V91.9l-12.46 7.24v5.24l12.46-7.24z"/><path class="cls-15" d="M251.48 97.14V91.9l-12.46 7.24v5.24l12.46-7.24z"/><path class="cls-56" d="M251.48 80.85v-5.24l-12.46 7.12v5.24l12.46-7.12z"/><path class="cls-15" d="M251.48 80.85v-5.24l-12.46 7.12v5.24l12.46-7.12z"/><path class="cls-69" d="M229.5 130l-15.16 8.86v6.4l21.17-11.91-6.01-3.35z"/><path class="cls-15" d="M229.5 130l-15.16 8.86v6.4l21.17-11.91-6.01-3.35z"/><path class="cls-64" d="M235.7 133.2v3.25l-21.36 12.33v-3.52l21.36-12.06z"/><path class="cls-15" d="M235.7 133.2v3.25l-21.36 12.33v-3.52l21.36-12.06z"/><path class="cls-56" d="M254.01 64.96l-18.3 10.58-6.12-3.53-21.35 12.34.11.06 2.58 1.49 3.29 2.02-18.19 10.52-38.31-22.12 3.13-1.79 49.1-27.99 3.05-1.73 3.1-1.77 37.91 21.92z"/><path class="cls-15" d="M254.01 64.96l-18.3 10.58-6.12-3.53-21.35 12.34.11.06 2.58 1.49 3.29 2.02-18.19 10.52-38.31-22.12 3.13-1.79 49.1-27.99 3.05-1.73 3.1-1.77 37.91 21.92z"/><path class="cls-1" d="M247.91 64.96l-3.05 1.76-9.15 5.29-5.58-3.22-27.99 15.56 6.1 3.51-3.09 1.74-9.12 5.14-32.13-18.42L213 48.33l3.05-1.73 31.86 18.36z"/><path class="cls-64" d="M247.91 64.96l-3.05 1.76-29.06-16.77.25-3.35 31.86 18.36z"/><path class="cls-15" d="M247.91 64.96l-3.05 1.76-29.06-16.77.25-3.35 31.86 18.36z"/><path class="cls-64" d="M202.1 84.41l-.09 3.31 3.14 1.89 3.09-1.74-6.14-3.46z"/><path class="cls-15" d="M202.1 84.41l-.09 3.31 3.14 1.89 3.09-1.74-6.14-3.46z"/><path class="cls-18" d="M512.93 174.55L551 197.44V63.65l-38.07-22.89v34.6l9.14 5.9.08 5.93-14.91 9.54.24 6.11 5.45 2.95v68.76z"/><path class="cls-22" d="M538.81 169.27l6.1 3.52v-21.12l-6.1-3.52v21.12zm0-28.17l6.1 3.53V123.5l-6.1-3.52v21.12zm0-28.16l6.1 3.52-.01-21.13-6.09-3.52v21.13zm0-28.16l6.1 3.52V67.17l-6.1-3.52v21.13zm-12.2 77.45l6.1 3.52v-21.12l-6.1-3.53v21.13zm0 14.09l6.1 3.52v-7.04l-6.1-3.52v7.04zm12.2 7.04l6.1 3.52v-7.04l-6.1-3.52v7.04zm-12.2-49.3l6.1 3.52v-21.12l-6.1-3.52v21.12zm0-28.16l6.1 3.52V88.29l-6.1-3.52v21.13zm0-28.17l6.1 3.53V60.13l-6.1-3.52v21.12zm-10.64 78.61l6.1 3.52v-21.13l-6.1-3.52v21.13zm0 14.09l6.1 3.52v-7.04l-6.1-3.52v7.04zm0-42.26l6.1 3.52v-21.13l-6.1-3.52v21.13zm0-56.33l6.1 3.52V54.24l-6.1-3.52v21.12z"/><path class="cls-24" d="M593.69 172.8L551 197.44V63.65l42.69-24.64v63.34l-36.56 19.81.24 25.68 36.32-21.28v46.24z"/><path class="cls-22" d="M563.2 169.27l-6.1 3.52v-21.12l6.1-3.52v21.12zm0-56.33l-6.1 3.52V95.33l6.1-3.52v21.13zm0-28.16l-6.1 3.52V67.17l6.1-3.52v21.13zm12.2 77.45l-6.1 3.52v-21.12l6.1-3.53v21.13zm0 14.09l-6.1 3.52v-7.04l6.1-3.52v7.04zm-12.2 7.04l-6.1 3.52v-7.04l6.1-3.52v7.04zm12.2-77.46l-6.1 3.52V88.29l6.1-3.52v21.13zm0-28.17l-6.1 3.53V60.13l6.1-3.52v21.12zm12.19 77.45l-6.1 3.53v-21.13l6.1-3.52v21.12zm0 14.1l-6.1 3.52v-7.05l6.1-3.52v7.05zm0-70.43l-6.09 3.52V81.25l6.09-3.53v21.13zm0-28.16l-6.1 3.52V53.08l6.1-3.52v21.13zm6.1-31.69l-42.68 24.66-38.08-22.9 35.6-20.79 3.04-1.77 3.03-1.76L593.69 39z"/><path class="cls-1" d="M589.52 39l-37.66 21.74-34.76-19.98 37.61-21.86L589.52 39z"/><path class="cls-19" d="M464.52 70.98V92.5s.65 3.08 3.59.45V71.7l-3.59-.72zm226.94 133.04v21.52s.65 3.08 3.59.45v-21.25l-3.59-.72z"/><path class="cls-45" d="M478.4 65.34c.16-.84.25-1.71.25-2.6 0-7.77-6.3-14.07-14.07-14.07s-14.07 6.3-14.07 14.07 6.3 14.07 14.07 14.07c1.5 0 2.95-.24 4.31-.68 1.13 3.21 4.18 5.51 7.77 5.51a8.241 8.241 0 0 0 1.73-16.3z"/><circle class="cls-25" cx="681.31" cy="182.73" r="10.57"/><path class="cls-45" d="M700.92 171.64c-9.75 0-17.67 7.79-17.91 17.49-.13 0-.26-.02-.4-.02-5.84 0-10.57 4.73-10.57 10.57s4.73 10.57 10.57 10.57c3.91 0 7.32-2.13 9.15-5.29a17.83 17.83 0 0 0 9.17 2.54c9.9 0 17.93-8.03 17.93-17.93s-8.03-17.93-17.93-17.93z"/><path class="cls-18" d="M123.85 70.19c.2.3.39.6.56.88 2.3 3.87 1.57 6.4 1.57 12.94 0 7.59-.24 89.51-.24 89.51l-44.61 26.09-.14.08-31.3-17.21s-.49-85.03-.49-90.65.73-8.56 13.93-14.43c13.21-5.86 28.61-12.72 34.48-13.93 5.87-1.23 21.52.49 25.44 5.62.29.38.55.75.79 1.1"/><path class="cls-71" d="M124.55 71.74c-.11-.29-.27-.56-.46-.81-.39-.5-.99-1.23-1.2-1.52-3.92-5.13-19.57-6.85-25.44-5.62-5.87 1.21-18.56 7.1-31.87 12.72-13.53 5.71-18.91 10.52-13.37 13.61 0 0 16.06 5.71 27.8 6.52 0 0-.49-2.36 1.79-5.46s37.01-18.26 40.43-18.26l3.91 2.93-1.6-4.12z"/><path class="cls-15" d="M56.04 185.91s-.49-85.51-.49-91.13.73-8.56 13.93-14.43c13.21-5.86 30.01-14.3 35.89-15.51 2.16-.45 5.63-.5 9.35-.14"/><path class="cls-15" d="M62.89 189.66s-.49-86.33-.49-91.95.73-8.56 13.93-14.43c13.21-5.86 28.12-15.17 33.99-16.38 2.16-.45 6.79-.12 10.52.24"/><path class="cls-15" d="M124.05 70.4c-11.7-2.33-26.09 7.16-38.42 12.63-13.21 5.87-13.93 8.8-13.93 14.43s.49 97.25.49 97.25"/><path class="cls-18" d="M125.98 84.01c0 7.59-.24 89.51-.24 89.51l-44.61 26.09-.38-.18s-.5-95.62-.5-101.24.74-8.56 13.95-14.43c8.4-3.74 17.7-7.87 24.86-10.69 3.37-1.33 7.03 1.13 7.04 4.75 0 1.66-.11 3.61-.11 6.19z"/><path class="cls-54" d="M124.76 87.16c0 6.98-.22 86.97-.22 86.97l-41.39 24.2s-.46-92.95-.46-98.12.68-7.87 12.83-13.27c7.73-3.44 16.28-7.23 22.86-9.84 3.1-1.22 6.47 1.04 6.48 4.37 0 1.53-.1 3.32-.1 5.69z"/><path class="cls-24" d="M126.09 77.81c0 1.66-.11 3.61-.11 6.19 0 7.59-.24 89.51-.24 89.51l-36.92 21.6 3.83-91.65c1.51-.79 3.29-1.65 5.38-2.58 8.4-3.74 13.88-24.89 21.03-27.72 3.37-1.33 7.03 1.03 7.04 4.65z"/><path class="cls-15" d="M66.8 75.69s21.04 5.65 22.01 10.65m-9.78-16.03s21.04 5.65 22.01 10.65m-8.4-15.94s20.16 5.39 21.13 10.39M80.09 96.48c.15.3-13.67-2.23-21.11-4.16-6.67-1.72-9.29-4.65-9.29-4.65"/><path class="cls-22" d="M96.88 168.22v-63.26l5.06-3.02v63.34l-5.06 2.94zm9.29-5.22V99.74l5.06-3.1v63.42l-5.06 2.94zm9.46-11.25V88.49l5.05-3.26v63.59l-5.05 2.93z"/><path class="cls-54" d="M96.72 172.29l.01 18.16 17.94-10.55-.02-17.55-17.93 9.94z"/><path class="cls-22" d="M94.44 169.67l8.32 4.8 20.79-11.99-8.34-4.76-20.77 11.95z"/><path class="cls-18" d="M123.55 162.48v2.4l-20.78 11.99-.01-2.4 20.79-11.99z"/><path class="cls-24" d="M102.76 174.47l-8.32-4.8v2.4l8.33 4.8-.01-2.4z"/><path class="cls-25" d="M183.49 135.64c-.25.03-.5.1-.73.17v-.16c-.38-2.92-2.94-5-5.83-4.87-.9-3.16-3.98-5.29-7.34-4.86-1.06.14-2.01.53-2.84 1.08a5.62 5.62 0 0 0-5.6-2.79c-3.08.4-5.26 3.22-4.86 6.3s3.22 5.26 6.3 4.86c.54-.07 1.04-.24 1.51-.44 1.05 2.92 4.01 4.83 7.22 4.41.33-.04.65-.14.96-.22a5.621 5.621 0 0 0 5.62 2.83c.81-.1 1.56-.39 2.22-.79.64 1.8 2.47 2.98 4.44 2.73 2.28-.29 3.89-2.38 3.59-4.65s-2.38-3.89-4.65-3.59z"/><path class="cls-32" d="M166.17 128.6s-2.12 1.47-1.47 4.73m17.45 3.09s-3.1.16-2.12 3.59"/><path class="cls-25" d="M181.37 160.09c-.25.03-.5.1-.73.17v-.16c-.38-2.92-2.94-5-5.83-4.87-.9-3.16-3.98-5.29-7.34-4.86-1.06.14-2.01.53-2.84 1.08a5.62 5.62 0 0 0-5.6-2.79c-3.08.4-5.26 3.22-4.86 6.3s3.22 5.26 6.3 4.86c.54-.07 1.04-.24 1.51-.44 1.05 2.92 4.01 4.83 7.22 4.41.33-.04.65-.14.96-.22a5.621 5.621 0 0 0 5.62 2.83c.81-.1 1.56-.39 2.22-.79.64 1.8 2.47 2.98 4.44 2.73 2.28-.29 3.89-2.38 3.59-4.65s-2.38-3.89-4.65-3.59z"/><path class="cls-32" d="M164.05 153.05s-2.12 1.47-1.47 4.73m17.45 3.1s-3.1.16-2.12 3.59"/><ellipse class="cls-73" cx="45.08" cy="214.07" rx="8.74" ry="4.95"/><path class="cls-19" d="M36.05 194.25v21.52s.65 3.08 3.59.45v-21.25l-3.59-.72z"/><path class="cls-25" d="M48.65 185.47a8.072 8.072 0 0 0-2.66-2.02c-.09-1.7-.71-3.38-1.91-4.76-2.87-3.35-7.91-3.73-11.26-.86a7.935 7.935 0 0 0-2.71 5.04c-.89.32-1.74.8-2.51 1.45-3.35 2.87-3.73 7.91-.86 11.26 2.73 3.19 7.43 3.68 10.76 1.24a7.996 7.996 0 0 0 10.28-.09c3.35-2.87 3.73-7.91.86-11.26z"/><path class="cls-19" d="M76.64 217.24v21.52s.65 3.08 3.59.45v-21.25l-3.59-.72z"/><path class="cls-25" d="M89.24 208.46a8.072 8.072 0 0 0-2.66-2.02c-.09-1.7-.71-3.38-1.91-4.76-2.87-3.35-7.91-3.73-11.26-.86a7.935 7.935 0 0 0-2.71 5.04c-.89.32-1.74.8-2.51 1.45-3.35 2.87-3.73 7.91-.86 11.26 2.73 3.19 7.43 3.68 10.76 1.24a7.996 7.996 0 0 0 10.28-.09c3.35-2.87 3.73-7.91.86-11.26z"/><path class="cls-19" d="M120.17 241.7v21.52s.65 3.08 3.59.45v-21.25l-3.59-.72z"/><path class="cls-25" d="M132.77 232.92a8.072 8.072 0 0 0-2.66-2.02c-.09-1.7-.71-3.38-1.91-4.76-2.87-3.35-7.91-3.73-11.26-.86a7.935 7.935 0 0 0-2.71 5.04c-.89.32-1.74.8-2.51 1.45-3.35 2.87-3.73 7.91-.86 11.26 2.73 3.19 7.43 3.68 10.76 1.24a7.996 7.996 0 0 0 10.28-.09c3.35-2.87 3.73-7.91.86-11.26z"/><path class="cls-19" d="M362.28 358.1v21.52s.65 3.08 3.59.45v-21.25l-3.59-.72z"/><path class="cls-28" d="M377.04 355.31c-.17-4.16-2.22-6.79-4.82-8.01-.18-3.42-2.53-6.78-7.35-7.8-5.2.31-8.06 3.63-8.52 7.23-2.59.93-4.84 3.17-5.53 7.23v.01c.69 7.71 8.19 10.17 12.93 6.7 4.3 3.56 11.61 2 13.29-5.36z"/><path class="cls-19" d="M397.98 378.65v21.52s.65 3.08 3.59.45v-21.25l-3.59-.72z"/><path class="cls-13" d="M412.74 375.85c-.17-4.16-2.22-6.79-4.82-8.01-.18-3.42-2.53-6.78-7.35-7.8-5.2.31-8.06 3.63-8.52 7.23-2.59.93-4.84 3.17-5.53 7.23v.01c.69 7.71 8.19 10.17 12.93 6.7 4.3 3.56 11.61 2 13.29-5.36z"/><ellipse class="cls-73" cx="374.08" cy="403.03" rx="8.74" ry="4.95"/><path class="cls-19" d="M372.39 381.74v21.52s.65 3.08 3.59.45v-21.25l-3.59-.72z"/><path class="cls-25" d="M387.14 378.95c-.17-4.16-2.22-6.79-4.82-8.01-.18-3.42-2.53-6.78-7.35-7.8-5.2.31-8.06 3.63-8.52 7.23-2.59.93-4.84 3.17-5.53 7.23v.01c.69 7.71 8.19 10.17 12.93 6.7 4.3 3.56 11.61 2 13.29-5.36z"/><ellipse class="cls-73" cx="349.95" cy="393.41" rx="8.74" ry="4.95"/><path class="cls-19" d="M348.26 372.12v21.52s.65 3.08 3.59.45v-21.25l-3.59-.72z"/><path class="cls-25" d="M363.01 369.33c-.17-4.16-2.22-6.79-4.82-8.01-.18-3.42-2.53-6.78-7.35-7.8-5.2.31-8.06 3.63-8.52 7.23-2.59.93-4.84 3.17-5.53 7.23v.01c.69 7.71 8.19 10.17 12.93 6.7 4.3 3.56 11.61 2 13.29-5.36z"/><ellipse class="cls-73" cx="292.07" cy="367.65" rx="8.74" ry="4.95"/><path class="cls-19" d="M290.38 346.36v21.52s.65 3.08 3.59.45v-21.25l-3.59-.72z"/><path class="cls-25" d="M308.17 344.94c0-10.76-7.18-6.63-9.77-7.85-.18-3.42-2.53-6.78-7.35-7.8-5.2.31-8.06 3.63-8.52 7.23-2.59.93-2.92 1.64-3.61 5.7v.01c.69 7.71 8.19 10.17 12.93 6.7 4.3 3.56 14.64 3.37 16.33-3.99z"/><path class="cls-19" d="M317.65 332.67v21.52s-.65 3.08-3.59.45v-21.25l3.59-.72z"/><path class="cls-28" d="M305.05 323.89c.76-.88 1.67-1.55 2.66-2.02.09-1.7.71-3.38 1.91-4.76 2.87-3.35 7.91-3.73 11.26-.86a7.935 7.935 0 0 1 2.71 5.04c.89.32 1.74.8 2.51 1.45 3.35 2.87 3.73 7.91.86 11.26-2.73 3.19-7.43 3.68-10.76 1.24a7.996 7.996 0 0 1-10.28-.09c-3.35-2.87-3.73-7.91-.86-11.26z"/><path class="cls-24" d="M51.88 230.98c-.3.37-2.35 2.83-5.87 2.93-3.81.12-6.1-2.62-6.36-2.93v-19.07h12.23v19.07zm85.6 49.4c-.3.37-2.35 2.83-5.87 2.93-3.81.12-6.1-2.62-6.36-2.93v-19.07h12.23v19.07zm88.04 51.36c-.3.37-2.35 2.83-5.87 2.93-3.81.12-6.1-2.62-6.36-2.93v-19.07h12.23v19.07zm92.44 52.82c-.3.37-2.35 2.83-5.87 2.93-3.81.12-6.1-2.62-6.36-2.93v-19.07h12.23v19.07zm-97.83-84.26l23.81 14.35 179.33-105 84.78 49.57 19.89-12.72-107.6-60.65L220.13 300.3z"/><path class="cls-46" d="M243.12 299.05v26.28l.98.87 1.14-.44v-26.63l-1.14-.65-.98 1.52"/><path class="cls-16" d="M220.22 284.87l-.09 29.28.98.96 1.14-.48v-29.37l-1.14-.72-.98 1.67"/><path class="cls-50" d="M265.78 286.92v27.57l.98.95 1.14-.48v-28.98l-1.14-.71-.98 1.65"/><path class="cls-29" d="M288.45 273.78v28.61l.97.98 1.15-.49V272.8l-1.15-.73-.97 1.71"/><path class="cls-48" d="M311.11 260.46v26.67l.98.92 1.14-.46v-28.04l-1.14-.69-.98 1.6"/><path class="cls-3" d="M333.77 246.8v19.07l.98.66 1.14-.33v-20.05l-1.14-.49-.98 1.14"/><path class="cls-50" d="M356.43 234.1v27.57l.98.94 1.14-.47v-28.98l-1.14-.71-.98 1.65"/><path class="cls-43" d="M379.09 220.87v27.12l.98.93 1.14-.47v-28.51l-1.14-.69-.98 1.62"/><path class="cls-7" d="M401.75 207.71v27.86l.98.96 1.14-.48v-29.3l-1.14-.71-.98 1.67"/><path class="cls-40" d="M422.34 195.34v27.53l.98.94 1.14-.47V194.4l-1.14-.71-.98 1.65"/><path class="cls-42" d="M439.46 204.6v27.09l.97.92 1.15-.46v-28.47l-1.15-.7-.97 1.62"/><path class="cls-34" d="M456.57 213.85v26.34l.98.9 1.14-.45v-27.69l-1.14-.67-.98 1.57"/><path class="cls-53" d="M473.69 223.15v26.49l.98.91 1.14-.45v-27.85l-1.14-.68-.98 1.58"/><path class="cls-38" d="M490.81 232.47v26.94l.98.92 1.14-.46v-28.32l-1.14-.69-.98 1.61"/><path class="cls-3" d="M507.93 241.3v19.07l.98.65 1.14-.32v-20.06l-1.14-.49-.98 1.15"/><path class="cls-25" d="M562.36 132.72c.18.02.36.07.52.12v-.11c.27-2.09 2.1-3.57 4.16-3.48.65-2.26 2.84-3.78 5.25-3.47.75.1 1.43.38 2.03.77.78-1.37 2.34-2.2 4-1.99 2.2.28 3.76 2.3 3.47 4.5s-2.3 3.76-4.5 3.47c-.38-.05-.74-.17-1.08-.32a4.819 4.819 0 0 1-5.16 3.15c-.24-.03-.46-.1-.69-.16a4 4 0 0 1-4.01 2.02c-.58-.07-1.11-.28-1.58-.57a2.967 2.967 0 0 1-3.17 1.95c-1.63-.21-2.78-1.7-2.57-3.32s1.7-2.78 3.32-2.57z"/><path class="cls-32" d="M574.73 127.69s1.51 1.05 1.05 3.38m-12.05 2.46s.79.37.79 1.96"/><path class="cls-1" d="M508.83 97.46l13.08 7.34.12-15.78-13.2 8.44z"/><path class="cls-24" d="M511.03 98.19l10.92-6.8.08-2.61-13.2 8.44 2.2.97z"/><path class="cls-54" d="M589.45 128.76l-22.6-11.68 2.22-1.2 22.97 11.41-2.59 1.47z"/><path class="cls-24" d="M570.94 114.82l22.75 11.74-1.59.98-23.03-11.66 1.87-1.06z"/><path class="cls-49" d="M580.64 31.8c-.25.03-.5.1-.73.17v-.16c-.38-2.92-2.94-5-5.83-4.87-.9-3.16-3.98-5.29-7.34-4.86-1.06.14-2.01.53-2.84 1.08a5.62 5.62 0 0 0-5.6-2.79c-3.08.4-5.26 3.22-4.86 6.3.4 3.08 3.22 5.26 6.3 4.86.54-.07 1.04-.24 1.51-.44 1.05 2.92 4.01 4.83 7.22 4.41.33-.04.65-.14.96-.22a5.621 5.621 0 0 0 5.62 2.83c.81-.1 1.56-.39 2.22-.79.64 1.8 2.47 2.98 4.44 2.73a4.147 4.147 0 0 0 3.59-4.65 4.147 4.147 0 0 0-4.65-3.59z"/><path class="cls-12" d="M563.31 24.76s-2.12 1.47-1.47 4.73m17.45 3.1s-3.1.16-2.12 3.59"/><path class="cls-19" d="M454.33 68.13v21.52s.65 3.08 3.59.45V68.85l-3.59-.72z"/><path class="cls-25" d="M465.03 58.81c-.8-5.02-5.13-8.85-10.37-8.85-5.81 0-10.51 4.71-10.51 10.51 0 .44.03.86.09 1.29-3.49 1.43-5.96 4.86-5.96 8.87 0 5.29 4.29 9.59 9.59 9.59s9.59-4.29 9.59-9.59v-.03c.11-.03.22-.05.33-.09.75.23 1.55.36 2.38.36 4.12 0 7.46-3.07 7.46-6.87 0-2.08-1.01-3.94-2.59-5.2z"/><circle class="cls-47" cx="287.61" cy="85.15" r="7.98"/><circle class="cls-47" cx="280.6" cy="88.55" r="4.82"/><path class="cls-24" d="M293.68 94.46l2.89-1.16V81.13l-3.89-1.8m89.84 66.19l2.88-1.16v-12.17l-3.88-1.8"/><path class="cls-75" d="M333.54 117.47l-11.21-6.48-.07-13.5-28.85-16.36.27 13.33-4.18-2.42V26.65l44.02 25.44.02 65.38z"/><path class="cls-15" d="M333.54 117.47l-11.21-6.48-.07-13.5-28.85-16.36.27 13.33-4.18-2.42V26.65l44.02 25.44.02 65.38z"/><path class="cls-56" d="M295.79 73.87v-7.26l6.29 3.63v7.26l-6.29-3.63z"/><path class="cls-15" d="M295.79 73.87v-7.26l6.29 3.63v7.26l-6.29-3.63z"/><path class="cls-56" d="M308.38 81.14v-7.27l6.29 3.63v7.27l-6.29-3.63z"/><path class="cls-15" d="M308.38 81.14v-7.27l6.29 3.63v7.27l-6.29-3.63z"/><path class="cls-56" d="M295.79 59.35v-7.26l6.29 3.63v7.26l-6.29-3.63z"/><path class="cls-15" d="M295.79 59.35v-7.26l6.29 3.63v7.26l-6.29-3.63z"/><path class="cls-56" d="M308.38 66.62v-7.27l6.29 3.63v7.27l-6.29-3.63z"/><path class="cls-15" d="M308.38 66.62v-7.27l6.29 3.63v7.27l-6.29-3.63z"/><path class="cls-56" d="M295.79 44.83v-7.26l6.29 3.63v7.27l-6.29-3.64z"/><path class="cls-15" d="M295.79 44.83v-7.26l6.29 3.63v7.27l-6.29-3.64z"/><path class="cls-56" d="M308.38 52.1v-7.27l6.29 3.64v7.26l-6.29-3.63z"/><path class="cls-15" d="M308.38 52.1v-7.27l6.29 3.64v7.26l-6.29-3.63z"/><path class="cls-56" d="M320.96 88.4v-7.27l6.29 3.63v7.27l-6.29-3.63z"/><path class="cls-15" d="M320.96 88.4v-7.27l6.29 3.63v7.27l-6.29-3.63z"/><path class="cls-56" d="M320.96 73.88v-7.27l6.29 3.63v7.27l-6.29-3.63z"/><path class="cls-15" d="M320.96 73.88v-7.27l6.29 3.63v7.27l-6.29-3.63z"/><path class="cls-56" d="M320.96 59.36v-7.27l6.29 3.64v7.26l-6.29-3.63z"/><path class="cls-15" d="M320.96 59.36v-7.27l6.29 3.64v7.26l-6.29-3.63z"/><path class="cls-75" d="M371.27 30.3L327.24 4.88 289.5 26.67l44.02 25.43 37.75-21.8z"/><path class="cls-15" d="M371.27 30.3L327.24 4.88 289.5 26.67l44.02 25.43 37.75-21.8z"/><path class="cls-57" d="M327.24 8.52l-31.45 18.16 37.75 21.78 31.44-18.16-37.74-21.78z"/><path class="cls-15" d="M327.24 8.52l-31.45 18.16 37.75 21.78 31.44-18.16-37.74-21.78z"/><path class="cls-71" d="M327.24 8.52v3.62l34.62 19.99 3.12-1.83-37.74-21.78z"/><path class="cls-15" d="M327.24 8.52v3.62l34.62 19.99 3.12-1.83-37.74-21.78z"/><path class="cls-71" d="M295.79 26.68l31.45-18.16v3.62l-28.32 16.35-3.13-1.81z"/><path class="cls-15" d="M295.79 26.68l31.45-18.16v3.62l-28.32 16.35-3.13-1.81z"/><path class="cls-52" d="M302.72 25.63l3.75-8.45 14.82 8.44-3.75 7.96-14.82-7.95z"/><path class="cls-37" d="M309.82 29.15l3.93-7.99m-.28 10.46l4.17-8.07m-11.61 3.55l3.79-7.72m9.41 10.6l-14.7-8.42"/><path class="cls-52" d="M319.59 35.34l3.75-8.45 14.82 8.44-3.75 7.96-14.82-7.95z"/><path class="cls-37" d="M326.69 38.86l3.94-7.99m-.28 10.46l4.17-8.07m-11.62 3.55l3.79-7.72m9.41 10.6l-14.7-8.42"/><path class="cls-52" d="M316.33 18.66l3.75-8.45 14.82 8.44-3.75 7.95-14.82-7.94z"/><path class="cls-37" d="M323.44 22.18l3.93-7.99m-.28 10.46l4.17-8.08m-11.62 3.56l3.8-7.72m9.4 10.6l-14.7-8.42"/><path class="cls-71" d="M327.24 121.1l44.04 25.43-.01-95.33-44.04-25.39.01 95.29z"/><path class="cls-15" d="M327.24 121.1l44.04 25.43-.01-95.33-44.04-25.39.01 95.29z"/><path class="cls-72" d="M333.53 124.74v-18.16l31.45 18.14v18.18l-31.45-18.15z"/><path class="cls-15" d="M333.53 124.74v-18.16l31.45 18.14v18.18l-31.45-18.15z"/><path class="cls-77" d="M334.49 103.09l31.04 17.76V97.97l-31.04-17.76v22.88z"/><path class="cls-15" d="M334.49 103.09l31.04 17.76V97.97l-31.04-17.76v22.88z"/><path class="cls-22" d="M342.3 84.77v22.79m12.8-15.78v22.79m-20.43-22.54l30.86 17.15"/><path class="cls-75" d="M351.79 149.82l.61.34.96-.56v-17.92l-.96.58v.29"/><path class="cls-15" d="M351.79 149.82l.61.34.96-.56v-17.92l-.96.58v.29"/><path class="cls-75" d="M352.4 150.16l-.95-.56v-17.92l.95.58"/><path class="cls-15" d="M352.4 150.16l-.95-.56v-17.92l.95.58"/><path class="cls-75" d="M321.67 132.69l1.19-.69v-17.93l-.96.59"/><path class="cls-15" d="M321.67 132.69l1.19-.69v-17.93l-.96.59"/><path class="cls-75" d="M321.9 132.55l-.95-.55v-17.93l1.43.3"/><path class="cls-15" d="M321.9 132.55l-.95-.55v-17.93l1.43.3"/><path class="cls-75" d="M421.61 168.31l-5.14-2.96.07-14.5-33.94-19.17-.5 13.83-4.54-2.62V77.5l44.03 25.44.02 65.37z"/><path class="cls-15" d="M421.61 168.31l-5.14-2.96.07-14.5-33.94-19.17-.5 13.83-4.54-2.62V77.5l44.03 25.44.02 65.37z"/><path class="cls-56" d="M383.86 124.73v-7.27l6.29 3.63v7.27l-6.29-3.63z"/><path class="cls-15" d="M383.86 124.73v-7.27l6.29 3.63v7.27l-6.29-3.63z"/><path class="cls-56" d="M396.44 131.99v-7.26l6.29 3.63v7.26l-6.29-3.63z"/><path class="cls-15" d="M396.44 131.99v-7.26l6.29 3.63v7.26l-6.29-3.63z"/><path class="cls-56" d="M383.86 110.21v-7.27l6.29 3.63v7.27l-6.29-3.63z"/><path class="cls-15" d="M383.86 110.21v-7.27l6.29 3.63v7.27l-6.29-3.63z"/><path class="cls-56" d="M396.44 117.47v-7.26l6.29 3.63v7.26l-6.29-3.63z"/><path class="cls-15" d="M396.44 117.47v-7.26l6.29 3.63v7.26l-6.29-3.63z"/><path class="cls-56" d="M383.86 95.69v-7.27l6.29 3.63v7.27l-6.29-3.63z"/><path class="cls-15" d="M383.86 95.69v-7.27l6.29 3.63v7.27l-6.29-3.63z"/><path class="cls-56" d="M396.44 102.95v-7.26l6.29 3.63v7.26l-6.29-3.63z"/><path class="cls-15" d="M396.44 102.95v-7.26l6.29 3.63v7.26l-6.29-3.63z"/><path class="cls-56" d="M409.02 139.25v-7.27l6.29 3.64v7.26l-6.29-3.63z"/><path class="cls-15" d="M409.02 139.25v-7.27l6.29 3.64v7.26l-6.29-3.63z"/><path class="cls-56" d="M409.02 124.73v-7.26l6.29 3.63v7.26l-6.29-3.63z"/><path class="cls-15" d="M409.02 124.73v-7.26l6.29 3.63v7.26l-6.29-3.63z"/><path class="cls-56" d="M409.02 110.21v-7.26l6.29 3.63v7.26l-6.29-3.63z"/><path class="cls-15" d="M409.02 110.21v-7.26l6.29 3.63v7.26l-6.29-3.63z"/><path class="cls-71" d="M421.61 168.31l4.2-2.42.15-14.41 30.08-14.62.16 11.47 3.14-1.82-.52-65.68-37.23 22.11.02 65.37z"/><path class="cls-15" d="M421.61 168.31l4.2-2.42.15-14.41 30.08-14.62.16 11.47 3.14-1.82-.52-65.68-37.23 22.11.02 65.37z"/><path class="cls-75" d="M458.64 80.73l-43.33-25.02-37.75 21.79 44.03 25.44 37.05-22.21z"/><path class="cls-15" d="M458.64 80.73l-43.33-25.02-37.75 21.79 44.03 25.44 37.05-22.21z"/><path class="cls-57" d="M415.31 59.36l-31.45 18.16 37.75 21.77 31.44-18.16-37.74-21.77z"/><path class="cls-15" d="M415.31 59.36l-31.45 18.16 37.75 21.77 31.44-18.16-37.74-21.77z"/><path class="cls-71" d="M415.31 59.36v3.62l34.62 19.98 3.12-1.83-37.74-21.77z"/><path class="cls-15" d="M415.31 59.36v3.62l34.62 19.98 3.12-1.83-37.74-21.77z"/><path class="cls-71" d="M383.86 77.52l31.45-18.16v3.62l-28.32 16.34-3.13-1.8z"/><path class="cls-15" d="M383.86 77.52l31.45-18.16v3.62l-28.32 16.34-3.13-1.8z"/><path class="cls-55" d="M371.27 51.24l44.04-25.4v29.87L377.56 77.5v65.39l-6.28 3.64-.01-95.29z"/><path class="cls-15" d="M371.27 51.24l44.04-25.4v29.87L377.56 77.5v65.39l-6.28 3.64-.01-95.29z"/><path class="cls-71" d="M327.23 25.71L371.27.28l44.04 25.43-44.04 25.4-44.04-25.4z"/><path class="cls-15" d="M327.23 25.71L371.27.28l44.04 25.43-44.04 25.4-44.04-25.4z"/><path class="cls-57" d="M371.27 47.5l37.75-21.8-37.75-21.78-37.73 21.8 37.73 21.78z"/><path class="cls-15" d="M371.27 47.5l37.75-21.8-37.75-21.78-37.73 21.8 37.73 21.78z"/><path class="cls-72" d="M371.27 7.56l34.64 19.98 3.11-1.84-37.75-21.78v3.64z"/><path class="cls-15" d="M371.27 7.56l34.64 19.98 3.11-1.84-37.75-21.78v3.64z"/><path class="cls-72" d="M333.54 25.72l37.73-21.8v3.64l-34.56 19.98-3.17-1.82z"/><path class="cls-15" d="M333.54 25.72l37.73-21.8v3.64l-34.56 19.98-3.17-1.82z"/><path class="cls-75" d="M320.95 113.84v3.63l31.42 18.14.03-3.63-31.45-18.14z"/><path class="cls-15" d="M320.95 113.84v3.63l31.42 18.14.03-3.63-31.45-18.14z"/><path class="cls-57" d="M364.99 124.72l-12.59 7.26-31.45-18.14 12.62-7.2 31.42 18.08z"/><path class="cls-15" d="M364.99 124.72l-12.59 7.26-31.45-18.14 12.62-7.2 31.42 18.08z"/><path class="cls-55" d="M352.4 131.98l12.33-7.04v3.76l-12.26 6.91-.07-3.63z"/><path class="cls-15" d="M352.4 131.98l12.33-7.04v3.76l-12.26 6.91-.07-3.63z"/><path class="cls-52" d="M355.4 17.42l3.96-8.93 15.66 8.92-3.96 8.41-15.66-8.4zm7.51 3.72l4.15-8.44m-.3 11.05l4.41-8.53m-12.27 3.75l4.01-8.16m9.94 11.21l-15.54-8.91m15.92 14.57l3.97-8.93 15.66 8.92-3.96 8.41-15.67-8.4zm7.51 3.72l4.16-8.44m-.3 11.05l4.41-8.53m-12.28 3.75l4.01-8.16m9.95 11.21l-15.55-8.91m-35.15 2.85l3.97-8.93 15.66 8.92-3.97 8.41-15.66-8.4zm7.51 3.72l4.16-8.44m-.3 11.05l4.4-8.53m-12.27 3.76l4.01-8.17m9.94 11.21l-15.54-8.9m15.93 14.56l3.96-8.93 15.66 8.92-3.96 8.41-15.66-8.4zm7.5 3.72l4.16-8.44m-.3 11.06l4.41-8.54m-12.27 3.76l4-8.16m9.95 11.2l-15.54-8.9m10.05-22.13l3.96-8.93 15.66 8.92-3.96 8.41-15.66-8.4zm7.51 3.72l4.15-8.44m-.3 11.05l4.41-8.53m-12.27 3.75l4.01-8.16m9.94 11.21L371.7 5.74m15.92 14.57l3.97-8.93 15.66 8.92-3.96 8.41-15.67-8.4zm7.51 3.72l4.16-8.44m-.3 11.05l4.41-8.53m-12.28 3.75l4.01-8.16m9.95 11.21L389.53 16m2.71 61.51l3.75-8.45 14.82 8.44-3.75 7.96-14.82-7.95zm7.1 3.52l3.94-7.99M403 83.5l4.17-8.07m-11.62 3.55l3.79-7.72m9.41 10.6l-14.7-8.42m15.07 13.78l3.75-8.45 14.81 8.44-3.75 7.95-14.81-7.94zm7.1 3.52l3.93-7.99m-.28 10.46l4.17-8.08m-11.61 3.56l3.79-7.72m9.41 10.6l-14.71-8.42m-5.06-12.61l3.75-8.45 14.81 8.44-3.74 7.95-14.82-7.94zm7.1 3.52l3.93-7.99m-.28 10.46l4.17-8.08m-11.61 3.56l3.79-7.72m9.41 10.6l-14.7-8.43m15.06 13.79l3.75-8.45 14.82 8.44-3.75 7.95-14.82-7.94zm7.1 3.51l3.94-7.98m-.29 10.46l4.17-8.08m-11.61 3.56l3.79-7.73m9.41 10.61l-14.7-8.43"/><path class="cls-19" d="M272.24 58.87v21.52s.96 2.27 3.59.45V59.59l-3.59-.72z"/><path class="cls-25" d="M285.88 51.93a8.072 8.072 0 0 0-2.66-2.02c-.09-1.7-.71-3.38-1.91-4.76-2.87-3.35-7.91-3.73-11.26-.86a7.935 7.935 0 0 0-2.71 5.04c-.89.32-1.74.8-2.51 1.45-3.35 2.87-3.73 7.91-.86 11.26 2.73 3.19 7.43 3.68 10.76 1.24a7.996 7.996 0 0 0 10.28-.09c3.35-2.87 3.73-7.91.86-11.26zm33.74 49.96c-.18 0-.35.04-.53.05.07-.47.12-.94.12-1.43 0-5.32-4.31-9.63-9.63-9.63a9.6 9.6 0 0 0-7.94 4.19 5.019 5.019 0 0 0-3.2-1.16c-.65 0-1.27.13-1.85.36-.3-2.07-2.06-3.66-4.2-3.66-2.36 0-4.26 1.91-4.26 4.26s30.75 16.92 33.56 16.92c3.27 0 3.85-.72 3.85-3.99s-2.65-5.92-5.92-5.92zm67.48 39.16c.1.15.16.31.25.47.35-.32.72-.62 1.13-.89 4.43-2.94 10.41-1.73 13.35 2.71a9.612 9.612 0 0 1 .9 8.93c.71-1.81 4.92-3.13 5.6 2.16.02.14 1.1-1.25 2.41-1.65 4.4-1.47 11.03 6.67 11.92 9.35.74 2.23 1.38 4.54-.58 5.84s-42.81-20.83-44.37-23.18c-1.8-2.72-1.53-3.61 1.2-5.41s6.39-1.06 8.2 1.66z"/><path class="cls-5" d="M444.7 97.48l-10.31 22.84 5.57-1.95-5.85 21.17 14.21-27.02-6.13 1.67 2.51-16.71z"/><path class="cls-41" d="M444.7 97.48l-2.51 16.71 6.13-1.67-14.21 27.02 5.85-21.17-5.57 1.95 10.31-22.84m0-1.55c-.59 0-1.15.34-1.41.91l-10.31 22.84c-.25.56-.15 1.22.27 1.68a1.524 1.524 0 0 0 1.65.41l2.78-.97-5.06 18.32a1.551 1.551 0 0 0 1.49 1.96c.56 0 1.09-.3 1.37-.83l14.21-27.02c.29-.54.22-1.21-.16-1.69-.3-.37-.74-.58-1.21-.58-.14 0-.27.02-.41.05l-3.84 1.05 2.16-14.37a1.55 1.55 0 0 0-1.09-1.71c-.15-.04-.29-.06-.44-.06z"/><path class="cls-74" d="M444.64 98.01l-9.8 22.21 5.25-1.87-5.6 20.61 13.49-26.27-5.77 1.6 2.43-16.28z"/><path class="cls-65" d="M444.64 98.01l-2.44 16.28 5.77-1.6-13.49 26.27 5.6-20.61-5.25 1.87 9.8-22.22m0-1.51c-.56 0-1.09.33-1.33.88l-9.8 22.22c-.24.55-.45.97-.06 1.42.28.32.67.49 1.07.49.16 0 .32-.03.48-.08l2.92-.94-4.85 18.06c-.2.74-.03 1.54.66 1.83.17.07.47.24.65.24.53 0 1.11-.45 1.37-.95l13.49-26.27c.27-.53.21-1.18-.14-1.65-.28-.36-1.11-.18-1.54-.18-.13 0-.26.02-.38.05l-3.62 1 2.51-14.39c.11-.74-.32-1.46-1.02-1.67-.14-.04-.27-.06-.41-.06z"/><path class="cls-2" d="M456.2 148.33l-3.5-1.47v-8.4l3.34-1.6.16 11.47z"/><circle class="cls-4" cx="146.16" cy="218.15" r="2.57"/><path class="cls-44" d="M150.68 237.34l-4.16-3.42-4.4 3.42v-10.15c0-2.36 1.92-4.28 4.28-4.28 2.36 0 4.28 1.92 4.28 4.28v10.15z"/><circle class="cls-4" cx="357.69" cy="286.13" r="2.57"/><path class="cls-4" d="M362.22 305.33l-4.48-3.1-4.08 3.1v-10.15c0-2.36 1.92-4.28 4.28-4.28 2.36 0 4.28 1.92 4.28 4.28v10.15z"/><circle class="cls-4" cx="357.69" cy="151.38" r="2.57"/><path class="cls-4" d="M362.22 170.58l-4.32-4.48-4.24 4.48v-10.15c0-2.36 1.92-4.28 4.28-4.28 2.36 0 4.28 1.92 4.28 4.28v10.15z"/><path class="cls-23" d="M364.26 163.98l-3.43 2.12-3.26-1.63v-6.52l3.26 1.95 3.43-2.44v6.52z"/><rect class="cls-51" x="268.72" y="191.53" width="6.85" height="8.31" rx="2.04" ry="2.04"/><circle class="cls-4" cx="268.68" cy="187.33" r="2.57"/><path class="cls-4" d="M273.2 206.53l-4.4-3.91-4.16 3.91v-10.15c0-2.36 1.92-4.28 4.28-4.28 2.36 0 4.28 1.92 4.28 4.28v10.15z"/><circle class="cls-4" cx="247.89" cy="192.59" r="2.57"/><path class="cls-4" d="M252.42 211.79l-4.4-3.91-4.16 3.91v-10.15c0-2.36 1.92-4.28 4.28-4.28 2.36 0 4.28 1.92 4.28 4.28v10.15z"/><circle class="cls-4" cx="463.1" cy="279" r="2.57"/><path class="cls-4" d="M467.62 298.19l-4.4-3.91-4.16 3.91v-10.15c0-2.36 1.92-4.28 4.28-4.28 2.36 0 4.28 1.92 4.28 4.28v10.15z"/><circle class="cls-4" cx="483.31" cy="312.91" r="2.57"/><path class="cls-4" d="M487.84 332.11l-4.4-3.91-4.16 3.91v-10.15c0-2.36 1.92-4.28 4.28-4.28 2.36 0 4.28 1.92 4.28 4.28v10.15z"/><circle class="cls-4" cx="467.99" cy="334.43" r="2.57"/><path class="cls-4" d="M472.51 353.63l-4.4-3.91-4.16 3.91v-10.15c0-2.36 1.92-4.28 4.28-4.28 2.36 0 4.28 1.92 4.28 4.28v10.15z"/><circle class="cls-4" cx="497.99" cy="318.45" r="2.57"/><path class="cls-4" d="M502.51 337.65l-4.4-3.91-4.16 3.91V327.5c0-2.36 1.92-4.28 4.28-4.28 2.36 0 4.28 1.92 4.28 4.28v10.15z"/><circle class="cls-4" cx="230.41" cy="204.82" r="2.57"/><path class="cls-4" d="M234.93 224.01l-4.4-3.91-4.16 3.91v-10.15c0-2.36 1.92-4.28 4.28-4.28 2.36 0 4.28 1.92 4.28 4.28v10.15z"/><circle class="cls-4" cx="215.98" cy="190.02" r="2.57"/><path class="cls-4" d="M220.5 209.22l-4.4-3.91-4.16 3.91v-10.15c0-2.36 1.92-4.28 4.28-4.28 2.36 0 4.28 1.92 4.28 4.28v10.15z"/><circle class="cls-4" cx="281.15" cy="174.13" r="2.57"/><path class="cls-4" d="M285.67 193.32l-4.52-3.79-4.04 3.79v-10.15c0-2.36 1.92-4.28 4.28-4.28 2.36 0 4.28 1.92 4.28 4.28v10.15z"/><path class="cls-45" d="M497.66 98.09c.1-.75.17-1.52.17-2.3 0-9.51-7.71-17.22-17.22-17.22s-17.22 7.71-17.22 17.22c0 .35.03.68.05 1.02-3.39 2.32-5.62 6.21-5.62 10.63 0 7.11 5.76 12.87 12.87 12.87 5.15 0 9.57-3.03 11.63-7.39 3.13-.31 6-1.47 8.41-3.23 1.34 2 3.62 3.32 6.21 3.32 4.13 0 7.48-3.35 7.48-7.48 0-3.89-2.98-7.09-6.78-7.44z"/><path class="cls-19" d="M484 123.09v21.52s.65 3.08 3.59.45v-21.25l-3.59-.72z"/><path class="cls-45" d="M494.7 113.78c-.8-5.02-5.13-8.85-10.37-8.85-5.81 0-10.51 4.71-10.51 10.51 0 .44.03.86.09 1.29-3.49 1.43-5.96 4.86-5.96 8.87 0 5.29 4.29 9.59 9.59 9.59s9.59-4.29 9.59-9.59v-.03c.11-.03.22-.05.33-.09.75.23 1.55.36 2.38.36 4.12 0 7.46-3.07 7.46-6.87 0-2.08-1.01-3.94-2.59-5.2z"/><path class="cls-59" d="M446.53 178.01l5.01-2.72c3.93 3.89 7.87 7.78 11.8 11.68-1.47.98-.98.49-3.06 1.22-5.1-2.69-8.64-4.56-13.74-7.26-1.17-.62-1.18-2.29-.02-2.92z"/><path class="cls-8" d="M477.65 178.28l-14.27 8.36-12.47-7.58v-25.19s11.45-6.52 15.61-8.23 11.37 4.52 11.13 16.51c-.24 11.98.37 15.77 0 16.14z"/><path class="cls-15" d="M451.48 153.58s11 .24 11.25 10.76c.19 8.31.37 22.25.37 22.25"/><path class="cls-52" d="M466.15 163s-1.1-5.14-4.28-7.46l8.8-5.01s4.04 2.08 3.91 8.07l-8.44 4.4zm-7.82 7.7c0 1.86-2.02 3.55-3.61 3.55s-2.87-1.51-2.87-3.36 1.29-3.36 2.87-3.36 3.61 1.32 3.61 3.18zm2.2 6.87c.13 1.54-1.07 2.79-2.38 2.79s-2.38-1.25-2.38-2.79 1.31-2.03 2.38-2.79c1.18-.83 2.12-.36 2.38 2.79z"/><path class="cls-30" d="M458.08 183.3v-5.38m-3.54 3.14V170.7"/><path class="cls-19" d="M339.64 267.94v21.52s.65 3.08 3.59.45v-21.25l-3.59-.72z"/><path class="cls-28" d="M352.7 262.77c-.8-5.02-5.13-8.85-10.37-8.85-5.81 0-10.51 4.71-10.51 10.51 0 .44.03.86.09 1.29-3.49 1.43-5.96 4.86-5.96 8.87 0 5.29 4.29 9.59 9.59 9.59s9.59-4.29 9.59-9.59v-.03c.11-.03.22-.05.33-.09.75.23 1.55.36 2.38.36 4.12 0 7.46-3.07 7.46-6.87 0-2.08-1.01-3.94-2.59-5.2z"/><path class="cls-19" d="M334.42 342.85v21.52s-.65 3.08-3.59.45v-21.25l3.59-.72z"/><path class="cls-45" d="M345.69 335.33c.16-.84.25-1.71.25-2.6 0-7.77-6.3-14.07-14.07-14.07s-14.07 6.3-14.07 14.07 6.3 14.07 14.07 14.07c1.5 0 2.95-.24 4.31-.68 1.13 3.21 4.18 5.51 7.77 5.51a8.241 8.241 0 0 0 1.73-16.3z"/><rect class="cls-51" x="373.92" y="295.46" width="6.85" height="8.31" rx="2.04" ry="2.04"/><circle class="cls-4" cx="372.86" cy="289.55" r="2.57"/><path class="cls-4" d="M377.38 308.75l-4.48-3.42-4.08 3.42V298.6c0-2.36 1.92-4.28 4.28-4.28 2.36 0 4.28 1.92 4.28 4.28v10.15z"/><circle class="cls-27" cx="248.15" cy="291.07" r="1.76"/><path class="cls-27" d="M251.25 304.23l-2.93-2.45-2.93 2.45v-6.96c0-1.62 1.31-2.93 2.93-2.93s2.93 1.31 2.93 2.93v6.96z"/><path class="cls-24" d="M215.8 49.95l-48.98 28.11-2.92-1.74 52.15-29.72-.25 3.35z"/><path class="cls-11" d="M335.21 358.69c-.16-1.44-.7-2.86-1.64-4.1-2.79-3.66-8.02-4.38-11.68-1.59s-4.38 8.02-1.59 11.68c2.67 3.51 7.57 4.3 11.2 1.92.32.04.64.08.98.08 3.06 0 5.54-1.92 5.54-4.28 0-1.59-1.14-2.97-2.81-3.71zm91.95 26.74c-.16-1.44-.7-2.86-1.64-4.1-2.79-3.66-8.02-4.38-11.68-1.59s-4.38 8.02-1.59 11.68c2.67 3.51 7.57 4.3 11.2 1.92.32.04.64.08.98.08 3.06 0 5.54-1.92 5.54-4.28 0-1.59-1.14-2.97-2.81-3.71z"/><path class="cls-59" d="M207.01 64.04c4.91 0 8.89-1.86 8.89-4.16s-3.98-4.16-8.89-4.16-8.89 1.86-8.89 4.16 3.98 4.16 8.89 4.16zm-27.47 17.28c4.5 0 8.15-1.86 8.15-4.16S184.04 73 179.54 73s-8.15 1.86-8.15 4.16 3.65 4.16 8.15 4.16z"/><path class="cls-25" d="M188.6 68.7c0-4.24-3.44-7.68-7.68-7.68-3.65 0-6.69 2.54-7.48 5.95-1.39 1.22-2.28 2.98-2.28 4.97 0 3.67 2.98 6.65 6.65 6.65 2.09 0 3.94-.99 5.16-2.5 3.24-.9 5.63-3.87 5.63-7.4z"/><circle class="cls-27" cx="275.21" cy="277.86" r="1.76"/><path class="cls-27" d="M278.32 291.02l-2.77-2.29-3.1 2.29v-6.96c0-1.62 1.31-2.93 2.93-2.93s2.93 1.31 2.93 2.93v6.96z"/><circle class="cls-27" cx="411.86" cy="197.65" r="1.76"/><path class="cls-27" d="M414.59 210.08l-3.22-2.13-2.65 2.13v-6.96c0-1.62 1.31-2.93 2.93-2.93s2.93 1.31 2.93 2.93v6.96z"/><circle class="cls-27" cx="452" cy="205.28" r="1.76"/><path class="cls-27" d="M455.11 218.44l-2.81-2.57-3.06 2.57v-6.96c0-1.62 1.31-2.93 2.93-2.93s2.93 1.31 2.93 2.93v6.96z"/><circle class="cls-27" cx="260.56" cy="281.08" r="1.76"/><path class="cls-27" d="M263.66 294.25l-2.77-1.96-3.1 1.96v-6.96c0-1.62 1.31-2.93 2.93-2.93s2.93 1.31 2.93 2.93v6.96z"/><path class="cls-18" d="M220.13 285.11l23.81 14.35 179.33-105 84.78 49.57 20.22-12.39-110.21-61.47-197.93 114.94z"/><path class="cls-3" d="M245.08 297.75l.16 1.22-1.3.49-23.81-14.35-.12-1.3 1.1-.61 23.97 14.55zm22.25-13.21l.17 1.22-1.31.49-23.8-14.34-.12-1.31 1.1-.61 23.96 14.55zm22.26-13.2l.16 1.22-1.3.49-23.81-14.35-.12-1.3 1.1-.62 23.97 14.56zm23.31-13.54l.16 1.23-1.3.49-23.8-14.35-.13-1.31 1.11-.61 23.96 14.55zm22.83-12.88l.16 1.23-1.31.49-23.8-14.35-.12-1.31 1.1-.61 23.97 14.55zm22.33-13.2l.16 1.22-1.3.49-23.8-14.35-.12-1.3 1.1-.61 23.96 14.55zm22.83-13.21l.16 1.22-1.31.49-23.8-14.34-.12-1.31 1.1-.61 23.97 14.55zm22.66-13.37l.16 1.23-1.3.49-23.81-14.35-.12-1.31 1.1-.61 23.97 14.55zm20.05-11.73l.16 1.22-1.3.49-23.8-14.35-.13-1.3 1.11-.62 23.96 14.56z"/><path class="cls-3" d="M422.83 193.65l-.17 1.22 1.31.49 16.99-12.23.13-1.3-1.1-.61-17.16 12.43zm16.87 9.78l-.16 1.22 1.3.49 17-12.22.12-1.31-1.1-.61-17.16 12.43zm17.24 9.54l-.16 1.22 1.3.49 17-12.23.12-1.3-1.1-.61-17.16 12.43zM474.43 223l-.17 1.22 1.31.49 16.99-12.23.13-1.3-1.1-.62L474.43 223zm16.99 9.9l-.16 1.22 1.3.49 17-12.23.12-1.3-1.1-.61-17.16 12.43z"/><path class="cls-19" d="M300.43 275.72v21.52s.65 3.08 3.59.45v-21.25l-3.59-.72z"/><path class="cls-25" d="M311.12 266.41c-.8-5.02-5.13-8.85-10.37-8.85-5.81 0-10.51 4.71-10.51 10.51 0 .44.03.86.09 1.29-3.49 1.43-5.96 4.86-5.96 8.87 0 5.29 4.29 9.59 9.59 9.59s9.59-4.29 9.59-9.59v-.03c.11-.03.22-.05.33-.09.75.23 1.55.36 2.38.36 4.12 0 7.46-3.07 7.46-6.87 0-2.08-1.01-3.94-2.59-5.2z"/><path class="cls-54" d="M4.07 207.51l377.1 217.65 17.98-10.76.06-3.79L22.54 197.73l-18.47 6.11v3.67z"/><path class="cls-52" d="M4.07 203.59l377.1 217.65 17.98-10.76L22.54 193.81l-18.47 9.78z"/><path class="cls-52" d="M8.31 205.92l18.26-9.74m-12.2 13.23c.1-.06 18.16-9.7 18.25-9.76m-12.2 13.25c.2-.12 18.05-9.65 18.25-9.77m-12.2 13.27c.29-.17 17.95-9.61 18.24-9.78m-12.19 13.27c.39-.23 17.85-9.57 18.24-9.8m-12.19 13.29c.49-.29 17.74-9.52 18.24-9.81m-12.18 13.3c.59-.35 17.64-9.48 18.23-9.83m-12.18 13.33c.69-.41 17.54-9.44 18.23-9.84m-12.18 13.33c.79-.46 17.44-9.39 18.22-9.86m-12.17 13.35c.88-.52 17.33-9.35 18.22-9.87m-12.17 13.36c.98-.58 17.23-9.3 18.21-9.88m-12.15 13.38c1.08-.64 17.13-9.26 18.21-9.9m-12.16 13.39c1.18-.7 17.02-9.22 18.2-9.91m-12.15 13.4c1.28-.75 16.92-9.17 18.2-9.93m-12.15 13.42c1.37-.81 16.82-9.13 18.19-9.94m-12.14 13.44c1.47-.87 16.71-9.09 18.19-9.95m-12.13 13.44c1.57-.93 16.61-9.04 18.18-9.97m-12.13 13.46c1.67-.99 16.51-9 18.18-9.98m-12.13 13.47c1.77-1.04 16.4-8.95 18.17-10m-12.12 13.5c1.86-1.1 16.3-8.91 18.17-10.01m-12.12 13.5c1.96-1.16 16.2-8.87 18.16-10.03m-12.1 13.52c2.06-1.22 16.1-8.82 18.16-10.04m-12.11 13.53c2.16-1.28 15.99-8.78 18.15-10.05m-12.1 13.55c2.26-1.33 15.89-8.74 18.15-10.07m-12.1 13.56c2.36-1.39 15.79-8.69 18.14-10.08m-12.09 13.57c2.45-1.45 15.68-8.65 18.14-10.1m-12.08 13.59c2.55-1.51 15.58-8.6 18.13-10.11m-12.08 13.61c2.65-1.57 15.48-8.56 18.13-10.13m-12.08 13.62c2.75-1.62 15.37-8.52 18.12-10.14m-12.07 13.63c2.85-1.68 15.27-8.47 18.12-10.15m-12.07 13.65c2.94-1.74 15.17-8.43 18.11-10.17m-12.05 13.66c3.04-1.8 15.06-8.39 18.11-10.18m-12.06 13.67c3.14-1.86 14.96-8.34 18.1-10.2m-12.05 13.69c3.24-1.91 14.86-8.3 18.1-10.21m-12.05 13.71c3.34-1.97 14.76-8.25 18.09-10.23m-12.04 13.72c3.43-2.03 14.65-8.21 18.09-10.24m-12.03 13.73c3.53-2.09 14.55-8.17 18.08-10.25m-12.03 13.74c3.63-2.15 14.45-8.12 18.08-10.27m-12.03 13.77c3.73-2.2 14.34-8.08 18.07-10.28m-12.02 13.77c3.83-2.26 14.24-8.04 18.07-10.3m-12.02 13.79c3.93-2.32 14.14-7.99 18.06-10.31m-12 13.8c4.02-2.38 14.03-7.95 18.06-10.32m-12.01 13.82c4.12-2.43 13.93-7.9 18.05-10.34m-12 13.83c4.22-2.49 13.83-7.86 18.05-10.35m-12 13.84c4.32-2.55 13.72-7.82 18.04-10.37m-11.99 13.86c4.42-2.61 13.62-7.77 18.04-10.38m-11.98 13.88c4.51-2.67 13.52-7.73 18.03-10.4m-11.98 13.89c4.61-2.72 13.42-7.69 18.03-10.41m-11.98 13.9c4.71-2.78 13.31-7.64 18.02-10.42m-11.97 13.91c4.81-2.84 13.21-7.6 18.02-10.44m-11.97 13.94c4.91-2.9 13.11-7.55 18.01-10.45m-11.95 13.94c5-2.96 13-7.51 18.01-10.47m-11.96 13.96c5.1-3.01 12.9-7.47 18-10.48m-11.95 13.97c5.2-3.07 12.8-7.42 18-10.5m-11.95 14c5.3-3.13 12.69-7.38 17.99-10.51m-11.93 14c5.4-3.19 12.59-7.34 17.99-10.52m-11.94 14.01c5.5-3.25 12.49-7.29 17.98-10.54m-11.93 14.03c5.59-3.3 12.38-7.25 17.98-10.55m-11.93 14.05c5.69-3.36 12.28-7.2 17.97-10.57m-11.92 14.06c5.79-3.42 12.18-7.16 17.97-10.58m-11.91 14.07c5.89-3.48 12.08-7.12 17.96-10.6m-11.91 14.1c5.99-3.54 11.97-7.07 17.96-10.61"/><path class="cls-75" d="M505.61 283.48l51.88 29.95V274.5l-51.88-29.95v38.93z"/><path class="cls-15" d="M505.61 283.48l51.88 29.95V274.5l-51.88-29.95v38.93z"/><path class="cls-69" d="M557.49 313.43v-8.98l-51.88-29.95v8.98l51.88 29.95z"/><path class="cls-15" d="M557.49 313.43v-8.98l-51.88-29.95v8.98l51.88 29.95z"/><path class="cls-56" d="M509.19 273.57v-5.99l44.72 25.82v5.99l-44.72-25.82z"/><path class="cls-15" d="M509.19 273.57v-5.99l44.72 25.82v5.99l-44.72-25.82z"/><path class="cls-56" d="M509.19 264.58v-5.99l44.72 25.82v5.99l-44.72-25.82z"/><path class="cls-15" d="M509.19 264.58v-5.99l44.72 25.82v5.99l-44.72-25.82z"/><path class="cls-56" d="M509.19 255.6v-5.99l44.72 25.81v5.99l-44.72-25.81z"/><path class="cls-15" d="M509.19 255.6v-5.99l44.72 25.81v5.99l-44.72-25.81z"/><path class="cls-71" d="M598.99 289.47l-41.5 23.96V274.5l41.5-23.96v38.93z"/><path class="cls-15" d="M598.99 289.47l-41.5 23.96V274.5l41.5-23.96v38.93z"/><path class="cls-56" d="M557.49 313.43v-8.98l41.5-23.96v8.98l-41.5 23.96z"/><path class="cls-15" d="M557.49 313.43v-8.98l41.5-23.96v8.98l-41.5 23.96z"/><path class="cls-56" d="M595.52 279.47v-5.99l-34.45 19.92v5.99l34.45-19.92z"/><path class="cls-15" d="M595.52 279.47v-5.99l-34.45 19.92v5.99l34.45-19.92z"/><path class="cls-56" d="M595.52 270.49v-5.99l-34.45 19.91v5.99l34.45-19.91z"/><path class="cls-15" d="M595.52 270.49v-5.99l-34.45 19.91v5.99l34.45-19.91z"/><path class="cls-56" d="M595.52 261.5v-5.99l-34.45 19.91v5.99l34.45-19.91z"/><path class="cls-15" d="M595.52 261.5v-5.99l-34.45 19.91v5.99l34.45-19.91z"/><path class="cls-56" d="M598.99 250.54l-51.88-29.95-41.5 23.96 51.88 29.95 41.5-23.96z"/><path class="cls-15" d="M598.99 250.54l-51.88-29.95-41.5 23.96 51.88 29.95 41.5-23.96z"/><path class="cls-1" d="M547.11 223.58l46.69 26.96-36.31 20.96-46.69-26.95 36.31-20.97z"/><path class="cls-75" d="M547.11 226.58v-3l46.69 26.96-2.54 1.46-44.15-25.42z"/><path class="cls-15" d="M547.11 226.58v-3l46.69 26.96-2.54 1.46-44.15-25.42z"/><path class="cls-71" d="M513.45 246.08l33.66-19.5v-3l-36.31 20.97 2.65 1.53z"/><path class="cls-15" d="M513.45 246.08l33.66-19.5v-3l-36.31 20.97 2.65 1.53z"/><path class="cls-71" d="M684.53 240.09l-38.85 22.43v-38.94l38.85-22.43v38.94z"/><path class="cls-15" d="M684.53 240.09l-38.85 22.43v-38.94l38.85-22.43v38.94z"/><path class="cls-56" d="M645.68 262.52v-8.99l38.85-22.43v8.99l-38.85 22.43z"/><path class="cls-15" d="M645.68 262.52v-8.99l38.85-22.43v8.99l-38.85 22.43z"/><path class="cls-56" d="M680.13 230.59v-5.99l-34.45 19.91v5.99l34.45-19.91z"/><path class="cls-15" d="M680.13 230.59v-5.99l-34.45 19.91v5.99l34.45-19.91z"/><path class="cls-56" d="M680.13 221.6v-5.99l-34.45 19.92v5.99l34.45-19.92z"/><path class="cls-15" d="M680.13 221.6v-5.99l-34.45 19.92v5.99l34.45-19.92z"/><path class="cls-56" d="M680.13 212.62v-5.99l-34.45 19.96v5.94l34.45-19.91z"/><path class="cls-15" d="M680.13 212.62v-5.99l-34.45 19.96v5.94l34.45-19.91z"/><path class="cls-56" d="M684.53 201.15l-51.87-29.95-28.49 16.44 41.51 23.96v11.98l38.85-22.43z"/><path class="cls-15" d="M684.53 201.15l-51.87-29.95-28.49 16.44 41.51 23.96v11.98l38.85-22.43z"/><path class="cls-1" d="M632.66 174.19l46.69 26.96-33.67 19.44v-8.99l-38.91-22.46 25.89-14.95z"/><path class="cls-75" d="M632.66 177.19v-3l46.69 26.96-2.55 1.47-44.14-25.43z"/><path class="cls-15" d="M632.66 177.19v-3l46.69 26.96-2.55 1.47-44.14-25.43z"/><path class="cls-71" d="M609.44 190.64l23.22-13.45v-3l-25.89 14.95 2.67 1.5z"/><path class="cls-15" d="M609.44 190.64l23.22-13.45v-3l-25.89 14.95 2.67 1.5z"/><path class="cls-75" d="M598.99 289.47l5.19 3v-56.91l-57.07-32.94v17.97l51.88 29.95v38.93z"/><path class="cls-15" d="M598.99 289.47l5.19 3v-56.91l-57.07-32.94v17.97l51.88 29.95v38.93z"/><path class="cls-56" d="M598.99 289.47v-8.98l5.19 3.02v8.96l-5.19-3z"/><path class="cls-15" d="M598.99 289.47v-8.98l5.19 3.02v8.96l-5.19-3z"/><path class="cls-56" d="M645.68 211.6l-57.07-32.94-41.5 23.96 57.07 32.94 41.5-23.96z"/><path class="cls-15" d="M645.68 211.6l-57.07-32.94-41.5 23.96 57.07 32.94 41.5-23.96z"/><path class="cls-57" d="M588.61 181.65l51.88 29.95-36.31 20.97-51.88-29.95 36.31-20.97z"/><path class="cls-15" d="M588.61 181.65l51.88 29.95-36.31 20.97-51.88-29.95 36.31-20.97z"/><path class="cls-75" d="M588.61 184.65l49.36 28.41 2.52-1.46-51.88-29.95v3z"/><path class="cls-15" d="M588.61 184.65l49.36 28.41 2.52-1.46-51.88-29.95v3z"/><path class="cls-71" d="M552.3 202.62l36.31-20.97v3l-33.65 19.5-2.66-1.53z"/><path class="cls-15" d="M552.3 202.62l36.31-20.97v3l-33.65 19.5-2.66-1.53z"/><path class="cls-56" d="M578.24 193.68v-11.54l10.37 5.99v11.54l-10.37-5.99z"/><path class="cls-66" d="M578.24 193.68v-11.54l10.37 5.99v11.54l-10.37-5.99z"/><path class="cls-56" d="M598.99 193.68l-10.38 5.99v-11.54l10.38-5.99v11.54z"/><path class="cls-66" d="M598.99 193.68l-10.38 5.99v-11.54l10.38-5.99v11.54z"/><path class="cls-56" d="M598.99 182.14l-10.46-6.04-10.29 6.04 10.37 5.99 10.38-5.99z"/><path class="cls-66" d="M598.99 182.14l-10.46-6.04-10.29 6.04 10.37 5.99 10.38-5.99z"/><path class="cls-75" d="M622.28 186.17v-11.54l10.38 5.99v11.54l-10.38-5.99z"/><path class="cls-15" d="M622.28 186.17v-11.54l10.38 5.99v11.54l-10.38-5.99z"/><path class="cls-71" d="M643.03 186.17l-10.37 5.99v-11.54l10.37-5.99v11.54z"/><path class="cls-15" d="M643.03 186.17l-10.37 5.99v-11.54l10.37-5.99v11.54z"/><path class="cls-56" d="M643.03 174.63l-10.45-6.04-10.3 6.04 10.38 5.99 10.37-5.99z"/><path class="cls-15" d="M643.03 174.63l-10.45-6.04-10.3 6.04 10.38 5.99 10.37-5.99z"/><path class="cls-71" d="M645.68 268.51l-41.5 23.96v-56.91l41.5-23.96v56.91z"/><path class="cls-15" d="M645.68 268.51l-41.5 23.96v-56.91l41.5-23.96v56.91z"/><path class="cls-56" d="M604.18 292.47v-8.96l41.5-24v9l-41.5 23.96z"/><path class="cls-15" d="M604.18 292.47v-8.96l41.5-24v9l-41.5 23.96z"/><path class="cls-56" d="M642.23 258.51v-5.99l-34.45 19.91v5.99l34.45-19.91z"/><path class="cls-15" d="M642.23 258.51v-5.99l-34.45 19.91v5.99l34.45-19.91z"/><path class="cls-56" d="M642.23 249.52v-5.99l-34.45 19.92v5.99l34.45-19.92z"/><path class="cls-15" d="M642.23 249.52v-5.99l-34.45 19.92v5.99l34.45-19.92z"/><path class="cls-56" d="M642.23 231.59v-5.99l-34.45 19.92v5.99l34.45-19.92z"/><path class="cls-15" d="M642.23 231.59v-5.99l-34.45 19.92v5.99l34.45-19.92z"/><path class="cls-56" d="M642.23 222.61v-5.99l-34.45 19.91v5.99l34.45-19.91z"/><path class="cls-15" d="M642.23 222.61v-5.99l-34.45 19.91v5.99l34.45-19.91z"/><path class="cls-56" d="M642.23 240.58v-5.99l-34.45 19.91v5.99l34.45-19.91z"/><path class="cls-15" d="M642.23 240.58v-5.99l-34.45 19.91v5.99l34.45-19.91z"/><path class="cls-59" d="M561.36 204.15c1.78.1 4.61.49 7.69 1.99 4.54 2.21 7.04 5.57 8.11 7.21 3.08.17 8.3.86 14.04 3.7a36.087 36.087 0 0 1 12.06 9.7l24.56-17.27-38.51-20.55-27.95 15.23z"/><path class="cls-8" d="M557.13 189.49s5.32.03 9.81 3.52c8.74 6.79 10.52 20.13 10.52 20.13s12.27-4.07 21.76 4.32c8.57 7.57 9.26 10.26 9.26 10.26l31.63-29.84s-4.9-7.31-14.93-11.23c-8.25-3.22-18.13 0-18.13 0s-1.2-9.58-12.59-16.63c-6.94-4.3-8.48-1.32-8.48-1.32l-28.86 20.79z"/><path class="cls-57" d="M577.45 213.15l29.59-26.5"/><path class="cls-15" d="M577.45 213.15l29.59-26.5"/><path class="cls-76" d="M559.11 185.68s5.78 1.4 10.27 4.89c8.74 6.79 10.52 20.13 10.52 20.13s12.56-4.4 21.76 4.32c7.41 7.02 7.58 8.56 7.58 8.56l30.58-28.37s-2.17-7.09-12.2-11c-8.25-3.22-18.13 0-18.13 0s-1.2-9.58-12.59-16.63c-6.94-4.3-8.94-2.69-8.94-2.69l-28.86 20.79z"/><path class="cls-15" d="M559.11 185.68s5.78 1.4 10.27 4.89c8.74 6.79 10.52 20.13 10.52 20.13s12.56-4.4 21.76 4.32c7.41 7.02 7.58 8.56 7.58 8.56l30.58-28.37s-2.17-7.09-12.2-11c-8.25-3.22-18.13 0-18.13 0s-1.2-9.58-12.59-16.63c-6.94-4.3-8.94-2.69-8.94-2.69l-28.86 20.79z"/><path class="cls-57" d="M601.96 191.04l7.53-6.83"/><path class="cls-15" d="M601.96 191.04l7.53-6.83"/><path class="cls-57" d="M579.9 210.7l14.56-12.89"/><path class="cls-15" d="M579.9 210.7l14.56-12.89"/><path class="cls-52" d="M621.52 150.45s-18.59 3.59-19.89 13.04 7.5 12.39 13.69 7.83-.65-13.04 6.2-20.87z"/><path class="cls-78" d="M610.66 158.77c-.93 1.26-1.7 2.7-2.15 4.2-.53 1.56-.14 3.27-.84 4.79-1.25 2.97-3.97 4.63-6.19 6.74-1.07 1.39-1.47 3.16-1.79 4.9-.74 4.72-.53 9.63-.05 14.36.16 1.64-2.3 1.93-2.51.27 0-3.37.22-6.68.63-9.99.5-3.25.92-6.66 2.85-9.45.92-1.05 2.46-2.27 3.57-3.38 1.72-1.61 3.33-3.5 3.32-5.94.02-2.52 1.24-4.88 2.73-6.84.22-.29.69.06.44.35z"/><path class="cls-25" d="M536.91 254.89c-.26 0-.5.05-.75.1 0-.05.01-.1.01-.16-.1-2.94-2.46-5.25-5.35-5.39-.61-3.23-3.47-5.63-6.86-5.51-1.06.04-2.05.34-2.93.81-.92-2.01-2.97-3.38-5.32-3.29-3.1.11-5.53 2.71-5.42 5.82.11 3.1 2.71 5.53 5.82 5.42.54-.02 1.05-.14 1.55-.3.78 3 3.55 5.18 6.78 5.06.34-.01.66-.07.98-.13.91 2.03 2.97 3.42 5.33 3.34a5.61 5.61 0 0 0 2.28-.58 4.15 4.15 0 0 0 4.17 3.13 4.164 4.164 0 0 0 4.01-4.3 4.164 4.164 0 0 0-4.3-4.01z"/><path class="cls-32" d="M520.31 246.28s-2.25 1.26-1.9 4.57m17.09 4.7s-3.1-.12-2.44 3.38"/><path class="cls-25" d="M555.01 265.16c-.26 0-.5.05-.75.1 0-.05.01-.1.01-.16-.1-2.94-2.46-5.25-5.35-5.39-.61-3.23-3.47-5.63-6.86-5.51-1.06.04-2.05.34-2.93.81-.92-2.01-2.97-3.38-5.32-3.29-3.1.11-5.53 2.71-5.42 5.82.11 3.1 2.71 5.53 5.82 5.42.54-.02 1.05-.14 1.55-.3.78 3 3.55 5.18 6.78 5.06.34-.01.66-.07.98-.13.91 2.03 2.97 3.42 5.33 3.34a5.61 5.61 0 0 0 2.28-.58 4.15 4.15 0 0 0 4.17 3.13 4.164 4.164 0 0 0 4.01-4.3 4.164 4.164 0 0 0-4.3-4.01z"/><path class="cls-32" d="M538.41 256.55s-2.25 1.26-1.9 4.57m17.09 4.7s-3.1-.12-2.44 3.38"/><path class="cls-52" d="M595.85 175.88c-7.34 5.43-10.43-7.58-13.21-9.62 0 0 5.19-2.15 10.52 1.71 3.26 2.36 4.56 6.52 2.69 7.91z"/><path class="cls-78" d="M590.08 169.35c2.24.59 4.56 1.83 5.47 4.12.51 2.15 1.64 4.26 3.6 5.34.58.33.05 1.22-.52.86-2.11-1.35-3.22-3.66-3.63-6-.7-2.14-2.89-3.47-4.96-4.13-.11-.02-.07-.21.04-.18z"/><path class="cls-35" d="M602.7 197.68c-1.25.39-2.73.62-4.33.62-3.86 0-7.08-1.32-7.83-3.09m15.62.09c-.28.6-.85 1.14-1.63 1.6m-12.95-4.5c1.41-1.1 3.92-1.83 6.79-1.83 3.86 0 7.08 1.32 7.83 3.09m-16.88 5.21c-1.78-.85-3.06-1.95-3.58-3.18m19.63 3.98c-2.01.63-4.42 1-6.99 1-1 0-1.97-.06-2.91-.16m15.47-4.68c-.46.96-1.38 1.84-2.64 2.58m-2.83-9.19c2.8.9 4.84 2.31 5.54 3.95m-23.6-2.03c2.28-1.77 6.33-2.95 10.96-2.95 1.52 0 2.98.13 4.33.36"/><path class="cls-59" d="M529.01 242.4c0 .94 2.5 1.71 5.59 1.71s5.59-.76 5.59-1.71-2.5-1.71-5.59-1.71-5.59.76-5.59 1.71zm49.47 11.49c3.09 0 5.59-.76 5.59-1.71s-2.5-1.71-5.59-1.71-5.59.76-5.59 1.71 2.5 1.71 5.59 1.71zm-13.69-13.03c-3.68 0-6.82 1.29-8.11 3.11-4.7.09-8.46 2.26-8.46 4.94s3.91 4.95 8.74 4.95c3.68 0 6.82-1.29 8.11-3.11 4.7-.09 8.46-2.26 8.46-4.94s-3.91-4.95-8.74-4.95z"/><circle class="cls-54" cx="578.28" cy="231.84" r="2.57"/><path class="cls-4" d="M582.8 251.04l-3.99-3.91-4.56 3.91v-10.15c0-2.36 1.92-4.28 4.28-4.28 2.36 0 4.28 1.92 4.28 4.28v10.15z"/><circle class="cls-54" cx="534.26" cy="222.06" r="2.57"/><path class="cls-4" d="M538.78 241.26l-4.48-3.42-4.08 3.42v-10.15c0-2.36 1.92-4.28 4.28-4.28 2.36 0 4.28 1.92 4.28 4.28v10.15z"/><path class="cls-19" d="M557.45 227.33v21.52s.65 3.08 3.59.45v-21.25l-3.59-.72z"/><path class="cls-25" d="M568.72 219.39c-.8-5.02-5.13-8.85-10.37-8.85-5.81 0-10.51 4.71-10.51 10.51 0 .44.03.86.09 1.29-3.49 1.43-5.96 4.86-5.96 8.87 0 5.29 4.29 9.59 9.59 9.59s9.59-4.29 9.59-9.59v-.03c.11-.03.22-.05.33-.09.75.23 1.55.36 2.38.36 4.12 0 7.46-3.07 7.46-6.87 0-2.08-1.01-3.94-2.59-5.2zm-59.86-53.82c-.26 0-.5.05-.75.1 0-.05.01-.1.01-.16-.1-2.94-2.46-5.25-5.35-5.39-.61-3.23-3.47-5.63-6.86-5.51-1.06.04-2.05.34-2.93.81-.92-2.01-2.97-3.38-5.32-3.29-3.1.11-5.53 2.71-5.42 5.82.11 3.1 2.71 5.53 5.82 5.42.54-.02 1.05-.14 1.55-.3.78 3 3.55 5.18 6.78 5.06.34-.01.66-.07.98-.13.91 2.03 2.97 3.42 5.33 3.34a5.61 5.61 0 0 0 2.28-.58 4.15 4.15 0 0 0 4.17 3.13 4.164 4.164 0 0 0 4.01-4.3 4.164 4.164 0 0 0-4.3-4.01z"/><path class="cls-32" d="M492.26 156.96s-2.25 1.26-1.9 4.57m17.09 4.7s-3.1-.12-2.44 3.38"/><path class="cls-8" d="M448.54 335.46c-.63-.9-.58-2.06-.09-3.04.46-.94.49-2.1-.1-3.14-.68-1.22-2.12-1.9-3.49-1.65-1.17.21-2.03.97-2.47 1.92-5.7.16-5.95 3.41-5.95 3.41h6.11c.17.81.09 1.66-.26 2.44-.39.89-.59 2.01-.59 3.31 0 3.41 1.39 6.73 3.85 6.73s5.81 1.09 5.81-2.32c0-2.1-1.27-5.41-2.82-7.65z"/><path class="cls-19" d="M443.98 356.3v21.52s.65 3.08 3.59.45v-21.25l-3.59-.72z"/><path class="cls-25" d="M455.25 348.36c-.8-5.02-5.13-8.85-10.37-8.85-5.81 0-10.51 4.71-10.51 10.51 0 .44.03.86.09 1.29-3.49 1.43-5.96 4.86-5.96 8.87 0 5.29 4.29 9.59 9.59 9.59s9.59-4.29 9.59-9.59v-.03c.11-.03.22-.05.33-.09.75.23 1.55.36 2.38.36 4.12 0 7.46-3.07 7.46-6.87 0-2.08-1.01-3.94-2.59-5.2z"/><path class="cls-8" d="M411.74 281.36c-1.83-3.67-5.01-4.52-5.01-4.52l4.04-1.34-4.52-3.79-1.96 2.57s-1.47-4.04-3.91-4.65c-2.45-.61-6.11-4.52-7.21-4.04s-.98 4.65 1.83 7.09c2.81 2.45 4.65 2.92 4.77 5.01a2.512 2.512 0 0 0-2.45 2.51c0 .65.25 1.23.66 1.68-.19.77-.34 2.05.57 2.78l.99-1.99c.1.01.19.03.29.03 1.19 0 2.18-.83 2.44-1.94.8.42 1.6 1.81 4.72 4.02 3.79 2.69 11.25 4.4 11.62 2.57.37-1.83-5.01-2.32-6.85-5.99z"/><path class="cls-10" d="M149.21 217.05h-6.12c.03-1.67 1.39-3.03 3.07-3.03s3.03 1.35 3.05 3.03z"/><path class="cls-54" d="M146.85 214.11v2.93m-1.71-2.93v2.93"/><path class="cls-18" d="M256.82 331.49l-10.27 6.6L38.19 217.04v-6.76c0-2.45.98-7.18 9.78-9.38 0 0 201.51 113.47 204.93 115.18s3.91 3.42 3.79 6.6.24 3.67.12 8.8z"/><path class="cls-10" d="M39.9 213.87l205.51 117.42v2.94L39.9 215.82v-1.95z"/><path class="cls-27" d="M245.57 331.25v-7.34L40.67 209.16s-1.13.83-.89 4.43l13.7 7.88-.29 3.97 10.43 6.36.45-4.3 13.33 7.57-.41 4.06 9.13 5.38.3-4.31 15.29 8.69-.1 4.59 8.97 5.38.28-4.77 18.79 10.68v5.17l7.5 4.24.27-4.96 25.33 14.58.16 5.71 8.15 4.56.2-5.44 22.24 12.76.22 6.05 9.78 5.71v-6.03l15.78 9.05.03 5.78 10.6 6.2.32-5.69 15.33 8.79zm1.91-.69l7.38-4.44v-4.28c0-1.59-1.42-2.46-3.87-1.18-3.3 1.71-3.51 3.06-3.51 9.9zm1.86 2.48l-1.68 1-.07-2.1 1.67-1 .08 2.1zm5.78-3.44l-1.67 1-.07-2.1 1.67-1 .07 2.1zm-56.99-31.93v12.39m5.38-9.79v12.39m-9.62-17.77v12.39m30.65 4.9v13.04m5.38-9.78v12.39m-10.6-18.43v12.39"/><path class="cls-27" d="M171.06 294.08v-11.41l-4.07-2.61v11.9m-4.08-2.45v-11.74m-25.43-14.18l-.17 10.6m-3.75-13.04v11.08m-3.75-13.04v10.76m-19.23-21.68l-.17 10.59m-4.4-13.2v11.08m-4.4-13.37v10.77m-15.33-19.41l-.16 9.62m-4.4-12.06v9.94m-4.4-12.22v9.62m-13.53-17.78l-.17 9.62m-5.05-12.39v9.95m-5.06-12.56v9.62"/><circle class="cls-4" cx="569.14" cy="35.26" r="2.35"/><path class="cls-4" d="M573.28 48.05l-7.84 4.57v-9.07a3.92 3.92 0 1 1 7.84 0v4.5z"/><path class="cls-39" d="M329.37 182.89v-52.34l-52.83-23.63v49.89l52.83 26.08z"/><path class="cls-8" d="M329.37 186.29c-.29 0-.59-.08-.86-.23l-52.82-29.27c-.59-.33-.95-.94-.95-1.61v-49.89c0-.62.32-1.2.85-1.52.53-.32 1.19-.34 1.75-.06l52.82 26.82c.62.31 1.01.95 1.01 1.64v52.33c0 .64-.33 1.22-.88 1.54-.29.17-.61.25-.93.24zm-51.01-32.13l49.2 27.26v-48.18l-49.2-24.98v45.9z"/><ellipse class="cls-6" cx="302.72" cy="143.92" rx="14.6" ry="19.31" transform="rotate(-36.89 302.75 143.922)"/><path class="cls-2" d="M309.64 161.41s-2.36-3.99-5.13-4.36c-2.77-.37-2.61-1.19-2.12-4.15s-.98-4.69.49-5.24 1.63.09 3.42.18 3.42 1.16 4.73-.86 2.45-3.86 4.24-2.3 3.02 1.67 3.26 3.61c.06.52.52 1.29.52 1.29s-.53 4.88-1.83 6.69c-3.26 4.54-7.58 5.14-7.58 5.14z"/><path class="cls-54" d="M286.42 140.56s.98-1.67 2.28-1.73 2.12-.91 2.77 1.51 1.79 2.37 3.59 3.27 1.14-2.33.98-3.3-.82-3.88-.16-4.88.33-2.79-.49-4.22.49-4.59.49-4.59-10.92 1.45-9.46 13.94zm12.06 1.43c-.16-1.62.98-1.67 1.3-1.2s.5 1.73.98 1.91c2.35.89 1.33 3.16-1.3 2.18-1.62-.61-.98-2.89-.98-2.89zm-2.93 3.88c1.18-.94 1.96.24 1.96.89s.98.94 1.63 1.4 2.45 1.85 1.47 2.22-2.61.77-3.26-.51-2.45-3.48-1.79-4z"/><path class="cls-52" d="M244.59 148.98h6.85v5.54h-6.85z"/><path class="cls-52" d="M257.63 157.78l-6.84-3.26v-5.54l6.84-3.75v12.55zm-8.86-3.24h-2.94l1.8 7.18h2.93l-1.79-7.18z"/><path class="cls-9" d="M260.73 146.86l16.47-6.03m-16.47 10.1l18.75-.97m-18.75 5.38l18.26 3.09"/><rect class="cls-51" x="344.69" y="155.99" width="6.85" height="8.31" rx="2.04" ry="2.04"/><circle class="cls-4" cx="343.59" cy="150.81" r="2.57"/><path class="cls-4" d="M348.12 169.19l-4.4-4.24-4.16 4.24v-10.15c0-2.36 1.92-4.28 4.28-4.28 2.36 0 4.28 1.92 4.28 4.28v10.15z"/><path class="cls-23" d="M338.17 156.97h5.05v6.52h-5.05z"/><rect class="cls-51" x="435.54" y="294.16" width="6.85" height="8.31" rx="2.04" ry="2.04"/><circle class="cls-4" cx="434.44" cy="288.98" r="2.57"/><path class="cls-4" d="M438.97 307.37l-4.4-4.24-4.16 4.24v-10.15c0-2.36 1.92-4.28 4.28-4.28 2.36 0 4.28 1.92 4.28 4.28v10.15z"/><path class="cls-23" d="M429.02 295.14h5.05v6.52h-5.05z"/><circle class="cls-4" cx="236.64" cy="155.7" r="2.57"/><path class="cls-4" d="M241.17 174.9l-4.73-3.26-3.83 3.26v-10.15c0-2.36 1.92-4.28 4.28-4.28 2.36 0 4.28 1.92 4.28 4.28v10.15z"/><path class="cls-8" d="M572.81 76.08c.47 12.06 14.36 21.58 23.77 17.88 9.42-3.7 16.61-18.27 16.14-30.32-.47-12.06-14.3-19.79-23.72-16.09s-16.67 16.48-16.19 28.53z"/><ellipse class="cls-52" cx="595.72" cy="71.82" rx="23.58" ry="16.03" transform="rotate(-70.15 595.736 71.815)"/><path class="cls-74" d="M603.48 63.78l-10.56-4.94s-1.96 7.37-8.27 14.17l15.95-8.58"/><path class="cls-70" d="M603.48 63.78l-10.7-4.66.44-.2c-1.07 5.51-4.3 10.5-8.35 14.3l-.38-.49 15.95-8.58c.15-.08.34-.02.42.13s.02.34-.13.42l-15.94 8.59c-.15.08-.34.03-.43-.13a.301.301 0 0 1 .05-.36c3.36-4.3 6.04-9.06 8.21-14.06a.3.3 0 0 1 .43-.18l10.43 5.23z"/><path class="cls-74" d="M587.54 72.66l.22 17.76 13.07-7.32-.34-17.76"/><path class="cls-70" d="M587.54 72.66c.37 5.92.57 11.84.73 17.76l-.75-.43c4.32-2.51 8.68-4.94 13.08-7.31l-.25.43c-.01-5.23-.01-12.61.14-17.76.37 5.11.61 12.54.82 17.74 0 .18-.09.35-.25.43-4.31 2.52-8.66 4.97-13.05 7.35a.5.5 0 0 1-.69-.2c-.17-5.98.05-12.02.22-18.01z"/><path class="cls-58" d="M588.94 74.43l4.87 8.14"/><path class="cls-68" d="M588.94 74.43c2.89 1.85 3.38 5.32 4.87 8.13-1.78-2.64-4.6-4.72-4.87-8.13z"/><path class="cls-68" d="M605.06 50.94c-1.53 4.59-4.04 11.12-5.77 15.71-1.74 4.6-4.61 10.97-5.44 15.78 0 .07-.12.05-.1-.02 2.13-11 5.83-21.69 11.32-31.48z"/><path class="cls-25" d="M528.72 32.29c.25.03.5.1.73.17v-.16c.38-2.92 2.94-5 5.83-4.87.9-3.16 3.98-5.29 7.34-4.86 1.06.14 2.01.53 2.84 1.08a5.62 5.62 0 0 1 5.6-2.79c3.08.4 5.26 3.22 4.86 6.3s-3.22 5.26-6.3 4.86c-.54-.07-1.04-.24-1.51-.44-1.05 2.92-4.01 4.83-7.22 4.41-.33-.04-.65-.14-.96-.22a5.621 5.621 0 0 1-5.62 2.83 5.62 5.62 0 0 1-2.22-.79 4.165 4.165 0 0 1-4.44 2.73 4.147 4.147 0 0 1-3.59-4.65 4.147 4.147 0 0 1 4.65-3.59z"/><path class="cls-32" d="M546.05 25.25s2.12 1.47 1.47 4.73m-17.45 3.1s3.1.16 2.12 3.59"/><circle class="cls-4" cx="158.88" cy="219.37" r="2.57"/><path class="cls-14" d="M163.4 238.57l-4.16-2.93-4.4 2.93v-10.15c0-2.36 1.92-4.28 4.28-4.28 2.36 0 4.28 1.92 4.28 4.28v10.15z"/><path class="cls-21" d="M159.2 230.09l-2.49-5.09s1.02-.61 2.53-.69 2.4.77 2.4.77l-2.45 5.01z"/><path class="cls-56" d="M159.24 228.42l-.04-4"/><path class="cls-78" d="M159.24 228.42c-.52-.96-.37-1.97-.34-2.99.06-.17-.28-.33-.33-.5-.07-.32.57-.76.91-.51.29.16.36.33.36.5-.04.17-.39.34-.32.5.05 1.02.22 2.03-.28 3z"/><circle class="cls-31" cx="449.75" cy="242.86" r="2.42"/><path class="cls-31" d="M454.02 260.99l-3.87-3.55-4.21 3.55v-9.58c0-2.23 1.81-4.04 4.04-4.04s4.04 1.81 4.04 4.04v9.58z"/><circle class="cls-36" cx="420.93" cy="239.7" r="2.52"/><path class="cls-36" d="M425.37 258.54l-4.03-3.69-4.38 3.69v-9.96a4.2 4.2 0 1 1 8.4 0v9.96z"/><path class="cls-23" d="M428.33 253.16l6.36-5.22 28.85 15.81-6.52 5.87-28.69-16.46zm-.33 7.89l4.07-3.33 18.43 10.11-4.16 3.75L428 261.05z"/><path class="cls-24" d="M77.2 152.82c.15-.67.29-1.62.28-2.88 0-1.38-.18-2.66-.35-3.61l-2.61-1.93a30.85 30.85 0 0 0-1.4-5.48l1.82-1.19c-.3-.92-.74-2.14-1.39-3.52-.71-1.51-1.43-2.69-1.97-3.51l-1.82 1.19c-.99-1.58-2.09-3.03-3.27-4.26l-.04-3.62c-.57-.63-1.34-1.41-2.25-2.1-1.01-.76-1.84-1.15-2.43-1.36l.04 3.62c-1.16-.49-2.25-.66-3.22-.53-.63-1.31-1.25-2.62-1.88-3.93-.51.02-1.15.15-1.79.55-.71.44-1.17 1.07-1.47 1.59l1.88 3.93c-.6.9-1.05 2.07-1.3 3.49l-2.61-1.93c-.15.67-.29 1.62-.28 2.88 0 1.38.18 2.66.35 3.61l2.61 1.93c.28 1.81.76 3.66 1.4 5.48-.61.4-1.21.8-1.82 1.19.3.92.74 2.14 1.39 3.52.71 1.51 1.43 2.69 1.97 3.51l1.82-1.19c.99 1.58 2.09 3.03 3.27 4.26l.04 3.62c.57.63 1.34 1.41 2.25 2.1 1.01.76 1.84 1.15 2.43 1.36l-.04-3.62c1.16.49 2.25.66 3.22.53.63 1.31 1.25 2.62 1.88 3.93.51-.02 1.15-.15 1.79-.55.71-.44 1.17-1.07 1.47-1.59l-1.88-3.93c.6-.9 1.05-2.07 1.3-3.49l2.61 1.93z"/><path class="cls-30" d="M57.39 138.61c.09.35.19.75.19.75s-.22-.81-.35-1.47c-.31-1.53-.37-2.97-.37-3.31-.03-2.87.79-4.84 2.14-5.7 1.94-1.22 4.47.44 5.18.9.69.45 1.18.95 1.52 1.34m4.09 6.24c1.19 2.68 1.92 5.59 1.95 8.21.06 5.68-3.21 7.83-7.32 4.8-.1-.07-.19-.14-.29-.22"/><path class="cls-52" d="M59.29 136.71c.48-1.31 1.32-1.74 1.57-1.86.9-.43 1.79-.19 2.23-.09 1.2.26 2.88.25 4.86-1.02.23 1.28.49 3.08.58 5.08.08 1.85.16 3.82-.39 5.61-.28.91-.85 2.76-2.42 3.1-2.5.54-5.62-3.21-6.04-3.72-.21-.72-1.3-4.6-.39-7.1z"/><path class="cls-15" d="M59.56 145.61l.12-1.8c.52-1.07 1.11-1.58 1.56-1.86.75-.45 1.28-.33 2.25-.75.78-.34 1.33-.82 1.68-1.17"/><path class="cls-78" d="M331.47 56.58c.25.29.68.64 1.04.84.58.34.86.2.86-.21 0-.46-.28-.84-.81-1.5-.86-1.02-1.18-1.87-1.18-2.44 0-1.01.67-1.46 1.99-.7.41.24.8.58.99.8l-.2.94a3.33 3.33 0 0 0-.8-.68c-.52-.3-.77-.13-.77.2 0 .37.19.68.87 1.48.83.98 1.14 1.8 1.14 2.46 0 1.15-.85 1.41-2.08.7-.5-.29-1-.71-1.2-.95l.18-.95zm5.04-2.12v6.29l-1.22-.71v-6.29l1.22.71zm1.09 6.91v-6.29l1.12.65.97 3.02c.19.59.49 1.58.67 2.23h.02c-.04-.67-.12-1.81-.12-2.97v-1.39l1.07.62v6.29l-1.12-.65-.96-2.94c-.21-.65-.49-1.61-.63-2.26h-.02c.03.64.07 1.64.07 2.9V62l-1.07-.62zm8.3 4.65c-.27-.04-.85-.27-1.31-.53-.72-.42-1.26-.93-1.68-1.6-.54-.84-.83-1.94-.81-3.01.03-2.27 1.33-2.46 2.67-1.69.48.28.83.57 1.03.78l-.21.93c-.18-.2-.41-.38-.72-.56-.83-.48-1.49-.3-1.49 1.35 0 1.51.59 2.39 1.16 2.72.11.06.2.1.24.11V63l-.56-.32v-1l1.69.98v3.36zm1.91-.17l-.28 1.27-1.18-.69 1.36-5.5 1.46.85 1.22 7-1.18-.69-.27-1.59-1.13-.65zm1.02-.36l-.21-1.43c-.07-.42-.15-1.09-.2-1.55l-.03-.02c-.07.38-.16.98-.22 1.31l-.23 1.17.9.52zm2.26-2.5c.35.13.81.35 1.28.62.73.42 1.3.85 1.71 1.47.37.54.54 1.16.54 1.69 0 .68-.21 1.04-.53 1.2-.39.18-1.03 0-1.53-.29l-.24-.14v2.34l-1.22-.71v-6.19zm1.22 3.56c.06.05.12.09.2.13.62.36.9.08.9-.51 0-.55-.22-1.11-.79-1.44-.11-.07-.22-.11-.3-.13v1.94zm6.75 4c0 2.37-.84 2.84-2.03 2.15-1.43-.83-1.99-2.66-1.99-4.39s.68-2.81 2.07-2c1.52.88 1.95 2.8 1.95 4.24zm-2.75-1.48c0 1.43.27 2.31.77 2.6s.71-.52.71-1.8c0-1.1-.17-2.2-.72-2.52-.49-.28-.76.36-.76 1.72zm3.52-1.01c.38.15.87.38 1.33.65.67.39 1.27.83 1.68 1.44.38.57.49 1.05.49 1.59 0 .67-.33 1.09-.97 1.01v.02c.43.42.64.94.77 1.68.12.77.29 1.64.4 1.94l-1.28-.74c-.07-.22-.21-.94-.31-1.68-.11-.85-.31-1.19-.72-1.42l-.18-.1v2.51l-1.22-.71v-6.19zm1.22 3.45l.21.12c.53.31.84.06.84-.49s-.21-1.04-.77-1.38c-.1-.06-.22-.12-.29-.13v1.88zm5.83 4.06l-1.44-.83v1.7l1.62.94v1.06l-2.85-1.65V70.5l2.73 1.58v1.06l-1.51-.88v1.45l1.44.83v1.02zm-24.91-8.35c.35.13.81.35 1.28.62.73.42 1.3.85 1.71 1.47.37.54.54 1.16.54 1.69 0 .68-.21 1.04-.53 1.2-.39.18-1.03 0-1.53-.29l-.24-.14v2.34l-1.22-.71v-6.19zm1.22 3.56c.06.05.12.09.2.13.62.36.9.08.9-.51 0-.55-.22-1.11-.79-1.44-.11-.07-.22-.11-.3-.13v1.94zm6.75 3.99c0 2.37-.84 2.84-2.03 2.15-1.43-.83-1.99-2.66-1.99-4.39s.68-2.81 2.07-2c1.52.88 1.95 2.8 1.95 4.24zm-2.75-1.48c0 1.43.27 2.31.77 2.6s.71-.52.71-1.8c0-1.1-.17-2.2-.72-2.52-.49-.28-.76.36-.76 1.72zm3.53-1.1l1.22.71v5.25l1.61.93v1.04l-2.84-1.64v-6.29zm3.76 8.47v-2.41l-1.38-4.68 1.31.76.43 1.75c.11.47.23 1 .33 1.52h.02c.07-.4.18-.8.29-1.18l.37-1.26 1.27.74-1.41 3.02v2.45l-1.22-.71z"/><path class="cls-25" d="M211.95 52.84c-.16-1.44-.7-2.86-1.64-4.1-2.79-3.66-8.02-4.38-11.68-1.59s-4.38 8.02-1.59 11.68c2.67 3.51 7.57 4.3 11.2 1.92.32.04.64.08.98.08 3.06 0 5.54-1.92 5.54-4.28 0-1.59-1.14-2.97-2.81-3.71z"/><path class="cls-59" d="M535.89 46.37c4.83 0 8.74-2.22 8.74-4.95s-3.91-4.95-8.74-4.95-8.74 2.22-8.74 4.95 3.91 4.95 8.74 4.95z"/><path class="cls-19" d="M536.28 21.28V42.8s-.65 3.08-3.59.45V21.99l3.59-.72z"/><path class="cls-25" d="M523.68 12.5c.76-.88 1.67-1.55 2.66-2.02.09-1.7.71-3.38 1.91-4.76 2.87-3.35 7.91-3.73 11.26-.86a7.935 7.935 0 0 1 2.71 5.04c.89.32 1.74.8 2.51 1.45 3.35 2.87 3.73 7.91.86 11.26-2.73 3.19-7.43 3.68-10.76 1.24a7.996 7.996 0 0 1-10.28-.09c-3.35-2.87-3.73-7.91-.86-11.26z"/><circle class="cls-4" cx="554.52" cy="28.93" r="2.49"/><path class="cls-4" d="M553.86 33.56h1.8c1.8 0 3.26 1.46 3.26 3.26v10.76h-8.31V36.82c0-1.8 1.46-3.26 3.26-3.26z"/><g><path class="cls-59" d="M537.94 48.73l15.65 8.5c.15.08.32.07.46-.01l7.8-4.88a.46.46 0 0 0-.08-.82l-17.81-7a.468.468 0 0 0-.4.03l-5.64 3.38c-.3.18-.3.63.02.8z"/><path class="cls-8" d="M554.84 50.18l-.98 6.36 2.23-1.31.87-6.68-2.12 1.63zm-14.83-8.15l-1.8 6.36 2.45-1.63 1.47-6.36-2.12 1.63z"/><path class="cls-8" d="M557.51 47.75l3.85 3.9-1.77 1.12-4.12-4.18 2.04-.84z"/><path class="cls-10" d="M537.24 43.33l17.6 8.97 6.52-4.4-17.6-8.48-6.52 3.91z"/><path class="cls-8" d="M537.24 43.33l17.6 8.97 6.52-4.4-17.6-8.48-6.52 3.91z"/></g></g></g></svg>